<svg id="Layer_1" data-name="Layer 1" xmlns="http://www.w3.org/2000/svg" viewBox="0 0 44 44"><defs><style>.cls-1{fill:#3d3c1f;stroke:#60602b;stroke-miterlimit:10;stroke-width:0.38px;}.cls-2{fill:#91873c;}.cls-3{fill:#53583e;}.cls-4{fill:#f9b862;}</style></defs><path class="cls-1" d="M3.5,19.8c.8,2.8,2.9,5.4,4.8,7.6a62.8,62.8,0,0,0,4.9,5.4c2.1,2.2,4.1,4.4,6.3,6.5A35.9,35.9,0,0,0,23,42.5c3.9,3.1,9.2-.9,12.9-2.5a9,9,0,0,0,3.4-2,4,4,0,0,0,1.2-2.1,4.8,4.8,0,0,0,0-1.2v-.4a5.3,5.3,0,0,0-.4-2.5.8.8,0,0,0-.2-.5h-.4l-1.2-.3a2.6,2.6,0,0,0,2.1-1.4c.6-1.2.2-2.9.1-4.2a43.5,43.5,0,0,0-.2-5.1,22.8,22.8,0,0,0-.2-2.6,5.9,5.9,0,0,0-.5-2.3,2.3,2.3,0,0,0-1.1-.8h1.3c.1,0,0-1.1,0-1.2a13.4,13.4,0,0,0-.1-2,3.6,3.6,0,0,0-.4-1.1c-.1-.3-.3-.4-.4-.6C37.4,7.3,36.2,5,34,3.5l-.9-.6A19.8,19.8,0,0,0,26.3.4C23,0,20.9,2,18.2,3.8L13.3,7.2a29.6,29.6,0,0,0-2.6,2.4L9.1,11.2a.9.9,0,0,0-.1,1v.4l-1,.6H7.2a5.8,5.8,0,0,0-1.7,1.4H5.4L4.2,16.3l-.6.7a2.9,2.9,0,0,0-.2.9A3.1,3.1,0,0,0,3.5,19.8Z"/><path class="cls-2" d="M3.3,18.8A1.7,1.7,0,0,0,4,20.2l.3.3,1,.6h.2l1.2.6H6.6l-2.1-.2.5.7a18.8,18.8,0,0,0,1.6,2.3l1,1.5,1.2,1.3.4.3.8.2h0a18.4,18.4,0,0,1,3.3.3h-.7l-1.8.4c-.2.1-.5.1-.6.3l.5.6a10.6,10.6,0,0,0,1.5,1.5c.1.1.3.2.4.4a3.2,3.2,0,0,0,1,1c1.8,1.7,3.7,3.4,5.4,5.2a15.8,15.8,0,0,0,1.5,1.2A6.7,6.7,0,0,0,24,40.1a7.4,7.4,0,0,0,3.3-.9c3.1-1.4,7.8-2.7,9.1-6.1a5.6,5.6,0,0,0,.4-1.2c0-.4.1-.9.1-1.4V30a1.6,1.6,0,0,0-1-.5l-6-.6h-.8l6.5-1.1h.5l.7-.4a1.8,1.8,0,0,0,.4-1.3,3.7,3.7,0,0,1-.1-1.1V20.3a9.1,9.1,0,0,1-.1-1.7.9.9,0,0,0,.1-.5,1.3,1.3,0,0,0,.1-.6v-.4c0-1.1-.2-2.2-.3-3.3a1.1,1.1,0,0,0-.3-.9,1.1,1.1,0,0,0-.8-.2H29.1l3.2-.5,2.1-.5.7-.2h1.1a.1.1,0,0,0,.1-.1c0-.7.1-1.4.1-2.2V8.4a6.6,6.6,0,0,0-.6-3.1A4.5,4.5,0,0,0,34,3.5l-.9-.6A19.8,19.8,0,0,0,26.3.4C23,0,20.9,2,18.2,3.8s-3.7,2.6-5.4,4h-.2a5,5,0,0,0-1.3,1.2l-.8.8a2.8,2.8,0,0,0-.9,1v.2c0,.2.2.2.3.3h.6l3.5.7H12.7a20.5,20.5,0,0,0-3.5.1,9,9,0,0,0-1.6.3l-.6.3-.3.3a3.9,3.9,0,0,1-.8,1c-1,1.2-2.2,2.3-2.5,3.8A2.2,2.2,0,0,0,3.3,18.8Z"/><path class="cls-3" d="M10.2,29a13.1,13.1,0,0,0,2,2.1c.1.1.3.2.4.4a3.2,3.2,0,0,0,1,1c1.8,1.7,3.7,3.4,5.4,5.2a15.8,15.8,0,0,0,1.5,1.2A6.7,6.7,0,0,0,24,40.1a7.4,7.4,0,0,0,3.3-.9c3.1-1.4,7.8-2.7,9.1-6.1a5.6,5.6,0,0,0,.4-1.2c0-.4.1-.9.1-1.4V30a1.6,1.6,0,0,0-1-.5l-6-.6,2.3.7.8.2h1l2,.3h.2a.3.3,0,0,1,.1.2,9.5,9.5,0,0,1-.7,2.9,3,3,0,0,1-.4.8l-.9.7a8.2,8.2,0,0,1-2,1.2l-.8.3-1.1.5A33.4,33.4,0,0,1,26,38.6h-.4a5,5,0,0,1-2.1.2c-2.3-.2-4.1-1.7-5.8-3.1l-1.8-1.7-4.8-4.6a6.1,6.1,0,0,1,1.6-1.2h-.1l-1.8.4C10.6,28.8,10.3,28.8,10.2,29Z"/><path class="cls-3" d="M36.6,14a11.3,11.3,0,0,1,0,2.6.8.8,0,0,1-.3.7.7.7,0,0,1-.6.3l-2.3.3a7.6,7.6,0,0,1,2.1.3,2.5,2.5,0,0,1,.9.4,2.2,2.2,0,0,1,.4,1.6,37.8,37.8,0,0,1-.7,7.4l.7-.4a1.8,1.8,0,0,0,.4-1.3,3.7,3.7,0,0,1-.1-1.1V20.3a9.1,9.1,0,0,1-.1-1.7,4.3,4.3,0,0,0,.2-1.1c0-1.2-.2-2.5-.3-3.7a1.1,1.1,0,0,0-.3-.9,1.1,1.1,0,0,0-.8-.2H32.4A22.5,22.5,0,0,1,36.6,14Z"/><path class="cls-3" d="M9.5,11.1c0,.2.2.2.3.3h.6c-.2-.5.3-1.1.7-1.5a68.6,68.6,0,0,1,9.8-7.2,12.3,12.3,0,0,1,2.5-1.4A4.7,4.7,0,0,1,26,1.1a56,56,0,0,1,6.8,2.6A6.9,6.9,0,0,1,35,5.3a5.5,5.5,0,0,1,.8,3.1c.1,1,0,2,0,3h.4a.1.1,0,0,0,.1-.1c0-.7.1-1.4.1-2.2a7.8,7.8,0,0,0-.6-3.7A4.5,4.5,0,0,0,34,3.5l-.9-.6A19.8,19.8,0,0,0,26.3.4C23,0,20.9,2,18.2,3.8s-3.7,2.6-5.4,4a6.4,6.4,0,0,0-1.5,1.3l-.8.8a2.8,2.8,0,0,0-.9,1Z"/><path class="cls-3" d="M4,20.2l.3.3A6.3,6.3,0,0,1,4,18.6a3.5,3.5,0,0,1,.6-1.4l1.2-2.1a5.8,5.8,0,0,1,1-1.2,3.8,3.8,0,0,1,1.3-.6l2.4-.6,2.2-.4c.2,0,.2,0,0-.1a20.5,20.5,0,0,0-3.5.1,5.1,5.1,0,0,0-2.2.6l-.3.3a3.9,3.9,0,0,1-.8,1c-1,1.2-2.2,2.3-2.5,3.8A2,2,0,0,0,4,20.2Z"/><path class="cls-3" d="M4.5,21.6l2.1,3,1,1.5,1.2,1.3.4.3.8.2h0c-.5-.7-1.2-1.1-1.7-1.7s-1-1.6-1.5-2.4-1.6-1.5-.4-1.9h.2Z"/><path class="cls-3" d="M21.3,18.5q-.3.2,0,.3l1,.9a.2.2,0,0,0,.3,0l.8-.6-.6-.5h0l.6.5L28,15.2a.4.4,0,0,0,.1-.3V11.3c0-.8-.1-1.7-.1-2.5a.3.3,0,0,1,.1-.2h.1a6.2,6.2,0,0,1,2.5-2.4A2.3,2.3,0,0,1,32,6a3.6,3.6,0,0,0-2.3-.9h-.4L26.4,7.7h-.2c0,.1,0,.1-.1.1v.2c0,1.2,0,2.3.1,3.5v2.5c0,.2,0,.3-.2.4Z"/><path class="cls-3" d="M30.2,33.4a2.6,2.6,0,0,1-1.4-1.8c-.1-.1-.1-.1-.1-.2-.1-2-.1-4-.2-5.9a.4.4,0,0,0-.1-.3l-4-3.5h-.3l-.4.3-.6.5c-.1.1-.1.2.1.3l3.3,2.8a.8.8,0,0,1,.2.4c0,2,.1,4,.1,6v.2l1,.9.7.6a1.8,1.8,0,0,0,.7.5c.4.4.6.6.9.6a.9.9,0,0,0,.8-.1c.7-.2.8-1,.9-1.1A2.4,2.4,0,0,1,30.2,33.4Z"/><path class="cls-3" d="M17.3,24l3.2-2.8c.1,0,.1-.1,0-.2l-1-.9c-.2-.1-.2-.1-.4,0l-1.7,1.5h-.3l-2-1.8c-.1-.1-.1-.1,0-.2l2-1.7h.3a.2.2,0,0,0,.3,0l1-.9c.1-.1.1-.1,0-.2l-1.3-1.1c-.2-.2-.2-.2-.4,0l-4.7,3.9Z"/><path class="cls-3" d="M21,18a.2.2,0,0,0,.3,0l1-.9c.2-.1.1-.1,0-.2l-1.7-1.5q-.3-.2,0-.3a27.5,27.5,0,0,1,2.6-2.2c.1-.1.2-.3.3-.2s0,.2,0,.3,0,.4-.2.6l-2,1.7c-.2.1-.2.1,0,.3l1,.8q.1.3.3,0l2.7-2.2a.4.4,0,0,0,.1-.3c0-1.7-.1-3.3-.1-4.9V8.8h-.1L17.9,15a.2.2,0,0,0,0,.3Z"/><path class="cls-3" d="M25.4,25.7l-4.5-3.9c-.1-.1-.2-.1-.2,0l-.8.6c-.1.1-.1.2.1.3l3.8,3.4a.2.2,0,0,1,.2.2v1.1c-1.2-.9-2.3-1.9-3.4-2.9a.2.2,0,0,1,0-.3h.1a.2.2,0,0,0,0-.3l-.8-.6c-.1-.2-.2-.1-.3,0l-1.1.8c-.1.2-.1.2.1.4l6.9,6,.2.2h0c0-1.6-.1-3.2-.1-4.7Z"/><path class="cls-3" d="M21.7,21.6a.2.2,0,0,0,0,.3l.8.6c.1.2.2.1.3,0l.8-.6c.1-.2.3-.3.5-.5l1.4-1.1a.2.2,0,0,0,0-.3l-1.3-1c0-.1-.1-.1-.2,0l-.4.3-.3.3c-.2.2-.2.1,0,.3s.2.2,0,.3A10.7,10.7,0,0,1,21.7,21.6Z"/><path class="cls-3" d="M20.3,18.2c.1-.1.1-.1,0-.2l-.8-.7a.2.2,0,0,0-.3,0l-1.4,1.2-1.4,1.1a.2.2,0,0,0,0,.3l1.1.9h.3l.7-.6c.1-.1.1-.2,0-.2a.2.2,0,0,1,0-.3Z"/><path class="cls-3" d="M20.4,20.3l.8.7h.2l.8-.7c.1-.1.1-.1,0-.2l-1.5-1.3a.2.2,0,0,0-.3,0l-.7.6a.2.2,0,0,0,0,.3Z"/><path class="cls-4" d="M20.2,17.4a.2.2,0,0,0,0,.3l1,.8c.2.2.2.2.4.1a4.6,4.6,0,0,1,.7-.7l-.5-.4h0l.5.4L26.9,14a.4.4,0,0,0,.1-.3V10.1a19.3,19.3,0,0,0-.1-2.4.3.3,0,0,1,.1-.2h.1c.3-.3,1.1-1.9,2.5-2.4l1.3-.2a3.3,3.3,0,0,0-2.3-.9h-.4L25.3,6.6h-.1c0,.1,0,.1-.1.1h0V7c.1,1.1.1,2.3.1,3.4V13a.4.4,0,0,1-.1.3Z"/><path class="cls-4" d="M29.1,32.2a2.4,2.4,0,0,1-1.4-1.7.3.3,0,0,0-.1-.2c0-2-.1-4-.1-6,0-.1,0-.2-.2-.3l-4-3.5a.2.2,0,0,0-.3,0c-.1.1-.2.3-.4.4l-.5.4c-.2.1-.1.2,0,.3l3.3,2.9a.5.5,0,0,1,.2.4c.1,2,.1,4,.2,6v.2l.9.8.8.7.6.5a3.5,3.5,0,0,0,.9.6,1.5,1.5,0,0,0,.8-.1,1.3,1.3,0,0,0,.9-1.1A3.9,3.9,0,0,1,29.1,32.2Z"/><path class="cls-4" d="M16.2,22.8l3.2-2.7c.1-.1.1-.2,0-.2l-1-.9c-.1-.2-.2-.1-.3,0l-1.8,1.4c-.1.1-.1.1-.3,0l-2-1.7a.2.2,0,0,1,0-.3l2.1-1.7h.2a.2.2,0,0,0,.3,0l1-.8a.2.2,0,0,0,0-.3l-1.2-1c-.3-.3-.2-.3-.5,0l-4.6,3.9Z"/><path class="cls-4" d="M20,16.8h.3l1-.8a.2.2,0,0,0,0-.3l-1.8-1.5a.2.2,0,0,1,0-.3l2.6-2.2.3-.2c.1.1,0,.2.1.3a.6.6,0,0,1-.3.6l-2,1.7a.2.2,0,0,0,0,.3l1,.9h.4a27.5,27.5,0,0,1,2.6-2.2c.1-.1.2-.2.1-.4s-.1-3.2-.1-4.8V7.7h-.1l-7.3,6.2c-.1.1,0,.1,0,.2Z"/><path class="cls-4" d="M24.3,24.5l-4.5-3.8h-.2l-.7.6c-.2.1-.2.1,0,.3l3.9,3.3c0,.1.1.1.1.2a5.7,5.7,0,0,0,.1,1.3h-.2l-3.3-2.9c-.2-.1-.2-.2-.1-.3a.1.1,0,0,0,.1-.1c.2-.1.1-.1,0-.2l-.8-.7a.2.2,0,0,0-.3,0l-1,.9q-.3.2,0,.3l6.9,6.1h.2c0-1.5-.1-3.1-.1-4.7Z"/><path class="cls-4" d="M20.6,20.5c-.1.1-.1.1.1.2l.7.7a.2.2,0,0,0,.3,0l.8-.7.6-.4,1.3-1.2c.1-.1.1-.1,0-.2l-1.2-1.1a.2.2,0,0,0-.3,0l-.4.4-.3.2c-.2.2-.2.2.1.4a.2.2,0,0,1,0,.3Z"/><path class="cls-4" d="M19.2,17.1a.2.2,0,0,0,0-.3l-.8-.7c-.1-.1-.1-.1-.2,0l-1.4,1.2-1.4,1.2c-.1.1-.1.1,0,.2a9.4,9.4,0,0,1,1,1c.1,0,.2.1.3,0a2.7,2.7,0,0,1,.8-.7c.1-.1.1-.1,0-.2s-.1-.2,0-.3Z"/><path class="cls-4" d="M19.4,19.1l.7.7h.2l.9-.7a.3.3,0,0,0-.1-.2l-1.5-1.3c-.1-.1-.1,0-.2,0l-.8.7c-.1.1-.1.1,0,.2Z"/></svg>