<svg id="Layer_1" data-name="Layer 1" xmlns="http://www.w3.org/2000/svg" viewBox="0 0 44 44"><defs><style>.cls-1{fill:#3d3c1f;stroke:#60602b;stroke-miterlimit:10;stroke-width:0.38px;}.cls-2{fill:#91873c;}.cls-3{fill:#53583e;}.cls-4{fill:#f9b862;}</style></defs><path class="cls-1" d="M40.6,17.9a2.9,2.9,0,0,0-.2-.9l-.6-.7-1.2-1.7h-.1a5.8,5.8,0,0,0-1.7-1.4H36l-1-.6v-.4a.9.9,0,0,0-.1-1L33.3,9.6a19.5,19.5,0,0,0-2.6-2.4L25.8,3.8C23.1,2,21,0,17.7.4a20.6,20.6,0,0,0-6.8,2.5l-.9.6C7.8,5,6.6,7.3,5.1,9.7c-.1.2-.3.3-.4.6a3.6,3.6,0,0,0-.4,1.1,13.4,13.4,0,0,0-.1,2c0,.1-.1,1.2,0,1.2H5.5a2.1,2.1,0,0,0-1.1.8,5.9,5.9,0,0,0-.5,2.3,22.8,22.8,0,0,0-.2,2.6,43.5,43.5,0,0,0-.2,5.1c-.1,1.3-.5,3,.1,4.2A2.6,2.6,0,0,0,5.7,31l-1.2.3H4.1a.8.8,0,0,0-.2.5,5.3,5.3,0,0,0-.4,2.5v1.6A4.5,4.5,0,0,0,4.7,38a9,9,0,0,0,3.4,2c3.7,1.6,9,5.6,12.9,2.5l3.5-3.2c2.2-2.1,4.2-4.3,6.3-6.5a62.8,62.8,0,0,0,4.9-5.4c1.9-2.2,4-4.8,4.8-7.6A3.1,3.1,0,0,0,40.6,17.9Z"/><path class="cls-2" d="M40.6,17.8c-.3-1.5-1.5-2.6-2.5-3.8a3.9,3.9,0,0,1-.8-1l-.3-.3-.6-.3-1.6-.3a20.5,20.5,0,0,0-3.5-.1H30l3.5-.7h.6c.1-.1.3-.1.3-.3v-.2a2.8,2.8,0,0,0-.9-1L32.7,9a4.9,4.9,0,0,0-1.3-1.2h-.2a54.3,54.3,0,0,0-5.4-4C23.1,2,21,0,17.7.4a20.6,20.6,0,0,0-6.8,2.5l-.9.6A3.9,3.9,0,0,0,8.2,5.3a8.1,8.1,0,0,0-.6,3.1v.8c0,.8.1,1.5.1,2.2H8.9l.7.2,2.1.5,3.2.5H8.2a1.1,1.1,0,0,0-.8.2,1.4,1.4,0,0,0-.3.9c-.1,1.1-.3,2.2-.3,3.3v.4a1.3,1.3,0,0,0,.1.6.9.9,0,0,0,.1.5,9.7,9.7,0,0,1-.1,1.7V25a4.1,4.1,0,0,1-.1,1.1,2,2,0,0,0,.4,1.3l.7.4h.5l6.5,1.1h-.8l-6,.6a1.4,1.4,0,0,0-1,.5v.5c0,.5.1,1,.1,1.4a5.6,5.6,0,0,0,.4,1.2c1.3,3.4,6,4.7,9.1,6.1a6.3,6.3,0,0,0,3.3.9,6.4,6.4,0,0,0,3.5-1.4L25,37.5c1.7-1.8,3.6-3.5,5.4-5.2a4.7,4.7,0,0,0,1-1l.4-.4a7.1,7.1,0,0,0,1.5-1.5l.5-.6c-.1-.2-.4-.2-.6-.3l-1.8-.4h-.7a18.4,18.4,0,0,1,3.3-.3h0l.8-.2.4-.3L36.4,26l1-1.5A18.8,18.8,0,0,0,39,22.2l.5-.7-2.1.2h-.1l1.2-.6h.2l1-.6.3-.3a1.5,1.5,0,0,0,.7-1.4A3.4,3.4,0,0,0,40.6,17.8Z"/><path class="cls-3" d="M33.2,28.6l-1.8-.4h-.1a6.1,6.1,0,0,1,1.6,1.2L28.1,34l-1.8,1.7c-1.7,1.4-3.5,2.9-5.8,3.1a5,5,0,0,1-2.1-.2H18a34.3,34.3,0,0,1-4.4-1.9l-1.1-.5-.8-.3a8.2,8.2,0,0,1-2-1.2L8.8,34a2,2,0,0,1-.4-.8,9.5,9.5,0,0,1-.7-2.9c0-.1,0-.1.1-.2H8l2-.3h1l.8-.2,2.3-.7-6,.6a1.4,1.4,0,0,0-1,.5v.5c0,.5.1,1,.1,1.4a5.6,5.6,0,0,0,.4,1.2c1.3,3.4,6,4.7,9.1,6.1a6.3,6.3,0,0,0,3.3.9,7,7,0,0,0,3.5-1.2L25,37.7c1.7-1.8,3.6-3.5,5.4-5.2a4.7,4.7,0,0,0,1-1l.4-.4a13.4,13.4,0,0,0,2-2.1C33.7,28.8,33.4,28.8,33.2,28.6Z"/><path class="cls-3" d="M11.6,12.7H8.2a1.1,1.1,0,0,0-.8.2,1.4,1.4,0,0,0-.3.9c-.1,1.2-.3,2.5-.3,3.7A4.3,4.3,0,0,0,7,18.6a9.7,9.7,0,0,1-.1,1.7v4.5a4.1,4.1,0,0,1-.1,1.1,2,2,0,0,0,.4,1.3l.7.4a36.4,36.4,0,0,1-.7-7.4,2.3,2.3,0,0,1,.4-1.6l.9-.4a7.6,7.6,0,0,1,2.1-.3l-2.3-.3a.7.7,0,0,1-.6-.3.9.9,0,0,1-.3-.7,11.3,11.3,0,0,1,0-2.6A22.5,22.5,0,0,1,11.6,12.7Z"/><path class="cls-3" d="M34.4,10.9a2.8,2.8,0,0,0-.9-1l-.8-.8a6.4,6.4,0,0,0-1.5-1.3,54.3,54.3,0,0,0-5.4-4C23.1,2,21,0,17.7.4a20.6,20.6,0,0,0-6.8,2.5l-.9.6A4.1,4.1,0,0,0,8.2,5.4a7.8,7.8,0,0,0-.6,3.7c0,.8.1,1.5.1,2.2h.5c0-1-.1-2,0-3A5.5,5.5,0,0,1,9,5.3a6.9,6.9,0,0,1,2.2-1.6A56,56,0,0,1,18,1.1a4.6,4.6,0,0,1,2.6.2,12.3,12.3,0,0,1,2.5,1.4,63.4,63.4,0,0,1,9.8,7.2c.4.4.9,1,.7,1.5h.6c.1-.1.3-.1.3-.3Z"/><path class="cls-3" d="M40.6,18c-.3-1.5-1.5-2.6-2.5-3.8a3.9,3.9,0,0,1-.8-1l-.3-.3a4.3,4.3,0,0,0-2.2-.6,20.5,20.5,0,0,0-3.5-.1c-.2.1-.2.1,0,.1l2.2.4,2.4.6a3.1,3.1,0,0,1,1.3.6l1,1.2,1.2,2.1a3.5,3.5,0,0,1,.6,1.4,6.3,6.3,0,0,1-.3,1.9l.3-.3A2,2,0,0,0,40.6,18Z"/><path class="cls-3" d="M37.4,21.9h.2c1.2.4.1,1.1-.4,1.9a25.2,25.2,0,0,1-1.5,2.4c-.5.6-1.2,1-1.7,1.7h0l.8-.2.4-.3,1.2-1.3,1-1.5,2.1-3Z"/><path class="cls-3" d="M18,14.4c-.2-.1-.2-.2-.2-.4V11.5c.1-1.2.1-2.3.1-3.5V7.8h-.3L14.7,5.1h-.4A3.3,3.3,0,0,0,12,6a2,2,0,0,1,1.3.2,6.4,6.4,0,0,1,2.5,2.4h.1c.1.1.1.1.1.2s-.1,1.7-.1,2.5v3.6a.4.4,0,0,0,.1.3l4.6,3.9.6-.5h0l-.6.5.8.6h0a.2.2,0,0,0,.3,0l1-.9q.3-.2,0-.3Z"/><path class="cls-3" d="M12.2,33.6c.1.1.2.9.9,1.1a.8.8,0,0,0,.8.1c.3,0,.5-.2.9-.6a1.8,1.8,0,0,0,.7-.5l.7-.6,1-.9V32c0-2,.1-4,.1-6a.8.8,0,0,1,.2-.4l3.3-2.8c.2-.1.2-.2.1-.3l-.6-.5-.4-.3h-.3l-4,3.5a.4.4,0,0,0-.1.3c-.1,1.9-.1,3.9-.2,5.9,0,.1,0,.1-.1.2a2.8,2.8,0,0,1-1.4,1.8A3,3,0,0,1,12.2,33.6Z"/><path class="cls-3" d="M31.7,19.6,27,15.7c-.2-.2-.2-.2-.4,0l-1.3,1.1c-.1.1-.1.1,0,.2l1,.9h0a.2.2,0,0,0,.3,0h.3l2,1.7c.1.1.1.1,0,.2l-2,1.8h-.3l-1.7-1.5c-.2-.1-.2-.1-.4,0l-1,.9c-.1.1-.1.2,0,.2L26.7,24Z"/><path class="cls-3" d="M26.1,15.3h0a.2.2,0,0,0,0-.3L18.8,8.8h-.1V9c0,1.6-.1,3.2-.1,4.9a.4.4,0,0,0,.1.3l2.7,2.2q.2.3.3,0l1-.8c.2-.2.2-.2,0-.3l-2-1.7a.8.8,0,0,1-.2-.6c0-.1-.1-.2,0-.3s.2.1.3.2a27.5,27.5,0,0,1,2.6,2.2q.3.2,0,.3l-1.7,1.5c-.1.1-.2.1,0,.2l1,.9h0a.2.2,0,0,0,.3,0Z"/><path class="cls-3" d="M18.4,26c0,1.5-.1,3.1-.1,4.7h0l.2-.2,6.9-6c.2-.2.2-.2.1-.4l-1.1-.8c-.1-.1-.2-.2-.3,0l-.8.6h0a.2.2,0,0,0,0,.3h.1a.2.2,0,0,1,0,.3c-1.1,1-2.2,2-3.4,2.9V26.3h0a.2.2,0,0,1,.2-.2L24,22.7c.2-.1.2-.2.1-.3l-.8-.6c0-.1-.1-.1-.2,0l-4.5,3.9Z"/><path class="cls-3" d="M20.7,20.2c-.2-.1-.2-.1,0-.3s.2-.1,0-.3l-.3-.3L20,19c-.1-.1-.2-.1-.2,0l-1.3,1h0a.2.2,0,0,0,0,.3l1.4,1.1c.2.2.4.3.5.5l.8.6c.1.1.2.2.3,0l.8-.6h0a.2.2,0,0,0,0-.3A10.7,10.7,0,0,1,20.7,20.2Z"/><path class="cls-3" d="M25.5,19.7h0a.2.2,0,0,1,0,.3c-.1,0-.1.1,0,.2l.7.6h.3l1.1-.9h0a.2.2,0,0,0,0-.3l-1.4-1.1-1.4-1.2h0a.2.2,0,0,0-.3,0l-.8.7c-.1.1-.1.1,0,.2Z"/><path class="cls-3" d="M24.3,19.7h0a.2.2,0,0,0,0-.3l-.7-.6h0a.2.2,0,0,0-.3,0l-1.5,1.3c-.1.1-.1.1,0,.2l.8.7h.2l.8-.7Z"/><path class="cls-4" d="M18.9,13.3a.4.4,0,0,1-.1-.3V10.4c0-1.1,0-2.3.1-3.4V6.7h0c-.1,0-.1,0-.1-.1h-.1L15.8,4h-.4a3.3,3.3,0,0,0-2.3.9l1.3.2c1.4.5,2.2,2.1,2.5,2.4H17c.1.1.1.1.1.2a19.3,19.3,0,0,0-.1,2.4v3.6a.4.4,0,0,0,.1.3l4.6,3.9.5-.4h0l-.5.4a2.3,2.3,0,0,1,.7.7c.2.1.2.1.4-.1l1-.8h0a.2.2,0,0,0,0-.3Z"/><path class="cls-4" d="M13.3,32.5a1.4,1.4,0,0,0,.9,1.1H15l.9-.6.6-.5.8-.7.9-.8v-.2c.1-2,.1-4,.2-6a.5.5,0,0,1,.2-.4l3.3-2.9c.1-.1.2-.2,0-.3l-.5-.4c-.2-.1-.3-.3-.4-.4h0a.2.2,0,0,0-.3,0l-4,3.5c-.2.1-.2.2-.2.3,0,2-.1,4-.1,6-.1.1-.1.1-.1.2a2.4,2.4,0,0,1-1.4,1.7A4.1,4.1,0,0,1,13.3,32.5Z"/><path class="cls-4" d="M32.7,18.5l-4.6-3.9c-.3-.3-.2-.3-.5,0l-1.2,1h0a.2.2,0,0,0,0,.3l1,.8h0a.2.2,0,0,0,.3,0h.2L30,18.4h0a.2.2,0,0,1,0,.3l-2,1.7c-.2.1-.2.1-.3,0L25.9,19c-.1-.1-.2-.2-.3,0l-1,.9c-.1,0-.1.1,0,.2l3.2,2.7Z"/><path class="cls-4" d="M27.2,14.1c0-.1.1-.1,0-.2L19.9,7.7h-.1v.2c0,1.6,0,4.6-.1,4.8s0,.3.1.4a27.5,27.5,0,0,1,2.6,2.2h.4l1-.9h0a.2.2,0,0,0,0-.3l-2-1.7a.7.7,0,0,1-.3-.6c.1-.1,0-.2.1-.3l.3.2,2.6,2.2h0a.2.2,0,0,1,0,.3l-1.8,1.5h0a.2.2,0,0,0,0,.3l1,.8H24Z"/><path class="cls-4" d="M19.6,24.8c0,1.6-.1,3.2-.1,4.7h.2l6.9-6.1q.3-.1,0-.3l-1-.9h-.3l-.8.7c-.1.1-.2.1,0,.2h.1c.1.1.1.2-.1.3l-3.3,2.9H21a5.7,5.7,0,0,0,.1-1.3c0-.1.1-.1.1-.2l3.9-3.3c.2-.2.2-.2,0-.3l-.7-.6h-.2l-4.5,3.8Z"/><path class="cls-4" d="M21.7,19.1h0a.2.2,0,0,1,0-.3c.3-.2.3-.2.1-.4l-.3-.2-.4-.4h0a.2.2,0,0,0-.3,0l-1.2,1.1c-.1.1-.1.1,0,.2l1.3,1.2.6.4.8.7h0a.2.2,0,0,0,.3,0l.7-.7c.2-.1.2-.1.1-.2Z"/><path class="cls-4" d="M26.5,18.5a.2.2,0,0,1,0,.3c-.1.1-.1.1,0,.2a2.7,2.7,0,0,1,.8.7c.1.1.2,0,.3,0a4.7,4.7,0,0,1,1-1c.1-.1.1-.1,0-.2l-1.4-1.2-1.4-1.2c-.1-.1-.1-.1-.2,0l-.8.7h0a.2.2,0,0,0,0,.3Z"/><path class="cls-4" d="M25.4,18.5c.1-.1.1-.1,0-.2l-.8-.7c-.1,0-.1-.1-.2,0l-1.5,1.3c-.1.1-.1.1-.1.2l.9.7h.2l.7-.7Z"/></svg>