<svg xmlns="http://www.w3.org/2000/svg" xmlns:xlink="http://www.w3.org/1999/xlink" viewBox="0 0 2125 660"><defs><style>.cls-1{fill:none;}.cls-2{isolation:isolate;}.cls-3{clip-path:url(#clip-path);}.cls-4{fill:url(#Áåçûìÿííûé_ãðàäèåíò_677);}.cls-5{fill:url(#Áåçûìÿííûé_ãðàäèåíò_659);}.cls-6{fill:url(#Áåçûìÿííûé_ãðàäèåíò_660);}.cls-7{fill:url(#Áåçûìÿííûé_ãðàäèåíò_659-2);}.cls-8{fill:url(#Áåçûìÿííûé_ãðàäèåíò_660-2);}.cls-9{fill:url(#Áåçûìÿííûé_ãðàäèåíò_659-3);}.cls-10{fill:url(#Áåçûìÿííûé_ãðàäèåíò_659-4);}.cls-11{fill:url(#Áåçûìÿííûé_ãðàäèåíò_659-5);}.cls-12{fill:url(#Áåçûìÿííûé_ãðàäèåíò_659-6);}.cls-13{fill:url(#Áåçûìÿííûé_ãðàäèåíò_658);}.cls-14{fill:url(#Áåçûìÿííûé_ãðàäèåíò_558);}.cls-15{fill:url(#Áåçûìÿííûé_ãðàäèåíò_690);}.cls-16,.cls-50{fill:#ffff57;}.cls-16,.cls-17,.cls-18,.cls-20,.cls-21,.cls-22,.cls-23,.cls-24,.cls-25,.cls-27,.cls-28,.cls-29,.cls-30,.cls-31,.cls-32,.cls-33,.cls-34,.cls-35,.cls-36,.cls-37,.cls-38,.cls-39,.cls-44,.cls-46,.cls-49,.cls-50,.cls-51,.cls-53,.cls-54,.cls-55,.cls-56,.cls-58,.cls-59,.cls-60,.cls-61,.cls-62,.cls-63,.cls-64,.cls-65,.cls-66,.cls-67,.cls-68,.cls-69,.cls-70,.cls-71,.cls-72,.cls-73,.cls-74,.cls-75,.cls-76,.cls-77,.cls-78,.cls-80,.cls-81,.cls-82,.cls-84,.cls-85,.cls-86,.cls-87,.cls-88{fill-rule:evenodd;}.cls-16,.cls-28,.cls-38,.cls-49,.cls-57,.cls-70,.cls-78,.cls-81,.cls-84,.cls-85,.cls-86,.cls-88{opacity:0.5;}.cls-16,.cls-25,.cls-38,.cls-49,.cls-50{mix-blend-mode:soft-light;}.cls-17{fill:url(#Áåçûìÿííûé_ãðàäèåíò_349);}.cls-18,.cls-26,.cls-58,.cls-59,.cls-60,.cls-61,.cls-62,.cls-63,.cls-64,.cls-65,.cls-66,.cls-67,.cls-68,.cls-69,.cls-70,.cls-71,.cls-72,.cls-73,.cls-74,.cls-75,.cls-76,.cls-77,.cls-78,.cls-79,.cls-80,.cls-81,.cls-82,.cls-83,.cls-84,.cls-85,.cls-86{mix-blend-mode:screen;}.cls-18{fill:url(#Áåçûìÿííûé_ãðàäèåíò_681);}.cls-19{fill:url(#Áåçûìÿííûé_ãðàäèåíò_243);}.cls-20{fill:url(#Áåçûìÿííûé_ãðàäèåíò_287);}.cls-21,.cls-24,.cls-28,.cls-31,.cls-42{fill:#ccbdab;}.cls-21{opacity:0.6;}.cls-21,.cls-24,.cls-28,.cls-31,.cls-42,.cls-44,.cls-57,.cls-88,.cls-89{mix-blend-mode:multiply;}.cls-22{fill:url(#Áåçûìÿííûé_ãðàäèåíò_498);}.cls-23{fill:url(#Áåçûìÿííûé_ãðàäèåíò_425);}.cls-24,.cls-42{opacity:0.8;}.cls-25,.cls-38{fill:#a48e6b;}.cls-26{fill:url(#Áåçûìÿííûé_ãðàäèåíò_535);}.cls-27{fill:url(#Áåçûìÿííûé_ãðàäèåíò_296);}.cls-29{fill:url(#Áåçûìÿííûé_ãðàäèåíò_297);}.cls-30{fill:url(#Áåçûìÿííûé_ãðàäèåíò_454);}.cls-32{fill:url(#Áåçûìÿííûé_ãðàäèåíò_239);}.cls-33{fill:url(#Áåçûìÿííûé_ãðàäèåíò_422);}.cls-34{fill:url(#Áåçûìÿííûé_ãðàäèåíò_498-2);}.cls-35{fill:url(#Áåçûìÿííûé_ãðàäèåíò_425-2);}.cls-36{fill:url(#Áåçûìÿííûé_ãðàäèåíò_414);}.cls-37{fill:#63602c;}.cls-39{fill:url(#Áåçûìÿííûé_ãðàäèåíò_449);}.cls-40{fill:url(#Áåçûìÿííûé_ãðàäèåíò_332);}.cls-41{fill:url(#Áåçûìÿííûé_ãðàäèåíò_316);}.cls-43{fill:url(#Áåçûìÿííûé_ãðàäèåíò_305);}.cls-44{fill:#ccdbc2;}.cls-45{opacity:0.57;}.cls-45,.cls-52{mix-blend-mode:color-dodge;}.cls-46{fill:#8c8b02;}.cls-47{fill:url(#Áåçûìÿííûé_ãðàäèåíò_72);}.cls-48{fill:url(#Áåçûìÿííûé_ãðàäèåíò_267);}.cls-49{fill:#ffbd8d;}.cls-51{fill:url(#Áåçûìÿííûé_ãðàäèåíò_250);}.cls-52,.cls-68{opacity:0.2;}.cls-53{fill:url(#Áåçûìÿííûé_ãðàäèåíò_431);}.cls-54{fill:url(#Áåçûìÿííûé_ãðàäèåíò_382);}.cls-55{fill:url(#Áåçûìÿííûé_ãðàäèåíò_447);}.cls-56{fill:url(#Áåçûìÿííûé_ãðàäèåíò_382-2);}.cls-57{fill:url(#radial-gradient);}.cls-58{fill:url(#Áåçûìÿííûé_ãðàäèåíò_562);}.cls-59{fill:url(#Áåçûìÿííûé_ãðàäèåíò_562-2);}.cls-60{fill:url(#Áåçûìÿííûé_ãðàäèåíò_562-3);}.cls-61{fill:url(#Áåçûìÿííûé_ãðàäèåíò_562-4);}.cls-62{fill:url(#Áåçûìÿííûé_ãðàäèåíò_566);}.cls-63{fill:url(#Áåçûìÿííûé_ãðàäèåíò_566-2);}.cls-64{fill:url(#Áåçûìÿííûé_ãðàäèåíò_566-3);}.cls-65{fill:url(#Áåçûìÿííûé_ãðàäèåíò_566-4);}.cls-66{fill:url(#Áåçûìÿííûé_ãðàäèåíò_566-5);}.cls-67{fill:url(#Áåçûìÿííûé_ãðàäèåíò_566-6);}.cls-68{fill:url(#Áåçûìÿííûé_ãðàäèåíò_571);}.cls-69,.cls-77,.cls-83{opacity:0.41;}.cls-69{fill:url(#Áåçûìÿííûé_ãðàäèåíò_571-2);}.cls-70{fill:url(#Áåçûìÿííûé_ãðàäèåíò_571-3);}.cls-71{fill:url(#Áåçûìÿííûé_ãðàäèåíò_562-5);}.cls-72{fill:url(#Áåçûìÿííûé_ãðàäèåíò_562-6);}.cls-73{fill:url(#Áåçûìÿííûé_ãðàäèåíò_562-7);}.cls-74{fill:url(#Áåçûìÿííûé_ãðàäèåíò_562-8);}.cls-75{fill:url(#Áåçûìÿííûé_ãðàäèåíò_562-9);}.cls-76{fill:url(#Áåçûìÿííûé_ãðàäèåíò_566-7);}.cls-77{fill:url(#Áåçûìÿííûé_ãðàäèåíò_571-4);}.cls-78{fill:url(#Áåçûìÿííûé_ãðàäèåíò_571-5);}.cls-79{fill:url(#Áåçûìÿííûé_ãðàäèåíò_696);}.cls-80{fill:url(#Áåçûìÿííûé_ãðàäèåíò_562-10);}.cls-81{fill:url(#Áåçûìÿííûé_ãðàäèåíò_696-2);}.cls-82{fill:url(#Áåçûìÿííûé_ãðàäèåíò_566-8);}.cls-83{fill:url(#Áåçûìÿííûé_ãðàäèåíò_571-6);}.cls-84{fill:url(#Áåçûìÿííûé_ãðàäèåíò_571-7);}.cls-85{fill:url(#Áåçûìÿííûé_ãðàäèåíò_571-8);}.cls-86{fill:url(#Áåçûìÿííûé_ãðàäèåíò_571-9);}.cls-87{fill:url(#Áåçûìÿííûé_ãðàäèåíò_464);}.cls-88{fill:#ab9aab;}.cls-89{stroke:#353434;stroke-miterlimit:10;opacity:0.71;fill:url(#radial-gradient-2);}</style><clipPath id="clip-path"><rect class="cls-1" x="-18.9" y="-313.1" width="2173.6" height="1086.79"/></clipPath><linearGradient id="Áåçûìÿííûé_ãðàäèåíò_677" x1="1067.87" y1="480.47" x2="1067.87" y2="-313.12" gradientUnits="userSpaceOnUse"><stop offset="0.01" stop-color="#ffe3dd"/><stop offset="0.13" stop-color="#fae2d6"/><stop offset="0.3" stop-color="#eadfc4"/><stop offset="0.51" stop-color="#d1daa5"/><stop offset="0.74" stop-color="#aed37a"/><stop offset="0.98" stop-color="#82ca44"/><stop offset="0.99" stop-color="#81ca43"/></linearGradient><linearGradient id="Áåçûìÿííûé_ãðàäèåíò_659" x1="1295.35" y1="332.9" x2="1295.35" y2="-319.06" gradientUnits="userSpaceOnUse"><stop offset="0.01" stop-color="#c2cc69"/><stop offset="0.17" stop-color="#bbca66"/><stop offset="0.39" stop-color="#a9c35d"/><stop offset="0.66" stop-color="#8ab94e"/><stop offset="0.96" stop-color="#60ab3a"/><stop offset="0.99" stop-color="#5ba938"/></linearGradient><linearGradient id="Áåçûìÿííûé_ãðàäèåíò_660" x1="1190.02" y1="321.73" x2="1190.02" y2="-319.06" gradientUnits="userSpaceOnUse"><stop offset="0.01" stop-color="#dccda8"/><stop offset="0.13" stop-color="#d6cca1"/><stop offset="0.31" stop-color="#c7ca8f"/><stop offset="0.53" stop-color="#aec770"/><stop offset="0.76" stop-color="#8bc346"/><stop offset="0.99" stop-color="#63be16"/></linearGradient><linearGradient id="Áåçûìÿííûé_ãðàäèåíò_659-2" x1="1860.89" y1="216.74" x2="1860.89" y2="-313.24" xlink:href="#Áåçûìÿííûé_ãðàäèåíò_659"/><linearGradient id="Áåçûìÿííûé_ãðàäèåíò_660-2" x1="1692.58" y1="216.74" x2="1692.58" y2="-319.31" xlink:href="#Áåçûìÿííûé_ãðàäèåíò_660"/><linearGradient id="Áåçûìÿííûé_ãðàäèåíò_659-3" x1="809.43" y1="235.78" x2="809.43" y2="-313.98" xlink:href="#Áåçûìÿííûé_ãðàäèåíò_659"/><linearGradient id="Áåçûìÿííûé_ãðàäèåíò_659-4" x1="602.8" y1="395.12" x2="602.8" y2="-313.24" xlink:href="#Áåçûìÿííûé_ãðàäèåíò_659"/><linearGradient id="Áåçûìÿííûé_ãðàäèåíò_659-5" x1="1400.74" y1="323.77" x2="1400.74" y2="-313.24" xlink:href="#Áåçûìÿííûé_ãðàäèåíò_659"/><linearGradient id="Áåçûìÿííûé_ãðàäèåíò_659-6" x1="963.09" y1="323.77" x2="963.09" y2="-313.24" xlink:href="#Áåçûìÿííûé_ãðàäèåíò_659"/><linearGradient id="Áåçûìÿííûé_ãðàäèåíò_658" x1="1068.23" y1="22.49" x2="1068.23" y2="-313.12" gradientUnits="userSpaceOnUse"><stop offset="0.01" stop-color="#89aa54"/><stop offset="0.28" stop-color="#82aa50"/><stop offset="0.67" stop-color="#70a945"/><stop offset="0.99" stop-color="#5ba938"/></linearGradient><linearGradient id="Áåçûìÿííûé_ãðàäèåíò_558" x1="1067.87" y1="773.67" x2="1067.87" y2="430.62" gradientUnits="userSpaceOnUse"><stop offset="0.01" stop-color="#337360"/><stop offset="0.4" stop-color="#435f21"/><stop offset="0.81" stop-color="#0e312f"/></linearGradient><linearGradient id="Áåçûìÿííûé_ãðàäèåíò_690" x1="1468.1" y1="309.12" x2="1468.1" y2="-2.42" gradientUnits="userSpaceOnUse"><stop offset="0" stop-color="#baae0e"/><stop offset="1" stop-color="#95bd5e"/></linearGradient><linearGradient id="Áåçûìÿííûé_ãðàäèåíò_349" x1="1133.34" y1="315.65" x2="1133.34" y2="-367.88" gradientUnits="userSpaceOnUse"><stop offset="0" stop-color="#90665a"/><stop offset="0.47" stop-color="#855e5e"/><stop offset="0.99" stop-color="#745164"/></linearGradient><radialGradient id="Áåçûìÿííûé_ãðàäèåíò_681" cx="1378.27" cy="246.03" r="178.9" gradientTransform="translate(-3324.9 -456.6) scale(3.26 1.65)" gradientUnits="userSpaceOnUse"><stop offset="0.01" stop-color="#c99a47"/><stop offset="0.22" stop-color="#9e7938"/><stop offset="1"/></radialGradient><linearGradient id="Áåçûìÿííûé_ãðàäèåíò_243" x1="1067.03" y1="375.16" x2="1067.03" y2="-149.45" gradientUnits="userSpaceOnUse"><stop offset="0.01" stop-color="#959700"/><stop offset="0.99" stop-color="#c2c900"/></linearGradient><linearGradient id="Áåçûìÿííûé_ãðàäèåíò_287" x1="-18.92" y1="294.63" x2="1460.93" y2="294.63" gradientUnits="userSpaceOnUse"><stop offset="0.01" stop-color="#c06a33"/><stop offset="0.99" stop-color="#aa5234"/></linearGradient><linearGradient id="Áåçûìÿííûé_ãðàäèåíò_498" x1="1831.15" y1="352.3" x2="1831.15" y2="-306.36" gradientTransform="matrix(-1, 0, 0, 1, 2864.18, 0)" gradientUnits="userSpaceOnUse"><stop offset="0.01" stop-color="#8d7a22"/><stop offset="0.06" stop-color="#8c7829"/><stop offset="0.13" stop-color="#88713b"/><stop offset="0.2" stop-color="#846853"/><stop offset="0.39" stop-color="#7a5d4d"/><stop offset="0.72" stop-color="#61403e"/><stop offset="0.99" stop-color="#47232e"/></linearGradient><linearGradient id="Áåçûìÿííûé_ãðàäèåíò_425" x1="1831.15" y1="352.3" x2="1831.15" y2="301.87" gradientTransform="matrix(-1, 0, 0, 1, 2864.18, 0)" gradientUnits="userSpaceOnUse"><stop offset="0.01" stop-color="#939d00"/><stop offset="0.99" stop-color="#547f42"/></linearGradient><radialGradient id="Áåçûìÿííûé_ãðàäèåíò_535" cx="1385.7" cy="331.68" r="234.4" gradientTransform="translate(-3324.9 -34.9) scale(3.26 1.05)" gradientUnits="userSpaceOnUse"><stop offset="0.01" stop-color="#aa5100"/><stop offset="0.08" stop-color="#9e4b00"/><stop offset="1"/></radialGradient><linearGradient id="Áåçûìÿííûé_ãðàäèåíò_296" x1="922.79" y1="349.99" x2="922.79" y2="-501.04" gradientUnits="userSpaceOnUse"><stop offset="0.01" stop-color="#8d7a22"/><stop offset="0.11" stop-color="#93731f"/><stop offset="0.2" stop-color="#9e681a"/><stop offset="0.41" stop-color="#995d1c"/><stop offset="0.76" stop-color="#8b4020"/><stop offset="0.99" stop-color="#812a24"/></linearGradient><linearGradient id="Áåçûìÿííûé_ãðàäèåíò_297" x1="2136.96" y1="264.93" x2="2136.96" y2="-586.14" gradientTransform="matrix(-0.98, -0.2, -0.2, 0.98, 2440.42, 247.92)" gradientUnits="userSpaceOnUse"><stop offset="0.01" stop-color="#8d7a22"/><stop offset="0.07" stop-color="#8d7b29"/><stop offset="0.15" stop-color="#8e7d3b"/><stop offset="0.2" stop-color="#8f7f4a"/><stop offset="0.49" stop-color="#887450"/><stop offset="0.99" stop-color="#76575f"/><stop offset="0.99" stop-color="#76575f"/></linearGradient><linearGradient id="Áåçûìÿííûé_ãðàäèåíò_454" x1="137.65" y1="386.07" x2="137.65" y2="-337.22" gradientUnits="userSpaceOnUse"><stop offset="0.01" stop-color="#828236"/><stop offset="0.09" stop-color="#817b38"/><stop offset="0.22" stop-color="#7d683d"/><stop offset="0.36" stop-color="#774c44"/><stop offset="0.64" stop-color="#704142"/><stop offset="0.99" stop-color="#632d3d"/></linearGradient><linearGradient id="Áåçûìÿííûé_ãðàäèåíò_239" x1="1538.64" y1="327.59" x2="1538.64" y2="-321.77" gradientUnits="userSpaceOnUse"><stop offset="0.01" stop-color="#706636"/><stop offset="0.09" stop-color="#725f3a"/><stop offset="0.2" stop-color="#774d44"/><stop offset="0.2" stop-color="#774c44"/><stop offset="0.55" stop-color="#704142"/><stop offset="0.99" stop-color="#632d3d"/></linearGradient><linearGradient id="Áåçûìÿííûé_ãðàäèåíò_422" x1="1569.16" y1="327.59" x2="1569.16" y2="256.56" gradientUnits="userSpaceOnUse"><stop offset="0.01" stop-color="#939d00"/><stop offset="0.99" stop-color="#517042"/></linearGradient><linearGradient id="Áåçûìÿííûé_ãðàäèåíò_498-2" x1="1463.67" y1="336.9" x2="1463.67" y2="-321.77" gradientTransform="matrix(1, 0, 0, 1, 0, 0)" xlink:href="#Áåçûìÿííûé_ãðàäèåíò_498"/><linearGradient id="Áåçûìÿííûé_ãðàäèåíò_425-2" x1="1463.67" y1="336.9" x2="1463.67" y2="286.46" gradientTransform="matrix(1, 0, 0, 1, 0, 0)" xlink:href="#Áåçûìÿííûé_ãðàäèåíò_425"/><linearGradient id="Áåçûìÿííûé_ãðàäèåíò_414" x1="409.63" y1="372.14" x2="409.63" y2="-365.62" gradientUnits="userSpaceOnUse"><stop offset="0.01" stop-color="#59612e"/><stop offset="0.15" stop-color="#595a34"/><stop offset="0.35" stop-color="#5b4844"/><stop offset="0.4" stop-color="#5b414a"/><stop offset="0.67" stop-color="#563b40"/><stop offset="0.99" stop-color="#4e312e"/></linearGradient><linearGradient id="Áåçûìÿííûé_ãðàäèåíò_449" x1="196.72" y1="364.81" x2="196.72" y2="-337.22" gradientUnits="userSpaceOnUse"><stop offset="0.01" stop-color="#706636"/><stop offset="0.22" stop-color="#725f3a"/><stop offset="0.51" stop-color="#774d44"/><stop offset="0.52" stop-color="#774c44"/><stop offset="0.73" stop-color="#704142"/><stop offset="0.99" stop-color="#632d3d"/></linearGradient><linearGradient id="Áåçûìÿííûé_ãðàäèåíò_332" x1="1060.09" y1="857.71" x2="1060.09" y2="342.69" gradientUnits="userSpaceOnUse"><stop offset="0.01" stop-color="#7e911f"/><stop offset="0.19" stop-color="#598c4a"/><stop offset="0.99" stop-color="#bace1a"/></linearGradient><linearGradient id="Áåçûìÿííûé_ãðàäèåíò_316" x1="1661.91" y1="418.78" x2="1661.91" y2="387.7" gradientTransform="matrix(1.44, 0.09, -0.12, 1.82, -727, -270.75)" gradientUnits="userSpaceOnUse"><stop offset="0.01" stop-color="#a97736"/><stop offset="0.99" stop-color="#af5b34"/></linearGradient><linearGradient id="Áåçûìÿííûé_ãðàäèåíò_305" x1="991.33" y1="270.66" x2="991.33" y2="124.54" gradientTransform="translate(81.2 257.3) rotate(10.8)" gradientUnits="userSpaceOnUse"><stop offset="0.01" stop-color="#a97736"/><stop offset="0.99" stop-color="#9d4034"/></linearGradient><linearGradient id="Áåçûìÿííûé_ãðàäèåíò_72" x1="-18.92" y1="384.33" x2="2154.66" y2="384.33" gradientUnits="userSpaceOnUse"><stop offset="0.01" stop-color="#844034"/><stop offset="0.99" stop-color="#a46533"/></linearGradient><linearGradient id="Áåçûìÿííûé_ãðàäèåíò_267" x1="-18.92" y1="337.41" x2="2154.66" y2="337.41" gradientUnits="userSpaceOnUse"><stop offset="0.01" stop-color="#ca9f00"/><stop offset="0.99" stop-color="#b1e300"/></linearGradient><linearGradient id="Áåçûìÿííûé_ãðàäèåíò_250" x1="1067.87" y1="465" x2="1067.87" y2="430.62" gradientUnits="userSpaceOnUse"><stop offset="0" stop-color="#838f00"/><stop offset="1" stop-color="#959c00"/></linearGradient><linearGradient id="Áåçûìÿííûé_ãðàäèåíò_431" x1="1990.25" y1="449.8" x2="1990.25" y2="-313.12" gradientUnits="userSpaceOnUse"><stop offset="0.01" stop-color="#5b5f29"/><stop offset="0.06" stop-color="#5b5829"/><stop offset="0.15" stop-color="#5c4629"/><stop offset="0.18" stop-color="#5c3c29"/><stop offset="0.95" stop-color="#65322e"/><stop offset="0.99" stop-color="#66312e"/></linearGradient><linearGradient id="Áåçûìÿííûé_ãðàäèåíò_382" x1="1948.25" y1="447.44" x2="1948.25" y2="328.33" gradientUnits="userSpaceOnUse"><stop offset="0.01" stop-color="#727c00"/><stop offset="0.99" stop-color="#425242"/></linearGradient><linearGradient id="Áåçûìÿííûé_ãðàäèåíò_447" x1="2087.57" y1="438.92" x2="2087.57" y2="-271.92" gradientUnits="userSpaceOnUse"><stop offset="0.01" stop-color="#5b5f29"/><stop offset="0.06" stop-color="#5b5829"/><stop offset="0.15" stop-color="#5c4629"/><stop offset="0.18" stop-color="#5c3c29"/><stop offset="0.44" stop-color="#583d33"/><stop offset="0.88" stop-color="#4d3f4f"/><stop offset="0.99" stop-color="#4a4057"/></linearGradient><linearGradient id="Áåçûìÿííûé_ãðàäèåíò_382-2" x1="2078.74" y1="438.92" x2="2078.74" y2="343.45" xlink:href="#Áåçûìÿííûé_ãðàäèåíò_382"/><radialGradient id="radial-gradient" cx="1141.75" cy="200.37" r="1232.21" gradientUnits="userSpaceOnUse"><stop offset="0.16" stop-color="#fff"/><stop offset="1" stop-color="#542911"/></radialGradient><radialGradient id="Áåçûìÿííûé_ãðàäèåíò_562" cx="974.98" cy="590.88" r="4.59" gradientTransform="translate(444.4 -524) rotate(24.4)" gradientUnits="userSpaceOnUse"><stop offset="0.02" stop-color="#ff9d77"/><stop offset="0.33" stop-color="#fd9c76"/><stop offset="0.46" stop-color="#f69773"/><stop offset="0.56" stop-color="#e9906d"/><stop offset="0.65" stop-color="#d78464"/><stop offset="0.72" stop-color="#c0765a"/><stop offset="0.79" stop-color="#a3644c"/><stop offset="0.85" stop-color="#814f3c"/><stop offset="0.9" stop-color="#59372a"/><stop offset="0.95" stop-color="#2e1c15"/><stop offset="1"/></radialGradient><radialGradient id="Áåçûìÿííûé_ãðàäèåíò_562-2" cx="850.36" cy="699.32" r="4.59" gradientTransform="translate(988.6 -790) rotate(46.2)" xlink:href="#Áåçûìÿííûé_ãðàäèåíò_562"/><radialGradient id="Áåçûìÿííûé_ãðàäèåíò_562-3" cx="862.53" cy="870.39" r="4.59" gradientTransform="translate(988.6 -790) rotate(46.2)" xlink:href="#Áåçûìÿííûé_ãðàäèåíò_562"/><radialGradient id="Áåçûìÿííûé_ãðàäèåíò_562-4" cx="840.03" cy="756.61" r="1.65" gradientTransform="translate(988.6 -790) rotate(46.2)" xlink:href="#Áåçûìÿííûé_ãðàäèåíò_562"/><radialGradient id="Áåçûìÿííûé_ãðàäèåíò_566" cx="842.15" cy="640.07" r="2.12" gradientTransform="translate(988.6 -790) rotate(46.2)" gradientUnits="userSpaceOnUse"><stop offset="0.02" stop-color="#ff7500"/><stop offset="0.33" stop-color="#fd7400"/><stop offset="0.46" stop-color="#f67100"/><stop offset="0.56" stop-color="#e96b00"/><stop offset="0.65" stop-color="#d76300"/><stop offset="0.72" stop-color="#c05800"/><stop offset="0.79" stop-color="#a34b00"/><stop offset="0.85" stop-color="#813b00"/><stop offset="0.9" stop-color="#592900"/><stop offset="0.95" stop-color="#2e1500"/><stop offset="1"/></radialGradient><radialGradient id="Áåçûìÿííûé_ãðàäèåíò_566-2" cx="840.04" cy="706.21" r="2.12" xlink:href="#Áåçûìÿííûé_ãðàäèåíò_566"/><radialGradient id="Áåçûìÿííûé_ãðàäèåíò_566-3" cx="838.35" cy="866.95" r="2.12" xlink:href="#Áåçûìÿííûé_ãðàäèåíò_566"/><radialGradient id="Áåçûìÿííûé_ãðàäèåíò_566-4" cx="968.27" cy="618.21" r="2.12" gradientTransform="translate(444.4 -524) rotate(24.4)" xlink:href="#Áåçûìÿííûé_ãðàäèåíò_566"/><radialGradient id="Áåçûìÿííûé_ãðàäèåíò_566-5" cx="875.49" cy="576.32" r="2.12" xlink:href="#Áåçûìÿííûé_ãðàäèåíò_566"/><radialGradient id="Áåçûìÿííûé_ãðàäèåíò_566-6" cx="949.29" cy="625.17" r="2.12" gradientTransform="translate(444.4 -524) rotate(24.4)" xlink:href="#Áåçûìÿííûé_ãðàäèåíò_566"/><radialGradient id="Áåçûìÿííûé_ãðàäèåíò_571" cx="835.22" cy="624.93" r="15.14" gradientTransform="translate(988.6 -790) rotate(46.2)" gradientUnits="userSpaceOnUse"><stop offset="0.03" stop-color="#ff5400"/><stop offset="0.15" stop-color="#fb5300"/><stop offset="0.27" stop-color="#ef4f00"/><stop offset="0.4" stop-color="#db4800"/><stop offset="0.52" stop-color="#bf3f00"/><stop offset="0.64" stop-color="#9b3300"/><stop offset="0.76" stop-color="#6f2500"/><stop offset="0.88" stop-color="#3b1400"/><stop offset="1"/></radialGradient><radialGradient id="Áåçûìÿííûé_ãðàäèåíò_571-2" cx="803.63" cy="766.34" r="9.73" xlink:href="#Áåçûìÿííûé_ãðàäèåíò_571"/><radialGradient id="Áåçûìÿííûé_ãðàäèåíò_571-3" cx="815.57" cy="724.63" r="5.11" xlink:href="#Áåçûìÿííûé_ãðàäèåíò_571"/><radialGradient id="Áåçûìÿííûé_ãðàäèåíò_562-5" cx="991.89" cy="732.05" r="4.59" xlink:href="#Áåçûìÿííûé_ãðàäèåíò_562"/><radialGradient id="Áåçûìÿííûé_ãðàäèåíò_562-6" cx="1060.88" cy="593.92" r="4.59" xlink:href="#Áåçûìÿííûé_ãðàäèåíò_562"/><radialGradient id="Áåçûìÿííûé_ãðàäèåíò_562-7" cx="812.95" cy="802.62" r="4.59" xlink:href="#Áåçûìÿííûé_ãðàäèåíò_562"/><radialGradient id="Áåçûìÿííûé_ãðàäèåíò_562-8" cx="805.9" cy="843.06" r="7.37" xlink:href="#Áåçûìÿííûé_ãðàäèåíò_562"/><radialGradient id="Áåçûìÿííûé_ãðàäèåíò_562-9" cx="981.57" cy="789.33" r="1.65" xlink:href="#Áåçûìÿííûé_ãðàäèåíò_562"/><radialGradient id="Áåçûìÿííûé_ãðàäèåíò_566-7" cx="981.57" cy="738.93" r="2.12" gradientTransform="translate(444.4 -524) rotate(24.4)" xlink:href="#Áåçûìÿííûé_ãðàäèåíò_566"/><radialGradient id="Áåçûìÿííûé_ãðàäèåíò_571-4" cx="945.16" cy="799.06" r="9.73" gradientTransform="translate(444.4 -524) rotate(24.4)" xlink:href="#Áåçûìÿííûé_ãðàäèåíò_571"/><radialGradient id="Áåçûìÿííûé_ãðàäèåíò_571-5" cx="957.1" cy="757.35" r="5.11" gradientTransform="translate(444.4 -524) rotate(24.4)" xlink:href="#Áåçûìÿííûé_ãðàäèåíò_571"/><radialGradient id="Áåçûìÿííûé_ãðàäèåíò_696" cx="1610.94" cy="242.61" r="24.6" gradientTransform="matrix(-0.34, 0.94, -0.94, -0.34, 2593.59, -1068.01)" gradientUnits="userSpaceOnUse"><stop offset="0.02" stop-color="#af5500"/><stop offset="0.36" stop-color="#ad5400"/><stop offset="0.51" stop-color="#a65000"/><stop offset="0.62" stop-color="#994a00"/><stop offset="0.71" stop-color="#874200"/><stop offset="0.79" stop-color="#703600"/><stop offset="0.86" stop-color="#532800"/><stop offset="0.93" stop-color="#311800"/><stop offset="0.99" stop-color="#0b0500"/><stop offset="1"/></radialGradient><radialGradient id="Áåçûìÿííûé_ãðàäèåíò_562-10" cx="1537.11" cy="481.47" r="8.87" xlink:href="#Áåçûìÿííûé_ãðàäèåíò_562"/><radialGradient id="Áåçûìÿííûé_ãðàäèåíò_696-2" cx="1590.79" cy="401.31" r="44.76" gradientTransform="translate(444.4 -524) rotate(24.4)" xlink:href="#Áåçûìÿííûé_ãðàäèåíò_696"/><radialGradient id="Áåçûìÿííûé_ãðàäèåíò_566-8" cx="1537.12" cy="211.24" r="11.35" gradientTransform="translate(444.4 -524) rotate(24.4)" xlink:href="#Áåçûìÿííûé_ãðàäèåíò_566"/><radialGradient id="Áåçûìÿííûé_ãðàäèåíò_571-6" cx="1506.02" cy="529.42" r="52.16" gradientTransform="translate(2597.7 -665.3) rotate(109.4)" xlink:href="#Áåçûìÿííûé_ãðàäèåíò_571"/><radialGradient id="Áåçûìÿííûé_ãðàäèåíò_571-7" cx="1405.93" cy="309.99" r="27.42" gradientTransform="translate(444.4 -524) rotate(24.4)" xlink:href="#Áåçûìÿííûé_ãðàäèåíò_571"/><radialGradient id="Áåçûìÿííûé_ãðàäèåíò_571-8" cx="961.04" cy="649.51" r="5.11" gradientTransform="translate(444.4 -524) rotate(24.4)" xlink:href="#Áåçûìÿííûé_ãðàäèåíò_571"/><radialGradient id="Áåçûìÿííûé_ãðàäèåíò_571-9" cx="818.33" cy="928.44" r="5.11" xlink:href="#Áåçûìÿííûé_ãðàäèåíò_571"/><linearGradient id="Áåçûìÿííûé_ãðàäèåíò_464" x1="-33.9" y1="80.77" x2="-33.9" y2="37.53" gradientUnits="userSpaceOnUse"><stop offset="0" stop-color="#514f5b"/><stop offset="1" stop-color="#6f6f3b"/></linearGradient><radialGradient id="radial-gradient-2" cx="1078.93" cy="331.17" r="825.6" gradientUnits="userSpaceOnUse"><stop offset="0" stop-color="#4b271e" stop-opacity="0.5"/><stop offset="0.99" stop-color="#535500" stop-opacity="0.5"/></radialGradient></defs><g class="cls-2"><g id="layer1"><g class="cls-3"><polygon class="cls-4" points="-18.9 -313.1 -18.9 480.5 2153 379.7 2154.7 -313.1 -18.9 -313.1"/><polygon class="cls-5" points="1238.4 332.9 1286.8 33 1300.3 -312.7 1352.3 -319.1 1346 304.8 1238.4 332.9"/><polygon class="cls-6" points="1161.9 321.7 1146.9 20.4 1181.1 -312.7 1233.1 -319.1 1226.7 304.8 1161.9 321.7"/><polygon class="cls-7" points="1823.8 216.7 1814.1 -312.7 1889.2 -313.2 1907.7 197.7 1823.8 216.7"/><polygon class="cls-8" points="1636.5 216.7 1673.6 -318.8 1748.7 -319.3 1720.3 197.7 1636.5 216.7"/><polygon class="cls-9" points="722.6 216.7 749.7 -313 896.3 -314 880.7 235.8 722.6 216.7"/><polygon class="cls-10" points="565 372.3 552.5 -312.7 627.5 -313.2 653.2 395.1 565 372.3"/><polygon class="cls-11" points="1352.3 323.8 1400.2 99.8 1400.2 -215.8 1440.6 -312.7 1449.1 -313.2 1421.2 -199.3 1426.6 176.8 1440.6 303.7 1352.3 323.8"/><polygon class="cls-12" points="914.7 323.8 962.6 99.8 962.6 -215.8 1003 -312.7 1011.5 -313.2 983.5 -199.3 988.9 176.8 1003 303.7 914.7 323.8"/><path class="cls-13" d="M2155.4-111.8l-105.9,52s-41.4,3.8-105.4-8.4v-7.1h-44.8L1838-53.5s-86.9,21.7-138.3,14.4l-32.3-24.4L1502.2-89.9,1469-43.1,1371.7-7.6s-129.9,12.9-216-18.6c0,0-2.7-37.3,10-54.8l-20.9-9.3s2.8,43.1,0,82.7L1022.6,22.5l-38-.8L963.1-10.8,876.8,0S781.1-9.5,751.5-63.5L722.6-75.3,663.4-35.7,408.3-66.8S329.2-91.5,315-127.6l-23.3,10L79.3-88.4-18.9-49.5V-313.1H2154.7Z"/><polygon class="cls-14" points="-18.9 462.6 -18.9 773.7 2154.7 773.7 2154.7 430.6 559.8 430.6 -18.9 462.6"/><polygon class="cls-15" points="781.5 209.9 2154.7 -2.4 2154.7 261 1069.2 309.1 781.5 209.9"/><polygon class="cls-16" points="2154.1 -2.3 966.5 183.9 1248.7 205.7 1796.8 129.3 1122.5 240.2 1365.8 260.8 2153 240.2 2162.4 7.9 2154.1 -2.3"/><polygon class="cls-17" points="1176.4 21 1172.7 16.8 1136.1 65.5 1136.1 52 1170 -335.4 1154.2 -335.4 1090.3 315.7 1147.4 297.6 1137.9 235.1 1137.9 88.1 1176.4 21"/><path class="cls-18" d="M1316.5-335.4H1010.3C762.8-301.3,580.8-186.5,580.8-50.2c0,163.3,260.8,295.6,582.6,295.6S1746,113.1,1746-50.2C1746-186.5,1564-301.3,1316.5-335.4Z"/><polygon class="cls-19" points="-18.9 -149.5 845 214.6 1165.7 294.7 2153 261.1 824.1 350.5 -18.9 375.2 -18.9 -149.5"/><polygon class="cls-20" points="1460.9 305.9 853.1 306.9 864.5 321.7 337.4 266.1 -18.9 214.1 -18.9 375.2 920.3 344.9 1460.9 305.9"/><polygon class="cls-21" points="-18.9 214.1 66.5 244.5 66.5 372.7 132.4 370 156.2 255.4 186.6 256.4 180.6 368.7 190.6 369 203.2 256.4 382.2 281.2 398.6 350 245.4 366.2 544.9 357 426.1 356.8 418.7 281.2 665.8 308.8 665.8 355.1 707.3 351.8 707.3 305.1 -18.9 214.1"/><polygon class="cls-21" points="864.5 321.7 864.5 346 977 340.8 978.9 306.7 853.1 306.9 864.5 321.7"/><polygon class="cls-21" points="1030.7 306.7 1024.3 337.4 1030.7 336.6 1043.9 306.6 1030.7 306.7"/><polygon class="cls-16" points="-18.9 183.9 864.5 321.7 853.1 306.9 260.8 110.9 97.2 50.4 591.1 187.3 824.4 205.9 -18.9 -149.5 -18.9 183.9"/><polygon class="cls-22" points="1065.1 352.3 1046.7 75.4 1055.6 -305.8 1039 -306.4 1029.9 -109.6 1022.9 -75.2 1003.3 -92 1001 -89.8 1019.7 -64 1009.6 146.3 1001 343 1065.1 352.3"/><polygon class="cls-23" points="1001 343 1002.8 301.9 1005.9 303.3 1007.1 317 1009.2 318.2 1009.2 308.5 1023.8 309.8 1028.7 343 1031.7 341.5 1031.7 329.7 1034.3 329.7 1034.3 339 1037.6 339 1036.3 316.7 1043.8 316.1 1045.5 326.9 1047.4 326.9 1047.4 323.1 1052.8 322.4 1053.8 338.7 1056 338.7 1056 328.1 1063.1 323.1 1065.1 352.3 1001 343"/><polygon class="cls-24" points="1054.6 350.8 1047.4 235 1020.5 170.5 1013.7 61.1 1015.5 23 1025.4 117 1038.7 193.2 1058.9 259.1 1065.1 352.3 1054.6 350.8"/><polygon class="cls-24" points="1045.5 349.5 1020.5 260.4 1007.1 202.4 1008.8 164.9 1008.4 173.6 1015.9 216.9 1018.7 284.3 1026.9 343 1024.4 346.4 1045.5 349.5"/><polygon class="cls-24" points="1042.8 148.3 1030.2 27.1 1019.7 -64 1021 -65.2 1022.9 -75.2 1024 -59.5 1039.6 25.5 1047.3 52.2 1046.9 74.3 1042.8 148.3"/><polygon class="cls-25" points="1047.4 235 1045.5 313.4 1039.4 323.1 1017.1 245.7 1015.9 216.9 1020.5 170.5 1047.4 235"/><polygon class="cls-25" points="1045.6 215.7 1047.4 164.9 1042.3 144.2 1033.5 48.3 1015.9 26.8 1025.4 117 1038.7 193.2 1045.6 215.7"/><polygon class="cls-25" points="1047.3 52.2 1047.3 1.7 1043.1 -24.1 1022.9 -75.2 1024 -59.5 1039.6 25.5 1047.3 52.2"/><ellipse class="cls-26" cx="1187.6" cy="313" rx="763.3" ry="245.9"/><polygon class="cls-27" points="956.7 -335.4 938.9 -335.4 948.8 -139 884.1 350 938.8 342.3 937.9 135.4 961.5 -103.7 956.7 -335.4"/><polygon class="cls-28" points="889.8 306.8 917.8 196.7 929.8 86.4 956.4 -52.2 945.1 36.2 928.1 137.2 912.1 267 884.1 350 889.8 306.8"/><polygon class="cls-28" points="906.3 347.3 915.5 327.1 922.8 279.4 920.3 327.1 920.3 344.9 906.3 347.3"/><polygon class="cls-29" points="341.3 -335.4 320.4 -136.2 277.9 66.3 329.9 84.8 359.9 -335.4 341.3 -335.4"/><polygon class="cls-28" points="333 41.4 327.8 -72.1 338.2 -182.6 340 -323.6 333.4 -234.7 329.7 -132.4 319.2 -2.1 329.9 84.8 333 41.4"/><polygon class="cls-28" points="308.7 77.8 303.8 56.1 306.2 7.9 299.1 55.2 295.5 72.6 308.7 77.8"/><path class="cls-30" d="M234.1-335.4l-45.9,83-37.5,36.6,7.3-41.7-2,.9-11,44.7-23.7,35.5,5.8-36.7,28.6-122.3H143.1l-27.6,87-5.3-21.2-4.3-65.8H102l3.8,102L71.1-44.1,39.5,384.3c29.2,4.4,78.5-.8,78.5-.8L98.7,35.7,119-145.5l34.8-64.7,36.5-39.9,45.5-85.3Z"/><path class="cls-31" d="M39.5,384.3l12.4-57.9L79.3,232l26.6-67.7-.6,31.7L81.7,235l-2.2.9-6.9,40L59.7,348,59,373.8l9.6,7.1,15.5-30.6,11-60.7-1.6-51.8,11.8-27.6.6,11.4-7,29.7v88.2l-7,45.9S53.3,388.8,39.5,384.3Z"/><polygon class="cls-31" points="48.9 256.4 79 212.2 84.1 182.2 87.1 104.6 99 40.8 98.7 35.7 84.2 86.4 83.9 95.2 81.7 105.7 72.7 180.7 68.7 199.1 50.6 233.6 48.9 256.4"/><polygon class="cls-31" points="63.5 59.3 89.6 -47.5 112.5 -132.4 119 -145.5 117.2 -150.6 121.3 -176.4 112.5 -148.9 94.7 -75.8 82.4 -35.2 68.2 -5.6 63.5 59.3"/><polygon class="cls-25" points="72.6 21.9 66.5 47 68.6 112.9 72.6 137.3 81.7 105.7 83.9 95.2 84.2 86.4 98.7 35.7 99 -28.4 99.7 -85.3 72.6 21.9"/><polygon class="cls-25" points="51.9 326.4 42.5 332.7 48.6 261.1 61.2 238.4 79 212.2 79.3 232 51.9 326.4"/><polygon class="cls-32" points="1534.8 327.6 1508.5 -220.3 1470.7 -321.8 1474.6 -321.8 1496.2 -264.7 1504.3 -277.9 1516.2 -321.2 1519.3 -321.8 1506.4 -276 1502.2 -260.8 1518.5 -230.8 1538.5 -321.2 1554.3 -321.2 1537.6 -227.8 1561.9 15.7 1575.8 -2.3 1578.3 1.2 1569 35.7 1606.6 306.2 1534.8 327.6"/><polygon class="cls-33" points="1606.6 306.2 1601.3 268 1597.9 269.6 1597.9 288.9 1594.4 288.2 1594.4 278.8 1585.4 280.4 1587.3 296.3 1584.9 297 1581.1 277.5 1579.4 279.1 1576 260.4 1563.2 263.2 1567.1 290.7 1563.2 293.1 1560.2 287.7 1555.1 289.1 1553.9 300 1549.5 301.9 1547.1 256.6 1538.6 256.6 1541.2 285.1 1537.8 285.6 1535.3 263.6 1531.7 263.4 1534.8 327.6 1606.6 306.2"/><polygon class="cls-24" points="1534.8 327.6 1546.9 246.9 1546.9 197.1 1559.5 108.8 1569 35.7 1570.2 44.5 1561.1 120.6 1555.1 210.8 1563.7 266 1570.6 317 1534.8 327.6"/><polygon class="cls-24" points="1579.4 314.3 1579.4 266 1579.4 203.4 1588.7 177.8 1590.4 189.8 1584.9 201.8 1583.6 269.6 1590.4 311.1 1579.4 314.3"/><polygon class="cls-24" points="1528.9 204 1528.9 99.3 1538.6 55.1 1545.9 -20.5 1538.6 -91 1547.1 -132.5 1546.5 -138.3 1534.8 -90.2 1531.9 -78.6 1544 -20.3 1534.8 31 1528.9 58.3 1523.5 92.5 1528.9 204"/><polygon class="cls-24" points="1561.9 15.7 1557.3 31 1555.4 70.2 1546.3 146.6 1554.1 55.2 1549.9 21.1 1557.7 -26.1 1561.9 15.7"/><polygon class="cls-25" points="1546.9 197.1 1561.5 94 1567.1 50.7 1558.9 25.6 1556.6 45.7 1546.3 146.6 1546.9 197.1"/><polygon class="cls-25" points="1566.1 283.3 1579.4 203.4 1587.3 181.7 1570.2 117.2 1555.1 210.8 1566.1 283.3"/><polygon class="cls-25" points="1531.6 45.7 1531.6 -46.8 1533.1 -73.2 1544 -20.3 1531.6 45.7"/><polygon class="cls-34" points="1431.7 336.9 1450 60 1441.1 -321.2 1457.7 -321.8 1466.8 -125 1473.8 -90.6 1493.4 -107.5 1495.7 -105.2 1477 -79.4 1487.1 130.9 1495.7 327.6 1431.7 336.9"/><polygon class="cls-35" points="1495.7 327.6 1493.9 286.5 1490.8 287.9 1489.6 301.6 1487.5 302.8 1487.5 293.1 1472.9 294.4 1468 327.6 1465 326.1 1465 314.3 1462.4 314.3 1462.4 323.6 1459.1 323.6 1460.4 301.3 1452.9 300.7 1451.2 311.5 1449.3 311.5 1449.3 307.7 1443.9 307 1442.9 323.3 1440.7 323.3 1440.7 312.7 1433.6 307.7 1431.7 336.9 1495.7 327.6"/><polygon class="cls-24" points="1442.1 335.4 1449.3 219.6 1476.2 155.1 1483 45.7 1481.2 7.6 1471.3 101.6 1458 177.8 1437.8 243.7 1431.7 336.9 1442.1 335.4"/><polygon class="cls-24" points="1451.2 334.1 1476.2 245 1489.6 187 1487.9 149.5 1488.3 158.2 1480.8 201.5 1478 268.9 1469.8 327.6 1472.3 331 1451.2 334.1"/><polygon class="cls-24" points="1454 132.9 1466.5 11.7 1477 -79.4 1475.7 -80.6 1473.8 -90.6 1472.7 -74.9 1457.1 10.1 1449.4 36.8 1449.8 58.8 1454 132.9"/><polygon class="cls-25" points="1449.3 219.6 1451.2 298 1457.3 307.7 1479.6 230.3 1480.8 201.5 1476.2 155.1 1449.3 219.6"/><polygon class="cls-25" points="1451.1 200.3 1449.3 149.5 1454.4 128.8 1463.2 32.8 1480.8 11.4 1471.3 101.6 1458 177.8 1451.1 200.3"/><polygon class="cls-25" points="1449.4 36.8 1449.4 -13.7 1453.6 -39.5 1473.8 -90.6 1472.7 -74.9 1457.1 10.1 1449.4 36.8"/><path class="cls-36" d="M484-218.8l-2.4-26.3-1.7,1.2v28.6l-28.6,48.7,20.1-168.8H429L364.6,14.5,328.2-72.4l-.5-65.7h-4l.5,67.5L356.7,41.3,322.8,260.2,291.7,369.4c35.5,6.2,111.4,0,111.4,0L409.6,148l32.2-262.3,50-102.8L527.6-251l-3.3-1.6Z"/><polygon class="cls-24" points="315 325.9 342.3 169.5 364.7 89.7 409.6 28.6 424.3 -8.3 441.8 -114.3 433.8 -48.6 425.4 2.6 398.4 85.7 378.4 122.5 355.2 181.2 323.9 330.5 315 325.9"/><polygon class="cls-24" points="356.7 41.3 359 64.7 394.3 19.7 424.8 -40.5 430.3 -70.5 423.2 -47.1 416.5 -37.2 413.1 -24.1 391.1 16.5 375.1 16 366.5 4.5 364.6 14.5 360.6 32.8 356.5 30.9 339 -19.7 356.7 41.3"/><polygon class="cls-24" points="325.1 372 361 213.4 378.4 160.8 414.5 108.1 409.6 148 391.2 155.5 384.6 161.6 364.9 221.9 355.2 316.4 355.2 372.3 325.1 372"/><polygon class="cls-31" points="408.3 191 378.2 256.5 362.8 328.7 362.8 370.2 368.2 371.4 367.1 331.2 375.9 299.8 397.1 248.4 406.9 241.2 408.3 191"/><path class="cls-37" d="M390.7,209.4a7.8,7.8,0,0,1-2.5-2.3c.4-.1.6-.5,1-.8a.7.7,0,0,1,.7-.3c.3,0,.4-.2.7,0s.2.5.4.8.3.2.3.6a2.3,2.3,0,0,1-.2,1.1c-.3.4-1,1.7-1.3,1.3Z"/><path class="cls-37" d="M381.5,220.1c.7-2.7,1.3-5.4,1.9-8.1-.1.4-.4.4-.5.6l-.6.7-.9,1.5a15.6,15.6,0,0,0-1.5,5.2c-.3,1.7-.3,3.4.2,3.5s.7-.8.9-1.5a3.7,3.7,0,0,0,.5-1.1,7.8,7.8,0,0,0,.5-1.4Z"/><path class="cls-37" d="M388.1,230.2a6.3,6.3,0,0,0-.1,2.7h.3c0,.2.1.2.3-.1s1.1-.9,1.7-2.4a16.8,16.8,0,0,0,1.1-5.8c-.1-.7-.2-1.4-.4-1.5s-.7.5-1.1,1.3a19.9,19.9,0,0,0-.9,2.6A18.1,18.1,0,0,0,388.1,230.2Z"/><path class="cls-37" d="M396.8,208.9c-.2,1.1-.2,2.3.3,2.8a.7.7,0,0,0,.6.1c.1.3.3.3.5.1a3.4,3.4,0,0,0,3.1-2,7.2,7.2,0,0,0,1.1-5.7c-.2-.8-.5-1.6-1.1-1.8s-1.3.3-1.9,1a11.6,11.6,0,0,0-1.4,2.4A16.6,16.6,0,0,0,396.8,208.9Z"/><path class="cls-37" d="M391.3,202.5c-.2,1.1-.2,2.4.3,2.9a.7.7,0,0,0,.6.1c.1.3.3.3.5,0s2.2-.5,3.1-1.9a7.2,7.2,0,0,0,1.1-5.7c-.2-.8-.5-1.6-1.1-1.8s-1.3.2-1.9,1a11.6,11.6,0,0,0-1.4,2.4A12.5,12.5,0,0,0,391.3,202.5Z"/><path class="cls-37" d="M369.8,190.4a119.6,119.6,0,0,0,.1,13.4c.2,3.4.3,8,2.2,9.5s3.7.3,5.4-1.8,3.3-6.5,4.3-10.4c.4-1,.9-2.1,1.3-3.2a20.4,20.4,0,0,0,1.5-11.3,4.2,4.2,0,0,0-.4-1.2v-.3c0-.4-.1-.6-.3-.7a9.5,9.5,0,0,0-1.1-2,2.3,2.3,0,0,0-1.2-1.2h-.1a5.7,5.7,0,0,0-1.3-.8,8.7,8.7,0,0,0-3.6-.4,6.2,6.2,0,0,0-3.4.9C370.7,182.4,370,186.5,369.8,190.4Zm2.6-6.6a3.1,3.1,0,0,1,1-1h0l-.2.2a.3.3,0,0,0-.1.2,13.4,13.4,0,0,0-1.4,3.2l-.6,2.3A10,10,0,0,1,372.4,183.8Z"/><path class="cls-37" d="M377.2,120.7c0,.2-.1.4,0,.6s.3.2.4.3a3.9,3.9,0,0,0,3.3-1.5h.3a1.1,1.1,0,0,0,.6-1.2c0-.1.1.1,0,.1s0-.1,0-.1h.1v-.2h.1c.2-.5.1-1-.2-1.1S377.9,118.4,377.2,120.7Z"/><path class="cls-37" d="M390.1,212a9.9,9.9,0,0,0,.2,1.7c.1,1,.3,2.1.5,3.1a6.7,6.7,0,0,0,.6,1.2c0,.1.1.2.3.2s.3.2.5.2,1.4-.6,1.9-1.5a5.8,5.8,0,0,0,.4-1.8h0a1.5,1.5,0,0,0,.1-1.3h0a5.9,5.9,0,0,0,.2-1.3,3.7,3.7,0,0,0-.8-2.5,3.3,3.3,0,0,0-1.8-.8,1.7,1.7,0,0,0-1.9,1A2.9,2.9,0,0,0,390.1,212Z"/><path class="cls-37" d="M396.3,217.9a9,9,0,0,1-3.6-1.9c.5-.2.6-.7,1-1.2a1.5,1.5,0,0,1,.8-.5c.3-.1.5-.3.9-.1s.4.5.7.7.3.1.5.6a1.9,1.9,0,0,1,0,1.3c-.2.6-.9,2.2-1.4,1.8Z"/><path class="cls-37" d="M394.6,229.8c.4-3.2.8-6.3,1.1-9.5-.1.5-.8.5-1.1.8l-1.1.8-1.8,1.9c-1.5,1.8-1.2,4.2-1.2,6.2s.7,3.9,2.1,3.9,1.3-1,1.7-1.7a4.6,4.6,0,0,0,.7-1.4,8.5,8.5,0,0,0,.6-1.7Z"/><path class="cls-37" d="M387.6,201.9c-.4,1.4-.5,2.9.1,3.5a.6.6,0,0,0,.6.1c0,.3.3.3.5,0s2.2-.8,3.3-2.7a11.6,11.6,0,0,0,1.4-7.2c-.1-1-.4-1.9-1-2.1s-1.3.4-2,1.4a22.5,22.5,0,0,0-1.6,3.1A19.8,19.8,0,0,0,387.6,201.9Z"/><path class="cls-37" d="M386,224.3a30.9,30.9,0,0,0-2.4-4.4c0,.4-.5.3-.6.4a2.4,2.4,0,0,0-.6.8,8.6,8.6,0,0,0-.6,3.5c0,2.1.8,3.1,1.7,3.4a1.5,1.5,0,0,0,1.4-.3,3.6,3.6,0,0,0,.8-.9,11,11,0,0,0,.5-4.6c-.1-.2-.4-.6-.6-.3s-.5,1.3-.1,1.1Z"/><path class="cls-37" d="M376.2,202a9.7,9.7,0,0,1-2.8-3.8c.6-.3.9-1.2,1.4-1.9a1.6,1.6,0,0,1,1-.8c.4-.2.6-.4.9-.1a4,4,0,0,1,.4,1.3,1.6,1.6,0,0,1,.3,1.2,4.9,4.9,0,0,1-.5,2.2c-.4,1-1.6,3.7-2,3Z"/><path class="cls-37" d="M408.6,191.3c.4-3.1.8-6.3,1-9.5-.1.5-.6.5-.8.8l-.8.9-1.4,1.9c-1.2,1.9-1,4.2-1,6.3s.5,3.9,1.5,3.8,1-1,1.3-1.8a8.4,8.4,0,0,0,.6-1.4l.5-1.7Z"/><path class="cls-37" d="M388.2,152.9a6.1,6.1,0,0,0,.7-1.4c-.1-.5,0-1.1-.2-1.2s-.7.3-1.1.9a4.7,4.7,0,0,0-.3,1.9c.1.6.1,1.1.6.6a6.8,6.8,0,0,0,1.2-2.1Z"/><path class="cls-37" d="M364.5,157.5l.6-1.5c-.1-.4,0-1-.2-1.2s-.7.3-1,.9a3.1,3.1,0,0,0-.3,2c0,.6,0,1.1.6.6a8.9,8.9,0,0,0,1.1-2.2Z"/><path class="cls-37" d="M373.2,214.4a10.6,10.6,0,0,0,.2,2.6c.1.2.1.4.2.6h0a6.4,6.4,0,0,0,.6,2.2,2,2,0,0,0,1,1.2,1.2,1.2,0,0,0,1.4.1,5.4,5.4,0,0,0,2.7-3l.7-1.7a15.1,15.1,0,0,0,.9-4.1,17.9,17.9,0,0,0,.2-2.3,10,10,0,0,0-.1-3.5,4.9,4.9,0,0,0-1.1-2.3,1.8,1.8,0,0,0-1.8-.4,4,4,0,0,0-1.9,1.6l-.6.8a7.1,7.1,0,0,0-1.2,2.3,11.5,11.5,0,0,0-.9,2.8A16.9,16.9,0,0,0,373.2,214.4Z"/><path class="cls-37" d="M348.8,161.7a10.4,10.4,0,0,0,1,4.3l.6,1.1c.1.1.1.1.1.2a7.7,7.7,0,0,0,1.9,3.7,6,6,0,0,0,3.2,2.3,5.9,5.9,0,0,0,3.9.7,11.1,11.1,0,0,0,7.1-4.2c.6-.9,1.2-1.8,1.7-2.7a15.6,15.6,0,0,0,1.7-6.4c.1-1.2.3-2.5.4-3.7a13.1,13.1,0,0,0-1.1-6,9.8,9.8,0,0,0-3.4-4.1,8.8,8.8,0,0,0-5.1-1.2,9.3,9.3,0,0,0-5,2.2l-1.6,1a11.4,11.4,0,0,0-3,3.5,12.7,12.7,0,0,0-2,4.4A11.8,11.8,0,0,0,348.8,161.7Z"/><path class="cls-37" d="M373,204.7a.6.6,0,0,0,.1.4c0,.2.1.2.2.2s1.2-.8,1.6-1.8v-.2a2,2,0,0,0,.3-1.1c-.1,0,0,.1,0,.1h0c.1-.4,0-.8-.2-.8S373.1,202.8,373,204.7Z"/><path class="cls-37" d="M374.5,197.2c0,.2,0,.5.1.6v.2c.1.1.3.2.4.1h.3v.2h.3a.8.8,0,0,0,.2-.5,1.3,1.3,0,0,0,.1-.6c0-.9-.3-1.6-.8-1.7s-.2,0-.3.2a3.3,3.3,0,0,0-.3.6A3,3,0,0,0,374.5,197.2Z"/><path class="cls-37" d="M336.5,175.7c0,1.5.1,3.7.9,3.7s1.7-1.3,2.2-2.7a14,14,0,0,0,1-4.5,3.7,3.7,0,0,0,.1-1.1,6.7,6.7,0,0,0-.1-3.2c-.3-1.2-1.1-1.5-1.9-1a7.1,7.1,0,0,0-1.9,3.7A17.7,17.7,0,0,0,336.5,175.7Z"/><path class="cls-37" d="M377.5,195.2a1.9,1.9,0,0,0,.1.8l.3.2h.2a1.3,1.3,0,0,0,.6-.5,2,2,0,0,0,.4-.8c0-.1.1-.2.1-.3a4.5,4.5,0,0,0,.1-1.1c-.1-.2-.1-.4-.2-.6s-.1-.2-.1-.3a.4.4,0,0,0-.5-.1c-.2,0-.4.3-.6.6l-.3.9A4.5,4.5,0,0,0,377.5,195.2Z"/><path class="cls-37" d="M382.4,178c.5.3,1.4-2.3.9-2.6S381.9,177.7,382.4,178Z"/><path class="cls-37" d="M352.4,192.5a94.2,94.2,0,0,0,1.4,15.1c.6,3.9,1.2,9,4.5,10.7s6.2.3,8.8-2.1,4.9-7.5,6.2-11.8l2-3.7c2.1-4.2,3-8.7,1.4-12.8l-.6-1.4v-.3a1,1,0,0,0-.7-.7,11.5,11.5,0,0,0-2.1-2.3,3.2,3.2,0,0,0-2-1.3h-.1a10.2,10.2,0,0,0-2.2-.9,21.4,21.4,0,0,0-6.2-.5,16.1,16.1,0,0,0-5.6,1.2C353.3,183.6,352.4,188.2,352.4,192.5Zm3.8-7.5a5.7,5.7,0,0,1,1.6-1.1h-.1l-.3.3v.2a9.5,9.5,0,0,0-2,3.7,18.3,18.3,0,0,0-.8,2.5C354.5,188.7,354.8,186.5,356.2,185Z"/><path class="cls-37" d="M367.2,197.3h0c0,.1,0,.2.1.2h.6a.4.4,0,0,1,.1.3l.2.3.3-.2a.8.8,0,0,0,.2-.5,1.2,1.2,0,0,0,.2-1c-.1-.6-.3-1.2-.4-1.8s-.2-.4-.4-.2a4.3,4.3,0,0,0-.7,1c0,.2-.1.5-.1.7A2.8,2.8,0,0,0,367.2,197.3Z"/><path class="cls-37" d="M381.5,116c.3-1.3.6-2.6.8-3.9s.4-2.3-.1-2.7-1.1-.2-1.7.4a8.6,8.6,0,0,0-1.9,2.9l-.6.9a5.9,5.9,0,0,0-1.1,3.2v.4h0v.2l.3.6c0,.1.1.3.2.3h0l.4.2a1.8,1.8,0,0,0,1,.2,2.2,2.2,0,0,0,1.1-.2A4.3,4.3,0,0,0,381.5,116Zm-1.2,1.9-.3.2h.1l.6-.9.3-.7A3,3,0,0,1,380.3,117.9Z"/><path class="cls-37" d="M355.7,131.1v-.2h-.1c-.3-.1-.7.2-1.1.7h-.1a.8.8,0,0,0-.2.5h0a.3.3,0,0,0,0,.4C354.6,132.8,355.4,132,355.7,131.1Z"/><path class="cls-37" d="M366.6,127.8a1.5,1.5,0,0,0,.1-.7,5.7,5.7,0,0,0,.1-1.3,1.3,1.3,0,0,0-.1-.6.1.1,0,0,0-.1-.1h-.2c-.2-.1-.5.1-.8.5l-.3.7h0c-.1.2-.2.4-.1.5h0a1.4,1.4,0,0,0-.2.6,2,2,0,0,0,0,1.1l.6.5c.2.1.5.1.8-.3A2.4,2.4,0,0,0,366.6,127.8Z"/><path class="cls-37" d="M365,116.6c.1-.6.2-1.4-.1-1.6h-.3c-.1-.1-.2-.2-.3,0s-1.2.3-1.8,1.2a5.1,5.1,0,0,0-.7,3.3c.1.4.3.8.6.9s.7-.1,1-.6a6.7,6.7,0,0,0,.9-1.4A8.7,8.7,0,0,0,365,116.6Z"/><path class="cls-37" d="M358.1,104.4l1.1,1.1-.5.5h-.3c-.2,0-.2.1-.3,0a.5.5,0,0,1-.2-.4c-.1-.1-.2,0-.2-.3a.6.6,0,0,1,.2-.5c.1-.2.5-.9.6-.7Z"/><path class="cls-37" d="M362.2,123.1c-.5,1.3-.9,2.6-1.3,4,.1-.2.3-.2.5-.3s.3-.1.4-.3l.8-.6a3.6,3.6,0,0,0,1-2.5c.2-.9.1-1.8-.4-1.9s-.5.4-.7.7a1,1,0,0,0-.4.5,2.1,2.1,0,0,0-.4.6Z"/><path class="cls-37" d="M366.4,110.1c-.5,1.3-.9,2.6-1.3,3.9s.4-.1.5-.2l.5-.3.8-.6a4.9,4.9,0,0,0,1-2.6c.1-.8.1-1.7-.4-1.8s-.6.3-.8.6l-.4.5-.3.7Z"/><path class="cls-37" d="M356.9,119c-.3.6-.5,1.6,0,1.6a.8.8,0,0,0,.4-.7c.1-.2.1-.2,0-.4v-.2c-.1-.2-.4.1-.6.3Z"/><path class="cls-37" d="M362,112.8l-.3.5c.1.2,0,.4.2.5s.4,0,.6-.3.1-.5.1-.7-.1-.5-.4-.3-.4.4-.6.8Z"/><path class="cls-37" d="M376.1,112.5l-.3.6c.1.2,0,.4.2.5s.4-.1.6-.3a1.2,1.2,0,0,0,.1-.8c-.1-.2-.1-.4-.4-.3a2.4,2.4,0,0,0-.6.8Z"/><path class="cls-37" d="M364.6,93a4.5,4.5,0,0,0,.1-1.1v-.3h0a3.1,3.1,0,0,0-.1-1,.9.9,0,0,0-.4-.6.8.8,0,0,0-.7-.2,1.9,1.9,0,0,0-1.5,1l-.5.6a4.6,4.6,0,0,0-.7,1.6l-.4,1a7.7,7.7,0,0,0-.2,1.5,1.8,1.8,0,0,0,.4,1.1.8.8,0,0,0,.8.4,2.4,2.4,0,0,0,1-.5l.4-.3a2.9,2.9,0,0,0,.7-.8,4.1,4.1,0,0,0,.7-1.1A5.6,5.6,0,0,0,364.6,93Z"/><path class="cls-37" d="M371.1,104.5a4.5,4.5,0,0,0,.1-1.1.4.4,0,0,0-.1-.3h0a1.4,1.4,0,0,0,0-.9,1.8,1.8,0,0,0-.5-.7.8.8,0,0,0-.6-.2,2.8,2.8,0,0,0-1.6,1l-.4.6a6,6,0,0,0-.8,1.6l-.3,1a4.4,4.4,0,0,0-.2,1.5,1.6,1.6,0,0,0,.3,1.1,1,1,0,0,0,.9.4,1.9,1.9,0,0,0,1-.5l.3-.2a2.4,2.4,0,0,0,.8-.9,3,3,0,0,0,.7-1.1A5.6,5.6,0,0,0,371.1,104.5Z"/><path class="cls-37" d="M363.9,97.1v-.2h-.1a1.2,1.2,0,0,0-.9.6h-.1a.5.5,0,0,0-.2.4h-.1c0,.2,0,.4.1.4S363.6,97.9,363.9,97.1Z"/><path class="cls-37" d="M362.5,100.1a.4.4,0,0,0,.1-.3h-.3c0-.1-.1,0-.2,0h-.3a.4.4,0,0,1-.1.3c0,.4.1.7.3.8h.2v-.2A.5.5,0,0,0,362.5,100.1Z"/><path class="cls-37" d="M360.9,100.6a.2.2,0,0,0,0-.3v-.2h-.4l-.3.3h0c-.1.2-.1.4-.2.5s0,.2.1.2v.2h.2l.4-.2.2-.3A.9.9,0,0,0,360.9,100.6Z"/><path class="cls-37" d="M356.4,110.2c-.2-.1-.5.6-.3.6S356.6,110.3,356.4,110.2Z"/><path class="cls-37" d="M366.6,126.3a28.7,28.7,0,0,0,.8-3.8c.2-1,.4-2.3-.1-2.8s-1.1-.2-1.7.4a10.4,10.4,0,0,0-1.9,2.9l-.6.9a7.2,7.2,0,0,0-1.1,3.3v.3h0c0,.1,0,.2.1.2a1.4,1.4,0,0,0,.2.6c0,.2.1.3.3.4h0l.3.3,1.1.2,1.1-.3C365.9,128.6,366.3,127.5,366.6,126.3Zm-1.1,1.9-.4.3h.1a1.5,1.5,0,0,0,.6-.9l.4-.6A4.6,4.6,0,0,1,365.5,128.2Z"/><path class="cls-37" d="M349.2,133.5a1.3,1.3,0,0,0,.1-.6,4.5,4.5,0,0,0,.1-1.1v-.5h-.1c-.2,0-.4.2-.5.6l-.3.6h0v.4h0v.4a1.7,1.7,0,0,0,0,1,.3.3,0,0,0,.3.3c.1.1.3.1.4-.3A1.9,1.9,0,0,0,349.2,133.5Z"/><path class="cls-37" d="M350.3,136.6c.1-.6.2-1.2,0-1.4H350c-.3,0-.7.4-1.1,1.2a6.6,6.6,0,0,0-.6,2.9c0,.3.1.7.3.7s.4-.2.6-.6l.6-1.3A8.8,8.8,0,0,0,350.3,136.6Z"/><path class="cls-37" d="M359.5,114.4a5.8,5.8,0,0,0,.4-1.8h0v-.2a1.1,1.1,0,0,0-.3-.8c.1-.1.1-.2,0-.2s-1.3-.1-1.9.8a4.4,4.4,0,0,0-.8,3.2,1,1,0,0,0,.6.8.8.8,0,0,0,.8.1.1.1,0,0,1,.1.1q.2,0,.3-.3v-.2A2.7,2.7,0,0,0,359.5,114.4Zm0-1.7a6.4,6.4,0,0,1-.2.7v-.3c.1-.1,0-.1,0-.2s.1-.5.2-.7A.7.7,0,0,1,359.5,112.7Zm19.9-11c0,.2-.1.4-.1.7h-.1v-.6c.1-.3.1-.5.2-.8Z"/><path class="cls-37" d="M366,101h-.2a.1.1,0,0,1-.1-.1h-.2l-.2.2c-.1.1-.2.3-.1.4v.8a.2.2,0,0,0,.2.2l.4-.4c0-.1.1-.2.1-.3A.4.4,0,0,0,366,101Z"/><polygon class="cls-38" points="359 64.7 364.7 89.7 409.6 28.6 423.3 -5.9 426.4 -37.8 394.3 19.7 359 64.7"/><polygon class="cls-38" points="355.2 181.2 375.5 169.5 378.4 160.8 408.3 117.1 408.3 55.1 398.4 85.7 378.4 122.5 355.2 181.2"/><polygon class="cls-38" points="364.9 221.9 356 308.4 362.8 328.7 378.2 256.5 399.5 210.3 408.3 191 408.3 160.3 391.2 169.5 378.4 179.1 364.9 221.9"/><polygon class="cls-24" points="342.3 169.5 355.2 181.2 378.4 122.5 398.4 85.7 414.6 35.8 409.6 28.6 364.7 89.7 342.3 169.5"/><polygon class="cls-24" points="338.5 191 328.4 249.3 337.4 266.1 347 218.7 338.5 191"/><polygon class="cls-24" points="353.4 246.8 359 280.1 364.9 221.9 384.6 161.6 391.2 155.5 395.1 136.4 378.4 160.8 361 213.4 353.4 246.8"/><path class="cls-39" d="M228.7,23l26.9-358.4h-58L137.9,361.1c38.6,8.4,87.2,0,87.2,0l5.5-320.7,20.3-28.5-1-6.8Z"/><polygon class="cls-31" points="255.6 -335.4 243.9 -335.4 248.1 -311.3 236.3 -252.1 226.2 -221.5 232.3 -202.4 232.6 -194.8 191.4 -102.9 176.6 -90.5 151.5 202.1 181 150 226.2 -8.2 235.2 -63.7 237.7 -111.4 226.2 -26.1 214.2 0.3 192.2 89 168.7 115.8 170.2 49.5 181 -43.2 219.1 -132.7 231.4 -161.9 240.6 -135.5 243 -168.7 240 -176.4 233.6 -228.5 252.9 -300.3 255.6 -335.4"/><polygon class="cls-31" points="137.9 361.1 158.5 241.8 172.5 196 202.6 155.2 226.2 59.3 230.6 40.4 228.3 99.1 215.9 124.9 206.7 146.1 206 155.2 191.2 192.1 167.9 285.2 155.1 362.4 137.9 361.1"/><polygon class="cls-31" points="180.6 364.8 187.4 308.8 206.7 256.4 218.7 207.2 228.2 182.2 220.1 207.2 218.7 252.7 210.4 290.7 203.6 341.5 201.7 363.7 180.6 364.8"/><polygon class="cls-25" points="168.7 115.8 179.3 -28.3 200 -58.6 237.7 -132.7 226.2 -26.1 213.1 4.7 192.2 89 168.7 115.8"/><polygon class="cls-25" points="202.6 155.2 189.7 117.2 205.5 64 226.2 -8.2 228.7 23 230.6 40.4 202.6 155.2"/><polygon class="cls-25" points="184.2 221.6 182.4 296.9 187.4 308.8 207.6 251.6 218.7 207.2 228.2 182.2 218.7 140.6 206 155.2 184.2 221.6"/><polygon class="cls-40" points="2164.1 785.5 2164.1 435.8 -43.9 437.4 -43.9 785.5 2164.1 785.5"/><path class="cls-41" d="M1854.9,627.4s-11.1,3.6-33.9,7.6h0c-38.9,7-111.9,15.8-221.8,11.5l-30.8-1.6.5-.3c1.7-.8,8.7-4.2,19.2-8.5l13.1-5.2,7.4-2.8,1-.4,9.2-3.2,3.3-1.1,3.1-1.1c12-3.9,20.9-6.3,25.1-7.3l1.7-.4.9-.3-254.2-16.4h.5c10-.6,177.2-10.4,313.5-.4l-12.1,4.8h0l-9.1,3.6S1763.5,603.2,1854.9,627.4Z"/><path class="cls-42" d="M1700.6,602.2c-67.5-11.3-194.7,2.6-194.7,2.6l-107.2-6.9h.5c10-.6,177.2-10.4,313.5-.4l-12.1,4.8Z"/><path class="cls-42" d="M1854.9,627.4s-11.1,3.6-33.9,7.6h0c-47.3-17.9-126.9-18-126.9-18l-2.6-11.2S1763.5,603.2,1854.9,627.4Z"/><path class="cls-42" d="M1598.8,646.9s16-15.1,55.1-24.9l-.9-7.7s-38.1,8.7-84.6,30.6Z"/><path class="cls-43" d="M1473.4,662.7s-35.8,4.5-88.6,9.4c-70.9,6.7-172.5,14.1-259.5,12.4l13.8-6.1L582.3,626.6h-.7l-21.8-2,3.5-.5c26.9-4,202-29.1,348.1-36.8L897.3,599s261.2-8.7,405.8,19l-26.4,13-16.9,8.3S1399,648.4,1473.4,662.7Z"/><path class="cls-42" d="M911.4,587.2,897.3,599c-98.5-8.8-308.5,26.5-315,27.6h-.7L563.3,624C590.2,620,765.3,594.9,911.4,587.2Z"/><path class="cls-42" d="M895.4,608.8l1.9-9.8s261.2-8.7,405.8,19l-26.4,13C1165,611.3,895.4,608.8,895.4,608.8Z"/><path class="cls-42" d="M1473.4,662.7s-35.8,4.5-88.6,9.4c-70.6-22.6-112-20.8-112-20.8l-13-12S1399,648.4,1473.4,662.7Z"/><path class="cls-31" d="M1763.5,464.4h-3.2A3.6,3.6,0,0,1,1763.5,464.4Z"/><path class="cls-31" d="M2043.7,575.9a5.4,5.4,0,0,1,3.1,0Z"/><path class="cls-44" d="M1980,678.6l24.2,14.8a1590.9,1590.9,0,0,0-182.7,1.2l45.5,21-21.2,8.5a1071.9,1071.9,0,0,0,207.9,54.1c-45.9,9.9-93.6,6.6-140.6,3.3l-459-32.8,108.8,15.9c-213.4,46.1-433-19.5-647.8-59.1-140.2-25.8-282.3-40.7-424.3-56a117,117,0,0,0,20.6-10.4A1803.5,1803.5,0,0,1,275.7,597l58.8-4.6a61.3,61.3,0,0,1-38-18.7l255,14.3-50.8-21.2c3.9-4.6,7.9-9.1,11.8-13.6l-29.2-.6c5.4,1.6,7.8,10.7,3.4,15.3s-14.1,5.7-21.9,5.1a282.2,282.2,0,0,1-107.4-30.4l19-11.7c-7.8,1-16.7,1.8-22.8-3s-4.5-17,3.4-17a145.2,145.2,0,0,1-67.8-15.2,756.4,756.4,0,0,1,130.5-19.9l-40.5-13.5,21.9-8.3a197.2,197.2,0,0,0-59.4.3,38.3,38.3,0,0,1,24.8,10.3A538.8,538.8,0,0,1,191.9,456c-4.7-1.1-10-2.6-12.2-6.7s.3-7.2,3.2-8.3a96,96,0,0,1-35.5-8.3A140.5,140.5,0,0,1,164.9,414c-18.8,2.5-37.7,1.4-56.9-1.6,434.6-14.9,1101.1,32.8,1378.3-1.1,89.4-10.9,165.1,35.9,238.9,26.1a134.6,134.6,0,0,0-17.5,18.7,94,94,0,0,0,35.5,8.2c-2.8,1.2-4.8,5.4-3.2,8.4s7.5,5.6,12.2,6.6a541.6,541.6,0,0,0,174.6,8.7,36.9,36.9,0,0,0-24.8-10.3,200.5,200.5,0,0,1,59.4-.4l-22,8.4,40.7,13.4A756.1,756.1,0,0,0,1849.5,519a145.7,145.7,0,0,0,67.8,15.2c-7.9,0-9.5,12.3-3.4,17s15,4.1,22.9,3l-19,11.7a281.2,281.2,0,0,0,107.3,30.4c7.8.6,16.7.5,21.9-5s2-13.8-3.4-15.3l29.3.5L2061,590.1l50.8,21.3-255-14.3a61.6,61.6,0,0,0,38.1,18.7l-58.9,4.5a1772.2,1772.2,0,0,0,235.8,42.1C2045.2,679.5,2011.1,685.5,1980,678.6Z"/><g class="cls-45"><path class="cls-46" d="M782.6,506.7c1.9-.3,4.1-.6,4.4-1.4s-1.3-1.6-2.9-2.2c-8.2-3.1-19.2-4.5-29.7-5.7-42.9-5-88.3-10.5-130.3-7.8-17.5,1-68.6,5.6-68.5,14.8C555.8,526.2,756.8,510,782.6,506.7Z"/><path class="cls-46" d="M539,489.2c-16.1-.1-31.2,2.4-41,6.8,9.5,4.3,25.1,5.3,38.6,5.5,20.1.3,39.8-.3,58.7-1.8,3.9-.3,8.2-.8,9.2-2.2s-8.2-5-15.9-5.6c-27.3-2.2-54.8-2-79.6.8Z"/><path class="cls-46" d="M488.9,508.7c14-3.7,37.6-1.6,50,4.5-16.7,6.3-47.7,6.4-70,0,3.8-2.8,12.3-4.3,21.2-3.8Z"/><path class="cls-46" d="M576,543.2c-7.4,1.7-14.6,4.9-10.2,8.4s11.7,3.6,18.8,4.3a669.6,669.6,0,0,0,109.6.5c5.9-.5,11.9-1.1,16.5-2.4,2.3-.7,4.4-1.6,4.3-2.8s-3.9-3.1-7.6-4.3C668.1,535,611.1,534.9,576,543.2Z"/><path class="cls-46" d="M507,549.7c-4.1.1-7.7.9-9.6,2.2a118.1,118.1,0,0,0,30.9-.1c-5.4-2.7-15-3-23-2.9Z"/><path class="cls-46" d="M303.6,577.1c-3.2.5-6.8,1.6-5.2,2.9s2.6,1.1,4.4,1.5c7.4,1.4,15.4,1.6,23.2,1.9,45,1.5,90.4,2.9,133.4.4,8.9-.5,17.9-1.2,24.8-3.1,2-.5,3.8-1.2,4-2.2s-5.4-3.5-10.3-4.3c-32.5-5.6-65.3-4.7-96.9-3.4C354.3,572,327.6,573.2,303.6,577.1Z"/><path class="cls-46" d="M478.5,575.7a32.7,32.7,0,0,0,7.4-1.2c2-.6,3.2-1.7,2.2-2.8s-3.3-1.8-5.8-2.4c-18.1-4.5-61-7.2-68.1,1.8S468.5,576.6,478.5,575.7Z"/><path class="cls-46" d="M588.6,502c-22.2.5-45.4,1.5-62,6.4-4.8,1.4-9.1,3.4-8.8,5.9s4.5,4.5,9.6,6a111,111,0,0,0,17.1,2.8c20.3,2.1,40.9,2.6,61.1,2.8,23.5.2,47,0,68.7-2.2,8.8-.9,18.3-2.7,18.7-6.4s-8.8-6.9-17.8-8.8c-14.7-3-30.8-4-46.3-4.4-21-.5-41.7,0-61.5,1.4Z"/><path class="cls-46" d="M684.8,481.8c11.8.4,24.2,1.5,34.7,4.3,2.8.7,5.6,1.7,6.3,2.9s-4.5,3.3-9.4,3.8a457.9,457.9,0,0,1-78.1,1.5c-5.5-.3-24.8-1.2-26.6-4.3s15-4.5,19.5-5.3A280.3,280.3,0,0,1,684.8,481.8Z"/><path class="cls-46" d="M720.9,470a281.1,281.1,0,0,0-40.2.7c-3.2.3-6.8.8-6.9,2.1s5.3,2.8,9.7,3.3a336.3,336.3,0,0,0,73.6.6,24.7,24.7,0,0,0,6-1.1c1.6-.5,2.5-1.5,1.5-2.4a9,9,0,0,0-3.4-1.5c-7.3-2.2-16.5-2.8-25-3.1-11.7-.4-23.3-.2-34.5.4Z"/><path class="cls-46" d="M301.7,542.3c6,.3,12.7.1,16.3-2.4a2.4,2.4,0,0,0,1.3-1.9c.1-5.1-17.2-4.9-22.5-4.2-6.9.9-17,3-21.4,6C283.6,541.4,293.2,541.9,301.7,542.3Z"/><path class="cls-46" d="M387.9,502a28.3,28.3,0,0,1,14.2,1.8,29.1,29.1,0,0,1-13.9,1.2,3.6,3.6,0,0,1-2-.7c-.5-.5-.1-1.1.6-1.4a11.6,11.6,0,0,1,2.8-.5Z"/><path class="cls-46" d="M187.9,471.5c-12.5,1.5-24.8,3.3-36.8,5.4-1.9.3-3.9.7-4.4,1.6s3.9,2.8,7.6,3.3a356.6,356.6,0,0,0,35.8,2.4c19.2.6,38.3.7,57.1.3,9.2-.2,18.6-.6,26.4-2.5a5.3,5.3,0,0,0,2.4-1c1.3-1.4-3.1-2.8-6.6-3.4a454.4,454.4,0,0,0-95.2-6Z"/><path class="cls-46" d="M276.6,524.2c2.4.3,5.4,1.2,5.3,2.6s-2.2,1.6-4,1.9a79.6,79.6,0,0,1-24.8-.7,12.7,12.7,0,0,1-4.7-2.1C256.3,523.3,267.3,523,276.6,524.2Z"/><path class="cls-46" d="M318.2,478.5c-2.1-.7-4.7-.2-6.7.2a2.3,2.3,0,0,0-1.3.6c-.2.6,1.6,1,2.9,1.1,6.2.6,13.2,1.1,17.4-.6a35,35,0,0,0-13.8-1.6Z"/><path class="cls-46" d="M168.9,458.8c5.6,0,11.6.2,16.4,1.8a4.6,4.6,0,0,1,2.2,1.3c.7.9-.7,1.8-2.2,2.3-7.5,2.7-18.8,2.1-29,1.4l-10.9-.7c-8.8-.7-3.4-3.6.5-4.6C152.1,458.8,161.7,458.8,168.9,458.8Z"/><path class="cls-46" d="M213.7,464.6a46.6,46.6,0,0,0-6.5.2c-1.1.2-2.4.7-1.6,1.2l1.2.3a49,49,0,0,0,16.3-.4c-1.4-1.2-4.8-1.9-7.3-1.4Z"/><path class="cls-46" d="M325.8,596.9c5.5.9,12,2.6,11.5,4.7s-1.8,1.6-3.5,2.2c-7.5,2.4-18.1,3.1-28.5,3.3-12,.3-24.2.1-36.5-.6-10.8-.6-21.9-1.6-32-3.8-28.4-6.3,10.8-9.7,22.2-10.1A333,333,0,0,1,325.8,596.9Z"/><path class="cls-46" d="M324.2,606.8a26.9,26.9,0,0,0-11.2,1.7c-.5.2-1,.4-1.1.8s1.6,1.6,3.2,1.9a61.1,61.1,0,0,0,20,.1c1.5-.2,3.1-.7,3.4-1.5s-1.9-2.2-4-2.6a25.8,25.8,0,0,0-11.4.2Z"/><path class="cls-46" d="M76.1,577.5c.2,1.7,4,2.6,7,2.9a331.2,331.2,0,0,0,49.7,1.6,135.8,135.8,0,0,0,21.7-2.5c1.2-.2,2.4-.5,2.8-1.2s-2.3-2.5-4.8-3c-14.7-2.7-29.3-2.7-44.2-3.5C101.2,571.4,75.3,571.9,76.1,577.5Z"/><path class="cls-46" d="M360.6,569.2a2,2,0,0,0-.9,1.4c.1,1.3,3.1,2,5.4,2.2a349,349,0,0,0,42.1,2,85.1,85.1,0,0,0,14.5-1.2c16.2-3.2-14-11-21.5-11C388.9,562.5,367.3,563.9,360.6,569.2Z"/><path class="cls-46" d="M346.6,567.2a10.9,10.9,0,0,0-7,1.6,97,97,0,0,0,25.2.9,2.2,2.2,0,0,0,1.5-.4c.7-.6-.8-1.4-2-1.7a44.3,44.3,0,0,0-18.8-.5Z"/><path class="cls-46" d="M381.7,590.6c-.9.4-1.8.9-2,1.5s1.3,2.4,3.1,3.1c4.8,1.9,10.6,2.3,16.1,2.6s12.2.6,17.5-.7c2.1-.5,4.2-1.4,4.1-2.7s-2.9-2.8-5.5-3.4C404.8,588.3,390.6,586.8,381.7,590.6Z"/><path class="cls-46" d="M426.4,591a20.3,20.3,0,0,1,11.7.9c.5.2,1.1.4,1.3.8s-.1,1.1-.9,1.4a9.2,9.2,0,0,1-2.9.3l-4.4-.4a6.3,6.3,0,0,1-3.5-1.1c-.9-.6-.9-1.6.3-1.9Z"/><path class="cls-46" d="M606.2,563.5a77.5,77.5,0,0,0-16,.5,4,4,0,0,0-1.3.4c-.6.5.6,1.3,1.7,1.7a68.4,68.4,0,0,0,32.4,2.6c2.1-.3,4.5-1.2,3.9-2.5s-1.9-1.3-3.3-1.6a78.8,78.8,0,0,0-14.7-1.5Z"/><path class="cls-46" d="M570.7,562.5a41.1,41.1,0,0,1,7,.4c1.6.3,3.5.8,3.6,1.8s-1.3,1.4-2.7,1.4a18.7,18.7,0,0,1-4-.7l-2.7-.8a3.4,3.4,0,0,1-1.5-.6c-.4-.4-.3-.9.3-1Z"/><path class="cls-46" d="M461.8,502.1c5.1-.1,10.5-.3,14.3-2.1,8.6-3.9-11.2-7.1-15.4-7.5a55.7,55.7,0,0,0-18.3.7c-4.8,1-20,3.1-12.4,6.8S453.8,502.2,461.8,502.1Z"/><path class="cls-46" d="M431.4,504.9a24.9,24.9,0,0,1,12.7,1,23.3,23.3,0,0,1-12.6.4c-1-.2-2.1-1.1-1.2-1.3Z"/><path class="cls-46" d="M76.2,531.9c-1.2.3-2.6.7-2.8,1.5s3.1,2.2,5.6,2.4a650.1,650.1,0,0,0,72.5.5c3.5-.2,7.6-.7,8.5-2.6s-4.2-4.5-8.5-5.5c-13.1-2.9-29.6-5.2-43-4C97.2,525.2,86.3,529.1,76.2,531.9Z"/><path class="cls-46" d="M171,525.7a54.7,54.7,0,0,1,13.4.9c1.4.2,3,.9,2.4,1.6s-.7.4-1.2.5a26.3,26.3,0,0,1-13.9-1.1Z"/><path class="cls-46" d="M8.5,500.6a277.9,277.9,0,0,0-37.2,4.8c-4,.8-8.2,1.8-10,3.9,3.4,1.5,7.9,1.7,12,1.8,21.2.5,42.5,1,63.2-.4,6.1-.4,12.8-1.3,15.9-4.2.4-.4.8-.9.5-1.4a2.8,2.8,0,0,0-1.5-1c-4.3-1.9-9.4-2.8-14.5-3.5a145.4,145.4,0,0,0-41.7.4Z"/><path class="cls-46" d="M57.1,497.7a39,39,0,0,1,17.6,1.4c-4.6,1.8-11.5,1.7-16.5-.3Z"/><path class="cls-46" d="M852.8,480.3c-2.6.8-5.4,1.8-5.9,3.5s5.4,5,10.4,6a287.8,287.8,0,0,0,45.5,4.9,271.3,271.3,0,0,0,49.7-2.7c4.8-.8,9.8-1.7,12.3-4.1,14.6-13.9-17-23.3-36-22.7C902,466,875.6,473.6,852.8,480.3Z"/><path class="cls-46" d="M895.2,453.9a88,88,0,0,1,35.4.3c2.9.7,6.2,1.7,6.8,3.4s-3.1,3.8-6.6,4.4c-12.2,2.1-27,.1-37.2-5.1Z"/><path class="cls-46" d="M859.7,431.1a115.8,115.8,0,0,0-39.6,4c-2.7.7-5.6,2.2-4.3,3.9s2.6,1.5,4.3,1.9a205.5,205.5,0,0,0,50.8,5.5c8.9-.2,18.6-1.2,23.4-5.3,1-.8,1.7-1.8,1.3-2.9a6.5,6.5,0,0,0-2.9-2.4c-8.1-4.1-18.8-6.1-29.2-6.5s-20.6.4-30.6,1.4Z"/><path class="cls-46" d="M861.4,516.4a144.3,144.3,0,0,0-40.1,1.7c-2.5.5-5.5,1.5-4.9,3s2.5,1.9,4.4,2.4c20.4,5.5,43.9,6.4,63.9,2.4,2.1-.4,4.5-1.1,5-2.4s-4.2-3.8-8.1-4.4a171.3,171.3,0,0,0-30.3-1.8Z"/></g><polygon class="cls-47" points="2154.7 323.1 2154.7 445.6 606.9 431.1 315.6 445.6 -18.9 430.6 -18.9 385.1 947.9 361.3 2154.7 323.1"/><polygon class="cls-48" points="2154.7 261 1094.4 328.7 699.3 350.7 -18.9 375.2 -18.9 385.1 838.3 372.2 774.4 413.9 1551.5 358.6 2154.7 323.1 2154.7 261"/><polygon class="cls-21" points="781.5 412.6 1061.5 401.4 1061.5 435.3 1112.2 438.1 1112.2 395.1 1124.9 391.6 1122.5 430.6 1124.9 430.6 1128.4 403.7 1489.6 371.4 1477 430.7 1523.5 430.6 1538.6 371.4 1535.3 430.7 1546.3 430.6 1561.9 366 1687 375.2 1677.4 430.6 1687 430.7 1700 356.8 1939.8 358.1 1927.2 417.4 1729 430.6 2154.7 430.6 2154.7 323.1 1276.2 376.9 781.5 412.6"/><polygon class="cls-21" points="769.7 430.7 774.4 413.9 838.3 372.2 682.8 374.6 39.5 384.3 -18.9 385.1 -18.9 395.1 83.1 390.4 79.3 429.7 93.1 429.7 99.7 395.1 267.3 395.1 265.5 430.6 329.6 430.7 340.8 386.6 346.7 386.1 340.4 430.6 346.3 430.6 352.9 384.3 634.9 390.4 646.7 431.3 769.7 430.7"/><polygon class="cls-49" points="1123.6 435.9 1130 388.6 1495.7 363.5 1477 439.2 1123.6 435.9"/><polygon class="cls-49" points="858.7 433.4 869.2 407.1 914.6 403 906.3 433.9 858.7 433.4"/><polygon class="cls-49" points="1682.4 441.2 1700 356.8 1819.2 356.8 1802.6 439.2 1682.4 441.2"/><polygon class="cls-50" points="809.4 409.3 1181.1 375.2 1814.5 313.3 1877 278.4 937.8 337.4 368.1 362 473.6 366.5 978.9 340.1 809.4 409.3"/><path class="cls-51" d="M2154.7,430.6H-18.9V465l304.3-3.1L428,446.2l404.2,7.5-62.5,9.4s518.4-2.8,753.8-11l-164.9-6.5h796.1Z"/><g class="cls-52"><path class="cls-46" d="M1257.7,433.4c-3.1-.3-5.9.4-7.6,2a45.7,45.7,0,0,0,23.8,3.4c-3.8-4.5-11.2-5.9-17.3-6.8Z"/><path class="cls-46" d="M1097.3,441.4c-2.5.1-5.5,1-4.6,3.2a6.4,6.4,0,0,0,2.9,3c5.2,3.4,11.3,5.5,17.1,7.2,34.3,10.4,67.6,18.9,102.5,22.4,6.8.7,14.2.7,20-1.2,1.6-.6,3.1-1.3,3.4-2.7s-3.6-5.8-7.2-7.7c-21.8-11.1-50.1-16.5-73.9-19.2C1137.2,444.1,1116.4,440.5,1097.3,441.4Z"/><path class="cls-46" d="M1231.5,467.9a16.2,16.2,0,0,0,6-.7c1.7-.7,2.8-2.2,2.3-3.9s-2.4-3.1-4.2-4.3c-13.3-8.8-45.5-18.9-52.8-6.9S1223.7,467.9,1231.5,467.9Z"/><path class="cls-46" d="M1313.9,400.5c-9.8-1.1-19.5-2.4-29.2-4l5.2,2a168.7,168.7,0,0,0,21.7,5.6A24.8,24.8,0,0,1,1313.9,400.5Z"/><path class="cls-46" d="M1104.7,390.9c4.3,1.6,9.4,2.7,12.6-.3a4.8,4.8,0,0,0,1.4-2.5c1.2-7.3-11.5-10.3-15.6-10.3s-13.1,1-17,4.4C1091.6,386.2,1098.5,388.8,1104.7,390.9Z"/><path class="cls-46" d="M1090.8,360c1.7.9,3.7,2.8,3.2,4.7s-1.9,1.9-3.3,2a31,31,0,0,1-17.8-6,9.7,9.7,0,0,1-2.8-4C1076.4,354.7,1084.4,356.5,1090.8,360Z"/><path class="cls-46" d="M1109.1,474.2c3.9,2.4,8.5,6.1,7.6,9-.4,1.3-1.8,2-3.3,2.5-6.3,2.1-14.7,1-22.8-.7a176,176,0,0,1-27.7-8.4c-8.1-3.1-16.3-7-23.2-12.4-19.6-15.4,11.1-11.5,19.8-9.6A167.7,167.7,0,0,1,1109.1,474.2Z"/><path class="cls-46" d="M1105.2,488.2a12.6,12.6,0,0,0-9,.3,1.7,1.7,0,0,0-1.1.9c-.6,1.2.8,2.7,2,3.4a25.5,25.5,0,0,0,15.4,4,3,3,0,0,0,3-1.6c.5-1.6-.9-3.4-2.4-4.4a12.3,12.3,0,0,0-8.8-2A2.8,2.8,0,0,0,1105.2,488.2Z"/><path class="cls-46" d="M929.9,388.4c-.5,2.5,1.9,4.7,4,6a122.9,122.9,0,0,0,35.4,15.4c5.5,1.4,11.2,2.4,16.7,2a2.8,2.8,0,0,0,2.4-1c1-1.7-.9-4.2-2.6-5.4-9.7-7.5-20.3-11.3-30.7-16.3C950.1,386.7,931.4,380.3,929.9,388.4Z"/><path class="cls-46" d="M1142.3,440.6a3.4,3.4,0,0,0-.9,1.8c-.3,1.9,1.8,3.4,3.6,4.2a129.5,129.5,0,0,0,31.6,9.7c3.9.7,7.8,1.2,11.5.5,13-2.2-8.6-18.1-14.3-19.3C1165.2,435.6,1148.6,434.1,1142.3,440.6Z"/><path class="cls-46" d="M1132.2,435.2a5.2,5.2,0,0,0-5.6,1,38.6,38.6,0,0,0,18.8,5.8,1.4,1.4,0,0,0,1.3-.3c.6-.8-.3-2.2-1.2-2.8a18.8,18.8,0,0,0-14.1-4.1Z"/><path class="cls-46" d="M1153.6,475.2a3.5,3.5,0,0,0-1.9,1.9c-.6,1.6.5,3.6,1.7,4.9,3.3,3.5,7.6,5.2,11.8,6.5s9.4,2.8,13.9,1.7c1.7-.4,3.5-1.3,3.8-3.3s-1.7-4.4-3.6-5.8C1171.9,475.6,1161.3,471.1,1153.6,475.2Z"/><path class="cls-46" d="M1188.2,482.9a9.8,9.8,0,0,1,8.9,3,3.5,3.5,0,0,1,.8,1.3,1.8,1.8,0,0,1-1,2,3.6,3.6,0,0,1-2.3,0l-3.3-1.2a4.8,4.8,0,0,1-2.6-2.1c-.5-1-.3-2.6.7-2.8Z"/><path class="cls-46" d="M946.4,324.3a2.6,2.6,0,0,0-2.5,1.5c-.7,1.9,1.4,3.8,3.1,4.7a216.6,216.6,0,0,0,50.8,19.3c2.5.6,5.6.8,6.8-1.7s-1.5-7.4-4.3-9.8c-8.3-7.2-19.1-14.6-28.9-16.4C963.2,320.5,954.3,323.2,946.4,324.3Z"/><path class="cls-46" d="M1014.9,339.3a23.6,23.6,0,0,1,9.2,4.4c.9.7,1.9,2,1.2,2.9a1.2,1.2,0,0,1-1,.4,11.8,11.8,0,0,1-9.5-4.7C1014.8,341.1,1014.8,340.5,1014.9,339.3Z"/></g><path class="cls-53" d="M1891.1,446l74.8-428,15-176.5,24.9-60.7-6.2-93.9h5.5l8.6,92.5,55.4-92.5h20.3l-67.1,114.8L2005.1-153V438.1h-34.4l-13.3-5.4-21,13.3S1913.1,454.6,1891.1,446Z"/><polygon class="cls-54" points="2005.1 438.1 2005.4 328.3 1998 333.9 1991.7 351.9 1988.2 354.6 1980.8 395 1977.7 397.9 1977.7 367.2 1975 369 1968.8 409 1968.8 416.4 1966 409.8 1964.4 400.7 1964.4 390.1 1958.2 391.2 1958.2 415.5 1953.9 416.4 1953.9 405 1950.9 405 1948.1 429 1941.3 430.4 1948.1 409 1952.5 376.9 1941.3 380.4 1936.4 409.8 1929.3 409.8 1936.4 384.2 1925.4 406.4 1929.6 387.4 1919 385.7 1911.2 397.9 1906.7 397.9 1909.4 361.6 1906.7 357.2 1891.1 446 1902.3 447.4 1936.4 446 1957.4 432.7 1970.7 438.1 2005.1 438.1"/><polygon class="cls-31" points="1891.1 446 1927.5 387.6 1942.2 316.3 1948.1 229.9 1990.2 168.9 2005.1 81.4 2005.1 164.4 1998.4 183.2 1977.7 252.3 1963.3 316.3 1948.1 360.5 1921.1 415.1 1902.3 447.4 1891.1 446"/><polygon class="cls-31" points="1936.4 446 1948.1 409 1953.9 367.2 1971.5 319 1964.4 400.7 1970.7 438.1 1957.4 432.7 1936.4 446"/><polygon class="cls-31" points="1911.2 330.6 1936.4 236.7 1963.3 170.7 1990.2 53.2 2005.1 -6.2 1998.4 8.2 1981.2 65.7 1968.7 106.2 1948.1 121.9 1941.4 158 1953.3 131.4 1961.8 129.2 1954.5 164.5 1928.4 232.5 1911.2 330.6"/><polygon class="cls-31" points="1959.9 52.7 1973 32.1 1984.7 -12.7 1998.8 -65.3 1998.8 -104.6 2005.1 -153 1996.1 -115.9 1990.2 -97.5 1994.1 -62.4 1986.7 -33.2 1973 0.4 1967.1 4.4 1965.9 18 1959.9 52.7"/><polygon class="cls-25" points="1948.1 229.9 1944.1 217.6 1963.3 170.7 1986.8 68.3 2005.4 -0.3 2005.1 81.4 1990.2 168.9 1948.1 229.9"/><polygon class="cls-25" points="1924.1 409 1951.1 387.6 1953.9 367.2 1971.5 319 1977.7 252.3 1963.3 316.3 1948.1 360.5 1924.1 409"/><polygon class="cls-25" points="1948.1 121.9 1968.7 106.2 1993.1 26 2001.3 -19 2001.3 -50.2 1994.9 -50.7 1973 32.1 1960.6 48.3 1948.1 121.9"/><polygon class="cls-25" points="1964.4 400.7 1971.5 319 1990.2 252.3 2001.3 220.5 2001.3 324.5 1982.9 376.9 1971.5 405 1964.4 400.7"/><polygon class="cls-31" points="2005.1 81.4 2005.1 126.6 1993.7 179.7 1962.1 242.9 1950.9 313.4 1935.1 376.9 1924.1 397.9 1898 447.4 1891.1 446 1927.5 387.6 1942.2 316.3 1948.1 229.9 1990.2 168.9 2005.1 81.4"/><polygon class="cls-55" points="2012.7 438.9 2074.9 82.9 2134.8 23 2162.4 -271.9 2162.4 83.5 2141.7 114.2 2144.8 435.8 2087.6 438.9 2059.9 433.1 2044.4 438.9 2012.7 438.9"/><polygon class="cls-56" points="2144.8 435.8 2144 343.4 2137 358.9 2123.2 389.5 2113.3 385.6 2113.3 365.3 2087.6 406.5 2074.6 374.6 2079.2 350.6 2067 371.4 2056.5 375.4 2052.4 371.8 2049.7 394.4 2027.3 412.1 2031.1 369 2024.1 373.6 2012.7 438.9 2044.4 438.9 2059.9 433.1 2087.6 438.9 2144.8 435.8"/><polygon class="cls-31" points="2044.4 438.9 2053.8 360.5 2087.6 289.6 2111 208.4 2141.7 114.2 2141.7 132 2118.7 199.6 2113.7 257.6 2089.7 296 2074.6 374.6 2087.6 438.9 2059.9 433.1 2044.4 438.9"/><polygon class="cls-31" points="2020 397 2050.1 320.7 2069.7 252.8 2093 188.8 2074.6 227.4 2056.5 269.5 2037.2 298.7 2020 397"/><polygon class="cls-31" points="2104.4 435.6 2119.8 397 2144 343.4 2144 375.4 2128.5 417.4 2129.5 436.7 2104.4 435.6"/><polygon class="cls-31" points="2074.9 82.9 2074.9 108.1 2124.2 95.5 2162.4 65 2162.4 40.3 2151.8 68.2 2131.1 83.5 2083.5 94.1 2076.8 81 2074.9 82.9"/><polygon class="cls-25" points="2074.6 374.6 2087.6 406.5 2124.2 350.6 2134.8 279 2124.2 243.8 2113.7 257.6 2089.7 296 2074.6 374.6"/><polygon class="cls-25" points="2032 366.5 2053.8 360.5 2087.6 289.6 2104.4 208.4 2104.4 164.6 2093 188.8 2050.1 320.7 2032 366.5"/><polygon class="cls-25" points="2056.5 269.5 2052.4 236 2056.5 180 2074.9 82.9 2074.9 108.1 2074.6 160.4 2082.4 194.2 2056.5 269.5"/><polygon class="cls-25" points="2074.9 82.9 2083.5 94.1 2131.1 83.5 2151.8 68.2 2162.4 34.5 2148.6 23 2134.8 23 2074.9 82.9"/><polygon class="cls-25" points="2124.2 95.5 2110.6 119.2 2104.4 164.6 2130.2 126.6 2148.6 103.2 2162.4 65 2124.2 95.5"/><polygon class="cls-31" points="2059.9 433.1 2068.2 366.5 2089.7 296 2087.6 289.6 2053.8 360.5 2044.4 438.9 2059.9 433.1"/><path class="cls-57" d="M2171.9,791.3V-329.6H-1.5c-11.6,0-23.2-.4-34.7-1.2V791.3Z"/><path class="cls-58" d="M1093.1,418.2a4.6,4.6,0,0,1-6.1,2.3,4.6,4.6,0,1,1,6.1-2.3Z"/><path class="cls-59" d="M1074.6,311.1a4.5,4.5,0,0,1-6.4-.1,4.6,4.6,0,1,1,6.4.1Z"/><path class="cls-60" d="M959.5,438.2a4.6,4.6,0,1,1,.1-6.5A4.6,4.6,0,0,1,959.5,438.2Z"/><path class="cls-61" d="M1024.1,341.1a1.6,1.6,0,1,1,0-2.3A1.5,1.5,0,0,1,1024.1,341.1Z"/><path class="cls-62" d="M1110.1,262.4a2.1,2.1,0,1,1,0-3A2.2,2.2,0,0,1,1110.1,262.4Z"/><path class="cls-63" d="M1060.8,306.6a2.2,2.2,0,0,1-3,0,2.1,2.1,0,0,1,.1-3,2.2,2.2,0,0,1,3,0A2.1,2.1,0,0,1,1060.8,306.6Z"/><path class="cls-64" d="M943.6,416.6a2.2,2.2,0,0,1-3-3.1,2.1,2.1,0,0,1,3,.1A2.2,2.2,0,0,1,943.6,416.6Z"/><path class="cls-65" d="M1073.5,439.3a2.1,2.1,0,0,1-2.8,1,2.1,2.1,0,0,1-1.1-2.8,2.2,2.2,0,0,1,2.8-1A2.1,2.1,0,0,1,1073.5,439.3Z"/><path class="cls-66" d="M1179.2,242.4a2.1,2.1,0,0,1-3-.1,2.1,2.1,0,0,1,0-2.9,2.1,2.1,0,0,1,3,0A2.2,2.2,0,0,1,1179.2,242.4Z"/><path class="cls-67" d="M1053.3,437.8a2.1,2.1,0,1,1-3.8-1.7,2.1,2.1,0,0,1,2.8-1.1A2.1,2.1,0,0,1,1053.3,437.8Z"/><path class="cls-68" d="M1125.2,256.3a15.1,15.1,0,1,1,.5-21.4A15.2,15.2,0,0,1,1125.2,256.3Z"/><path class="cls-69" d="M997.5,327.4a9.8,9.8,0,1,1,.3-13.8A9.8,9.8,0,0,1,997.5,327.4Z"/><path class="cls-70" d="M1032.7,303.8a5.1,5.1,0,1,1-7.1-7.3,5.1,5.1,0,0,1,7.1,7.3Z"/><path class="cls-71" d="M1050.3,553.7a4.5,4.5,0,1,1-8.3-3.7,4.5,4.5,0,0,1,8.3,3.7Z"/><path class="cls-72" d="M1170.1,456.4a4.6,4.6,0,1,1-2.3-6.1A4.6,4.6,0,0,1,1170.1,456.4Z"/><path class="cls-73" d="M858.2,544.3a4.6,4.6,0,0,1-8.4-3.8,4.6,4.6,0,0,1,8.4,3.8Z"/><path class="cls-74" d="M837.7,579.3a7.4,7.4,0,1,1-3.7-9.7A7.3,7.3,0,0,1,837.7,579.3Z"/><path class="cls-75" d="M1014.6,600.5a1.6,1.6,0,0,1-2.2.8,1.7,1.7,0,0,1,1.4-3A1.6,1.6,0,0,1,1014.6,600.5Z"/><path class="cls-76" d="M1035.8,554.7a2.1,2.1,0,0,1-2.8,1.1,2.1,2.1,0,0,1-1-2.8,2.1,2.1,0,1,1,3.8,1.7Z"/><path class="cls-77" d="M984.8,597.7a9.7,9.7,0,1,1-4.8-12.9A9.8,9.8,0,0,1,984.8,597.7Z"/><path class="cls-78" d="M1008.7,562.7a5.2,5.2,0,0,1-6.8,2.5,5.1,5.1,0,0,1,4.2-9.3A5.2,5.2,0,0,1,1008.7,562.7Z"/><circle class="cls-79" cx="1811.9" cy="361.2" r="24.6" transform="matrix(0.07, -1, 1, 0.07, 1317.73, 2141.44)"/><path class="cls-80" d="M1654.2,552a8.8,8.8,0,1,1-4.4-11.7A8.7,8.7,0,0,1,1654.2,552Z"/><path class="cls-81" d="M1768.9,515.9a44.8,44.8,0,1,1-22.3-59.2A44.8,44.8,0,0,1,1768.9,515.9Z"/><path class="cls-82" d="M1767.9,306.9a11.4,11.4,0,1,1-5.6-15A11.3,11.3,0,0,1,1767.9,306.9Z"/><circle class="cls-83" cx="1598.1" cy="579.2" r="52.2" transform="translate(883.2 2121.4) rotate(-85.1)"/><path class="cls-84" d="M1622.3,349.4a27.4,27.4,0,1,1-13.6-36.3A27.3,27.3,0,0,1,1622.3,349.4Z"/><path class="cls-85" d="M1056.7,466.1a5.1,5.1,0,0,1-6.7,2.5,5.1,5.1,0,1,1,6.7-2.5Z"/><path class="cls-86" d="M887.4,446.8a5.1,5.1,0,1,1-7.1-7.4,5,5,0,0,1,7.2.2A5.1,5.1,0,0,1,887.4,446.8Z"/></g><path class="cls-87" d="M7.9,78.8s-53.8,6.4-74.1-3.9h0s-12.4-18.7-8.9-28c.5-1.3,2.6-2.5,5.7-3.6h.1c11.7-4.2,37.6-6.9,46-5.3,3.7.7,8.5,5.7,13.2,11.9C-1,62,7.9,78.8,7.9,78.8Z"/><path class="cls-88" d="M7.9,78.8s-53.8,6.4-74.1-3.9c1.1.3,26.2,6.3,29.6,0L-47.5,61.8s15-.1,37.4-11.9C-1,62,7.9,78.8,7.9,78.8Z"/></g><g id="Layer_3" data-name="Layer 3"><rect class="cls-89" x="-32.8" y="-25.7" width="2223.4" height="713.74"/></g></g></svg>