<svg xmlns="http://www.w3.org/2000/svg" xmlns:xlink="http://www.w3.org/1999/xlink" viewBox="0 0 1903 2896.5"><defs><style>.a753dfd0-c2e4-4372-9a9c-7f41ebdbf811,.e8c8fdf8-805e-4a02-ad3f-38962e9c9950{fill:none;}.e8c8fdf8-805e-4a02-ad3f-38962e9c9950{stroke:#cc7645;stroke-miterlimit:10;stroke-width:0.5px;}.e40def68-462b-42e6-a1d3-fa830eaf1069{isolation:isolate;}.a02c3534-91ab-41e1-bc13-42339d518c5e,.a6361e42-c031-43fa-b6ab-42eef702727d,.a8e1f3cb-20ae-46ef-bf9e-59579312bd65,.b1763501-40a2-4479-ac01-ef85b336f177,.b5a0a701-d0cd-4dfb-a8bd-f33a4ceb72d3,.bd662419-1f1f-4eec-b5a2-8d7c7ad5232f,.bf6c2e28-1d21-4be6-a9ee-389e084f3455,.f1407954-4311-4e29-84c3-cae11cb6c63b,.f192fe75-3ba2-468b-a4ef-5b5c9389e4ec{fill-rule:evenodd;}.b1763501-40a2-4479-ac01-ef85b336f177{fill:url(#e9669fc4-7d05-46e4-810b-31d041f19635);}.a6361e42-c031-43fa-b6ab-42eef702727d,.a8e1f3cb-20ae-46ef-bf9e-59579312bd65,.adbffcf1-8cc4-4578-b008-665497fcec5e{mix-blend-mode:multiply;}.a8e1f3cb-20ae-46ef-bf9e-59579312bd65{fill:url(#bc8e7291-26cc-44ad-9019-b318cc727adc);}.a6361e42-c031-43fa-b6ab-42eef702727d{fill:url(#b1cb00c5-d485-48ed-8611-08948fecaec4);}.bd662419-1f1f-4eec-b5a2-8d7c7ad5232f{fill:url(#b5bde35c-0ce7-4e8b-b2a0-7bdb9002e8db);}.b5a0a701-d0cd-4dfb-a8bd-f33a4ceb72d3{fill:url(#a0674404-2dee-4e2e-8eb8-936c1c9c0b80);}.a02c3534-91ab-41e1-bc13-42339d518c5e,.bf6c2e28-1d21-4be6-a9ee-389e084f3455,.f1407954-4311-4e29-84c3-cae11cb6c63b,.f192fe75-3ba2-468b-a4ef-5b5c9389e4ec{mix-blend-mode:screen;}.f1407954-4311-4e29-84c3-cae11cb6c63b{fill:url(#ebd79c35-23d5-4d4c-8a5b-815e39b37d27);}.f192fe75-3ba2-468b-a4ef-5b5c9389e4ec{fill:url(#b0df1e9f-d7d2-438d-8216-032cbff6dc3b);}.a02c3534-91ab-41e1-bc13-42339d518c5e,.bf6c2e28-1d21-4be6-a9ee-389e084f3455{opacity:0.5;}.bf6c2e28-1d21-4be6-a9ee-389e084f3455{fill:url(#ac580cc8-8c9d-4a89-82a4-e30e5320a58e);}.a02c3534-91ab-41e1-bc13-42339d518c5e{fill:url(#afc823c6-dac8-4233-a7d8-d288845e9a44);}.e0d0953e-f0a0-4e83-9f08-0c94c759f02e{fill:#a34925;}.adbffcf1-8cc4-4578-b008-665497fcec5e{opacity:0.2;fill:url(#e64b56ba-abc2-4ee6-922d-a53e630821be);}.bf4f352e-3c9a-4565-82b7-c7d53fc09184{opacity:0.68;}.f972ed6f-1de9-40a6-ad34-da8ffb5f7d4a{fill:#8e5638;}</style><linearGradient id="e9669fc4-7d05-46e4-810b-31d041f19635" x1="958.67" y1="3243.91" x2="958.67" y2="-228.52" gradientUnits="userSpaceOnUse"><stop offset="0" stop-color="#edd6b9"/><stop offset="1" stop-color="#d4b492"/></linearGradient><radialGradient id="bc8e7291-26cc-44ad-9019-b318cc727adc" cx="536.57" cy="2122.57" r="19.85" gradientTransform="translate(-8023.2 -74377.3) scale(14.96 36.59)" gradientUnits="userSpaceOnUse"><stop offset="0" stop-color="#a48a7b"/><stop offset="1" stop-color="#fff"/></radialGradient><radialGradient id="b1cb00c5-d485-48ed-8611-08948fecaec4" cx="666.91" cy="2031.41" r="8.79" xlink:href="#bc8e7291-26cc-44ad-9019-b318cc727adc"/><linearGradient id="b5bde35c-0ce7-4e8b-b2a0-7bdb9002e8db" x1="14.26" y1="3154.83" x2="132.87" y2="2875.39" gradientUnits="userSpaceOnUse"><stop offset="0" stop-color="#bf9f7e"/><stop offset="1" stop-color="#edd6b9"/></linearGradient><linearGradient id="a0674404-2dee-4e2e-8eb8-936c1c9c0b80" x1="1995.73" y1="-102.79" x2="1862.39" y2="30.54" xlink:href="#b5bde35c-0ce7-4e8b-b2a0-7bdb9002e8db"/><radialGradient id="ebd79c35-23d5-4d4c-8a5b-815e39b37d27" cx="538.19" cy="2121.08" r="16.23" gradientTransform="translate(-8023.2 -74377.3) scale(14.96 36.59)" gradientUnits="userSpaceOnUse"><stop offset="0"/><stop offset="1" stop-color="#a3805f"/></radialGradient><radialGradient id="b0df1e9f-d7d2-438d-8216-032cbff6dc3b" cx="667.87" cy="2028.79" r="10.56" xlink:href="#ebd79c35-23d5-4d4c-8a5b-815e39b37d27"/><radialGradient id="ac580cc8-8c9d-4a89-82a4-e30e5320a58e" cx="600.26" cy="2074.41" r="101.22" gradientTransform="translate(-8023.2 -74377.3) scale(14.96 36.59)" gradientUnits="userSpaceOnUse"><stop offset="0" stop-color="#ca9e67"/><stop offset="1"/></radialGradient><radialGradient id="afc823c6-dac8-4233-a7d8-d288845e9a44" cx="599.46" cy="2075.01" r="54.5" xlink:href="#ac580cc8-8c9d-4a89-82a4-e30e5320a58e"/><pattern id="e64b56ba-abc2-4ee6-922d-a53e630821be" data-name="New Pattern 4" width="225.1" height="198.05" patternTransform="translate(-4998.3 -8317.3) scale(9.12 13.06)" patternUnits="userSpaceOnUse" viewBox="0 0 225.1 198.1"><rect class="a753dfd0-c2e4-4372-9a9c-7f41ebdbf811" width="225.1" height="198.05"/><path class="e8c8fdf8-805e-4a02-ad3f-38962e9c9950" d="M275.9,200.1c-5.4-.8-10.9-1-16.3-1.6s-9.6-.3-14.5-.7c-2.8-.3-5.6-1.2-8.4-1.3h-4.1a81.3,81.3,0,0,0-13.9,1c-3.6.7-9.6,2.4-9.8,6.9-.4,6.4,9.2,9.5,13.9,10.4,7,1.3,14.4.3,21.5-.2s14.5-1.3,21.7-2.4a91.2,91.2,0,0,0,10.4-2.1c2.5-.7,5.6-1.5,7.5-3.5C288.1,202.2,278.4,200.4,275.9,200.1Z"/><path class="e8c8fdf8-805e-4a02-ad3f-38962e9c9950" d="M0,184.3c11.2,0,31.9,4.1,37.1,4.8,9.7,1.5,19.8,1.4,29.7,1.1s16.8-2.9,25.1-4.6c12.5-2.5,27.6-15.9,59.8-18.5"/><path class="e8c8fdf8-805e-4a02-ad3f-38962e9c9950" d="M174.6,182.8c-1.1-1.6-3.8-2.1-5.5-2.2s-8.8-1-11.7-1.1h-5.9c-3.3,0-6.5.7-9.9.9-5.5.3-10.8.8-16.3,1.4s-10.5,1.2-15.3,4.6c-1.9,1.3-1.5,2.3-1.7,4.4s-.5,1.6-.2,2.3,4.3,1.6,5.7,1.7a60.3,60.3,0,0,0,16.4-.5c7-1.2,14.1-1.4,21.1-2.4,4.9-.7,9.5-2.6,14.3-3.4,2.1-.3,4.3-.1,6.1-1.1s3.6-1.4,3.8-2.3A10.2,10.2,0,0,0,174.6,182.8Z"/><path class="e8c8fdf8-805e-4a02-ad3f-38962e9c9950" d="M0,192.2c16.1,0,17.9,1,21.1.9s5.3-.1,7.9-.1,5.4.9,8.1,1,6.7.7,10.1.8c8.4.4,16.7,1.4,25.1,2s17.3,2.9,26.1,3.2,14.8.1,22.2.3a152.5,152.5,0,0,0,24.3-1.5c8.7-1.1,17.6-2.2,26-4.5,2.6-.7,4.9-2.3,7.5-3.2s3.9-1.2,5.9-2c4.5-1.8,23.3-4.8,40.8-4.8"/><path class="e8c8fdf8-805e-4a02-ad3f-38962e9c9950" d="M39.1,216.6c14.1-1.5,46.4-4.9,56.7-6.4,5.5-.8,11.3-2.5,16.9-2.6s13.4.1,20.2-.2,15.9,1,23.9-.7c2-.5,3.7-1.6,5.7-2s6-.1,9-.3l6.9-1.2c4.3-.7,20.9-10.9,46.7-10.9"/><path class="e8c8fdf8-805e-4a02-ad3f-38962e9c9950" d="M50.8,200.1c-5.4-.8-10.9-1-16.3-1.6s-9.7-.3-14.5-.7c-2.8-.3-5.6-1.2-8.5-1.3h-4c-4.6.1-9.4.1-13.9,1s-9.6,2.4-9.9,6.9c-.4,6.4,9.3,9.5,14,10.4,7,1.3,14.4.3,21.4-.2s14.6-1.3,21.8-2.4A85.4,85.4,0,0,0,51.2,210c2.6-.7,5.7-1.5,7.6-3.5C62.9,202.2,53.2,200.4,50.8,200.1Z"/><path class="e8c8fdf8-805e-4a02-ad3f-38962e9c9950" d="M122.5,188.7a3.2,3.2,0,0,0,2.2,1.5,9.4,9.4,0,0,0,2.9.1h4.6c5.4-.8,11-.8,16.3-2.4.8-.2,3.3-.9,2.1-1.7s-6.5-1.6-9.4-1.7a45.3,45.3,0,0,0-12.2.7,11.8,11.8,0,0,0-2.8,1.2c-.8.4-1.6.4-2.4.8S122.1,187.9,122.5,188.7Z"/><path class="e8c8fdf8-805e-4a02-ad3f-38962e9c9950" d="M112.6,134.8c11.2,0,31.9,4.1,37,4.8,9.8,1.4,19.9,1.3,29.8,1.1s16.8-2.9,25.1-4.6c12.4-2.6,27.6-15.9,59.8-18.6"/><path class="e8c8fdf8-805e-4a02-ad3f-38962e9c9950" d="M287.2,133.3c-1.1-1.6-3.8-2.1-5.5-2.2-3.3,0-8.8-1-11.8-1.1h-5.8c-3.3,0-6.6.6-9.9.8-5.5.4-10.9.9-16.4,1.5s-10.5,1.2-15.3,4.6c-1.9,1.3-1.5,2.3-1.6,4.3s-.5,1.7-.2,2.3,4.2,1.6,5.6,1.8a60,60,0,0,0,16.4-.5c7-1.2,14.1-1.4,21.2-2.4,4.9-.8,9.4-2.6,14.3-3.4,2.1-.3,4.2-.2,6.1-1.2s3.5-1.3,3.7-2.2A9.7,9.7,0,0,0,287.2,133.3Z"/><path class="e8c8fdf8-805e-4a02-ad3f-38962e9c9950" d="M112.6,142.7c16.1,0,17.8,1,21.1.8h7.9c2.8-.1,5.3.9,8,1s6.8.7,10.2.8c8.4.4,16.7,1.3,25.1,2s17.3,2.9,26.1,3.2,14.8.1,22.1.3a151.1,151.1,0,0,0,24.3-1.5c8.7-1.1,17.6-2.2,26.1-4.5,2.6-.7,4.9-2.3,7.4-3.2s4-1.3,5.9-2c4.5-1.9,23.3-4.8,40.9-4.8"/><path class="e8c8fdf8-805e-4a02-ad3f-38962e9c9950" d="M151.6,167.1c14.1-1.5,46.5-5,56.7-6.4,5.6-.8,11.4-2.5,16.9-2.6s13.5.1,20.2-.2,15.9,1,23.9-.8c2.1-.4,3.8-1.5,5.8-1.9s6-.1,9-.4,4.6-.8,6.9-1.1c4.3-.7,20.9-10.9,46.7-10.9"/><path class="e8c8fdf8-805e-4a02-ad3f-38962e9c9950" d="M315.4,164.7c-18.1-7.2-37.3-3.8-56-2.3-9.7.8-19.5.9-29.2,1.2-6.1.1-16.8.7-21.8,3.1s-7,6.4-1.1,8.4c3.9,1.3,8.3,1.5,12.3,1.9l16.4.9a163.3,163.3,0,0,1,26.2,3.4c9.3,2,18.5,3.4,28,3.2a90.1,90.1,0,0,0,17.9-2c4.6-.9,9.6-2.2,13.4-5C328.7,172.2,320.8,166.8,315.4,164.7Z"/><path class="e8c8fdf8-805e-4a02-ad3f-38962e9c9950" d="M163.3,150.5c-5.4-.7-10.9-.9-16.3-1.5s-9.6-.4-14.4-.8c-2.9-.2-5.6-1.1-8.5-1.3h-4c-4.7.1-9.4,0-14,1s-9.5,2.4-9.8,6.9c-.4,6.3,9.2,9.5,14,10.4,7,1.3,14.3.3,21.4-.3s14.5-1.3,21.8-2.4a93.5,93.5,0,0,0,10.3-2c2.5-.7,5.7-1.5,7.6-3.5C175.5,152.7,165.8,150.9,163.3,150.5Z"/><path class="e8c8fdf8-805e-4a02-ad3f-38962e9c9950" d="M145.1,156.2a4.6,4.6,0,0,0-2.7-2.6,15.1,15.1,0,0,0-3.7-.6l-4.8-.4h-1.1c-7,.4-14.3-.4-21.2,1.2-1.1.2-4.5.8-2.9,2.2s8.1,3.3,11.8,3.9c5.2.8,10.7,1.4,15.9.7a23.5,23.5,0,0,0,3.7-1.4,17.7,17.7,0,0,1,3.1-.8C144.2,158.1,145.5,157.5,145.1,156.2Z"/><path class="e8c8fdf8-805e-4a02-ad3f-38962e9c9950" d="M-112.6,134.8c11.3,0,32,4.1,37.1,4.8,9.8,1.4,19.9,1.3,29.7,1.1s16.9-2.9,25.2-4.6c12.4-2.6,27.6-15.9,59.8-18.6"/><path class="e8c8fdf8-805e-4a02-ad3f-38962e9c9950" d="M62.1,133.3c-1.1-1.6-3.8-2.1-5.6-2.2s-8.8-1-11.7-1.1H39c-3.4,0-6.6.6-9.9.8-5.5.4-10.9.9-16.4,1.5s-10.5,1.2-15.3,4.6c-1.9,1.3-1.5,2.3-1.7,4.3s-.5,1.7-.1,2.3,4.2,1.6,5.6,1.8a60,60,0,0,0,16.4-.5c7-1.2,14.1-1.4,21.2-2.4,4.9-.8,9.4-2.6,14.3-3.4,2.1-.3,4.2-.2,6.1-1.2s3.5-1.3,3.7-2.2A19.5,19.5,0,0,0,62.1,133.3Z"/><path class="e8c8fdf8-805e-4a02-ad3f-38962e9c9950" d="M-112.6,142.7c16.2,0,17.9,1,21.2.8h7.9c2.7-.1,5.3.9,8,1s6.8.7,10.2.8c8.4.4,16.7,1.3,25.1,2s17.3,2.9,26.1,3.2,14.7.1,22.1.3a151.8,151.8,0,0,0,24.3-1.5c8.7-1.1,17.6-2.2,26.1-4.5,2.6-.7,4.9-2.3,7.4-3.2s4-1.3,5.9-2c4.5-1.9,23.3-4.8,40.9-4.8"/><path class="e8c8fdf8-805e-4a02-ad3f-38962e9c9950" d="M-73.5,167.1c14.1-1.5,46.5-5,56.7-6.4,5.6-.8,11.4-2.5,16.9-2.6s13.5.1,20.2-.2,15.9,1,23.9-.8c2.1-.4,3.7-1.5,5.8-1.9s6-.1,9-.4,4.6-.8,6.9-1.1c4.2-.7,20.9-10.9,46.7-10.9"/><path class="e8c8fdf8-805e-4a02-ad3f-38962e9c9950" d="M90.2,164.7c-18.1-7.2-37.2-3.8-55.9-2.3-9.7.8-19.5.9-29.2,1.2-6.1.1-16.8.7-21.8,3.1s-7,6.4-1.1,8.4c3.9,1.3,8.2,1.5,12.3,1.9l16.4.9a164.8,164.8,0,0,1,26.2,3.4c9.3,2,18.4,3.4,28,3.2a90.1,90.1,0,0,0,17.9-2c4.6-.9,9.5-2.2,13.3-5C103.6,172.2,95.7,166.8,90.2,164.7Z"/><path class="e8c8fdf8-805e-4a02-ad3f-38962e9c9950" d="M85.2,170.2l-1.6-.8a118.6,118.6,0,0,0-22-3.5c-6.8-.3-13.6.4-20.4.9s-13,.4-19.4,1c-1.4.1-4.7,0-5.6,1.2s1,1.9,1.8,2.3c6.2,2.9,13.7,4,20.4,5.1A127,127,0,0,0,56.8,178h15c3.3-.1,6.9-.1,10.1-1,1.7-.6,4.1-1.7,5-3.4S86.4,171,85.2,170.2Z"/><path class="e8c8fdf8-805e-4a02-ad3f-38962e9c9950" d="M74.6,171.9a3.3,3.3,0,0,0-2-1.8,13.5,13.5,0,0,0-2.9-.5l-3.6-.3h-1c-5.4.1-11-.6-16.4.3-.8.2-3.4.5-2.3,1.5s6.2,2.3,9.1,2.8a50.6,50.6,0,0,0,12.3.8,14,14,0,0,0,2.9-.9c.7-.3,1.6-.2,2.4-.5S74.9,172.7,74.6,171.9Z"/><path class="e8c8fdf8-805e-4a02-ad3f-38962e9c9950" d="M9.9,139.2a3.2,3.2,0,0,0,2.3,1.5,8.8,8.8,0,0,0,2.8.1,22.6,22.6,0,0,0,3.7-.1h.9c5.4-.7,11.1-.8,16.3-2.3.8-.3,3.4-.9,2.1-1.7s-6.5-1.6-9.4-1.7a45.5,45.5,0,0,0-12.2.7,9.9,9.9,0,0,0-2.8,1.2l-2.3.7C10.5,137.8,9.6,138.4,9.9,139.2Z"/><path class="e8c8fdf8-805e-4a02-ad3f-38962e9c9950" d="M275.9,101c-5.4-.7-10.9-.9-16.3-1.5s-9.6-.4-14.5-.8c-2.8-.2-5.6-1.1-8.4-1.3h-4.1c-4.6.1-9.3,0-13.9.9s-9.6,2.5-9.8,7c-.4,6.3,9.2,9.5,13.9,10.4,7,1.3,14.4.3,21.5-.3s14.5-1.3,21.7-2.4a90.9,90.9,0,0,0,10.4-2c2.5-.7,5.6-1.6,7.5-3.5C288.1,103.2,278.4,101.4,275.9,101Z"/><path class="e8c8fdf8-805e-4a02-ad3f-38962e9c9950" d="M257.7,106.7c-.3-1.2-1.7-2.1-2.8-2.6a14.3,14.3,0,0,0-3.6-.6l-4.8-.4h-1.2c-7,.4-14.3-.3-21.2,1.3-1,.2-4.4.8-2.9,2.2,3,2.7,8.2,3.3,11.9,3.9s10.7,1.4,15.8.6a15.5,15.5,0,0,0,3.8-1.3,17.7,17.7,0,0,1,3.1-.8C256.8,108.6,258,108,257.7,106.7Z"/><path class="e8c8fdf8-805e-4a02-ad3f-38962e9c9950" d="M0,85.3c11.2,0,31.9,4.1,37.1,4.8,9.7,1.4,19.8,1.3,29.7,1.1s16.8-3,25.1-4.6C104.4,84,119.5,70.7,151.7,68"/><path class="e8c8fdf8-805e-4a02-ad3f-38962e9c9950" d="M174.6,83.8c-1.1-1.6-3.8-2.2-5.5-2.2s-8.8-1-11.7-1.1h-5.9c-3.3,0-6.5.6-9.9.8-5.5.3-10.8.9-16.3,1.5s-10.5,1.2-15.3,4.6c-1.9,1.3-1.5,2.3-1.7,4.3s-.5,1.6-.2,2.3,4.3,1.6,5.7,1.8a64.5,64.5,0,0,0,16.4-.5c7-1.2,14.1-1.4,21.1-2.5,4.9-.7,9.5-2.5,14.3-3.3,2.1-.3,4.3-.2,6.1-1.2s3.6-1.3,3.8-2.2A10.2,10.2,0,0,0,174.6,83.8Z"/><path class="e8c8fdf8-805e-4a02-ad3f-38962e9c9950" d="M0,93.2c16.1,0,17.9,1,21.1.8H29c2.8-.1,5.4.9,8.1,1s6.7.7,10.1.8c8.4.4,16.7,1.3,25.1,1.9s17.3,3,26.1,3.3,14.8.1,22.2.3a165.2,165.2,0,0,0,24.3-1.5c8.7-1.1,17.6-2.2,26-4.5,2.6-.7,4.9-2.3,7.5-3.3s3.9-1.2,5.9-2c4.5-1.8,23.3-4.7,40.8-4.7"/><path class="e8c8fdf8-805e-4a02-ad3f-38962e9c9950" d="M39.1,117.6c14.1-1.6,46.4-5,56.7-6.4,5.5-.8,11.3-2.5,16.9-2.6s13.4.1,20.2-.2,15.9,1,23.9-.8c2-.4,3.7-1.5,5.7-1.9s6-.1,9-.4,4.6-.8,6.9-1.1c4.3-.7,20.9-10.9,46.7-10.9"/><path class="e8c8fdf8-805e-4a02-ad3f-38962e9c9950" d="M202.8,115.2c-18.1-7.2-37.2-3.8-56-2.3-9.7.8-19.4.9-29.2,1.2-6.1.1-16.8.7-21.7,3.1s-7,6.4-1.1,8.4c3.9,1.3,8.2,1.5,12.3,1.8s10.9.7,16.4,1a163.6,163.6,0,0,1,26.1,3.4c9.3,2,18.5,3.4,28,3.2a91.1,91.1,0,0,0,18-2c4.5-.9,9.5-2.2,13.3-5C216.1,122.7,208.2,117.3,202.8,115.2Z"/><path class="e8c8fdf8-805e-4a02-ad3f-38962e9c9950" d="M50.8,101c-5.4-.7-10.9-.9-16.3-1.5s-9.7-.4-14.5-.8c-2.8-.2-5.6-1.1-8.5-1.3h-4c-4.6.1-9.4,0-13.9.9s-9.6,2.5-9.9,7c-.4,6.3,9.3,9.5,14,10.4,7,1.3,14.4.3,21.4-.3s14.6-1.3,21.8-2.4a85.3,85.3,0,0,0,10.3-2c2.6-.7,5.7-1.6,7.6-3.5C62.9,103.2,53.2,101.4,50.8,101Z"/><path class="e8c8fdf8-805e-4a02-ad3f-38962e9c9950" d="M197.8,120.7l-1.6-.8a118.3,118.3,0,0,0-22.1-3.5c-6.8-.3-13.6.4-20.4.8s-12.9.5-19.4,1c-1.3.2-4.6.1-5.6,1.2s1.1,2,1.9,2.4c6.2,2.9,13.7,4,20.4,5.1a125.8,125.8,0,0,0,18.4,1.6h15c3.3,0,6.8,0,10-1s4.1-1.6,5-3.3S199,121.5,197.8,120.7Z"/><path class="e8c8fdf8-805e-4a02-ad3f-38962e9c9950" d="M187.2,122.4c-.2-.8-1.3-1.5-2.1-1.8a12.6,12.6,0,0,0-2.8-.5l-3.7-.4h-.9c-5.4.2-11.1-.5-16.4.4-.9.2-3.5.5-2.3,1.5s6.2,2.3,9.1,2.8,8.2,1.2,12.2.7a9.6,9.6,0,0,0,2.9-.8,22.1,22.1,0,0,1,2.5-.5C186.5,123.6,187.4,123.2,187.2,122.4Z"/><path class="e8c8fdf8-805e-4a02-ad3f-38962e9c9950" d="M122.5,89.7a3.5,3.5,0,0,0,2.2,1.5,14.1,14.1,0,0,0,2.9.1,22.9,22.9,0,0,0,3.7-.1h.9c5.4-.7,11-.8,16.3-2.3.8-.3,3.3-.9,2.1-1.7s-6.5-1.6-9.4-1.7a45.3,45.3,0,0,0-12.2.7,8.8,8.8,0,0,0-2.8,1.2l-2.4.7C123,88.3,122.1,88.8,122.5,89.7Z"/><path class="e8c8fdf8-805e-4a02-ad3f-38962e9c9950" d="M32.6,106.7a5.1,5.1,0,0,0-2.8-2.6,14.3,14.3,0,0,0-3.6-.6l-4.8-.4H20.2c-7,.4-14.3-.3-21.2,1.3-1.1.2-4.4.8-2.9,2.2s8.2,3.3,11.9,3.9,10.7,1.4,15.8.6a14.7,14.7,0,0,0,3.7-1.3,16.7,16.7,0,0,1,3.2-.8C31.7,108.6,32.9,108,32.6,106.7Z"/><path class="e8c8fdf8-805e-4a02-ad3f-38962e9c9950" d="M112.6,35.8c11.2,0,31.9,4.1,37,4.8,9.8,1.4,19.9,1.3,29.8,1.1s16.8-3,25.1-4.7c12.4-2.5,27.6-15.8,59.8-18.5"/><path class="e8c8fdf8-805e-4a02-ad3f-38962e9c9950" d="M287.2,34.2c-1.1-1.5-3.8-2.1-5.5-2.1-3.3-.1-8.8-1-11.8-1.1s-3.9-.2-5.8-.1-6.6.6-9.9.8c-5.5.3-10.9.9-16.4,1.5s-10.5,1.2-15.3,4.5c-1.9,1.4-1.5,2.3-1.6,4.4s-.5,1.6-.2,2.3,4.2,1.6,5.6,1.8a64.3,64.3,0,0,0,16.4-.5c7-1.2,14.1-1.5,21.2-2.5,4.9-.7,9.4-2.5,14.3-3.3,2.1-.4,4.2-.2,6.1-1.2s3.5-1.3,3.7-2.2A10.5,10.5,0,0,0,287.2,34.2Z"/><path class="e8c8fdf8-805e-4a02-ad3f-38962e9c9950" d="M112.6,43.7c16.1,0,17.8,1,21.1.8h7.9c2.8,0,5.3,1,8,1.1s6.8.6,10.2.8c8.4.4,16.7,1.3,25.1,1.9s17.3,3,26.1,3.3,14.8.1,22.1.2a151.1,151.1,0,0,0,24.3-1.4c8.7-1.2,17.6-2.2,26.1-4.5,2.6-.7,4.9-2.3,7.4-3.3s4-1.2,5.9-2c4.5-1.8,23.3-4.7,40.9-4.7"/><path class="e8c8fdf8-805e-4a02-ad3f-38962e9c9950" d="M151.6,68.1c14.1-1.6,46.5-5,56.7-6.4,5.6-.8,11.4-2.5,16.9-2.6s13.5,0,20.2-.2,15.9,1,23.9-.8c2.1-.4,3.8-1.5,5.8-1.9s6-.1,9-.4,4.6-.8,6.9-1.2c4.3-.6,20.9-10.8,46.7-10.8"/><path class="e8c8fdf8-805e-4a02-ad3f-38962e9c9950" d="M315.4,65.6c-18.1-7.2-37.3-3.7-56-2.2-9.7.8-19.5.9-29.2,1.2-6.1.1-16.8.7-21.8,3.1s-7,6.4-1.1,8.4c3.9,1.3,8.3,1.5,12.3,1.8,5.5.5,11,.7,16.4,1a152.7,152.7,0,0,1,26.2,3.4c9.3,2,18.5,3.4,28,3.2a90.1,90.1,0,0,0,17.9-2c4.6-1,9.6-2.2,13.4-5C328.7,73.1,320.8,67.8,315.4,65.6Z"/><path class="e8c8fdf8-805e-4a02-ad3f-38962e9c9950" d="M163.3,51.5c-5.4-.7-10.9-1-16.3-1.5s-9.6-.4-14.4-.8c-2.9-.2-5.6-1.2-8.5-1.3h-4c-4.7.1-9.4,0-14,.9s-9.5,2.5-9.8,7c-.4,6.3,9.2,9.5,14,10.4,7,1.3,14.3.3,21.4-.3s14.5-1.3,21.8-2.4a93.5,93.5,0,0,0,10.3-2c2.5-.7,5.7-1.6,7.6-3.5C175.5,53.7,165.8,51.8,163.3,51.5Z"/><path class="e8c8fdf8-805e-4a02-ad3f-38962e9c9950" d="M145.1,57.2a4.6,4.6,0,0,0-2.7-2.6,15.1,15.1,0,0,0-3.7-.6,37.3,37.3,0,0,0-4.8-.4h-1.1c-7,.4-14.3-.3-21.2,1.3-1.1.2-4.5.8-2.9,2.2s8.1,3.3,11.8,3.9c5.2.8,10.7,1.4,15.9.6a12.8,12.8,0,0,0,3.7-1.4c1-.4,2.1-.4,3.1-.8S145.5,58.4,145.1,57.2Z"/><path class="e8c8fdf8-805e-4a02-ad3f-38962e9c9950" d="M-112.6,35.8c11.3,0,32,4.1,37.1,4.8,9.8,1.4,19.9,1.3,29.7,1.1s16.9-3,25.2-4.7C-8.2,34.5,7,21.2,39.2,18.5"/><path class="e8c8fdf8-805e-4a02-ad3f-38962e9c9950" d="M62.1,34.2c-1.1-1.5-3.8-2.1-5.6-2.1s-8.8-1-11.7-1.1-3.9-.2-5.8-.1-6.6.6-9.9.8c-5.5.3-10.9.9-16.4,1.5S2.2,34.4-2.6,37.7c-1.9,1.4-1.5,2.3-1.7,4.4s-.5,1.6-.1,2.3S-.2,46,1.2,46.2a64.3,64.3,0,0,0,16.4-.5c7-1.2,14.1-1.5,21.2-2.5,4.9-.7,9.4-2.5,14.3-3.3,2.1-.4,4.2-.2,6.1-1.2s3.5-1.3,3.7-2.2A20.9,20.9,0,0,0,62.1,34.2Z"/><path class="e8c8fdf8-805e-4a02-ad3f-38962e9c9950" d="M-112.6,43.7c16.2,0,17.9,1,21.2.8h7.9c2.7,0,5.3,1,8,1.1s6.8.6,10.2.8c8.4.4,16.7,1.3,25.1,1.9s17.3,3,26.1,3.3,14.7.1,22.1.2a151.7,151.7,0,0,0,24.3-1.4c8.7-1.2,17.6-2.2,26.1-4.5,2.6-.7,4.9-2.3,7.4-3.3s4-1.2,5.9-2c4.5-1.8,23.3-4.7,40.9-4.7"/><path class="e8c8fdf8-805e-4a02-ad3f-38962e9c9950" d="M-73.5,68.1c14.1-1.6,46.5-5,56.7-6.4,5.6-.8,11.4-2.5,16.9-2.6s13.5,0,20.2-.2,15.9,1,23.9-.8c2.1-.4,3.7-1.5,5.8-1.9s6-.1,9-.4,4.6-.8,6.9-1.2c4.2-.6,20.9-10.8,46.7-10.8"/><path class="e8c8fdf8-805e-4a02-ad3f-38962e9c9950" d="M90.2,65.6C72.1,58.4,53,61.9,34.3,63.4c-9.7.8-19.5.9-29.2,1.2-6.1.1-16.8.7-21.8,3.1s-7,6.4-1.1,8.4c3.9,1.3,8.2,1.5,12.3,1.8s11,.7,16.4,1a154,154,0,0,1,26.2,3.4c9.3,2,18.4,3.4,28,3.2a90.1,90.1,0,0,0,17.9-2c4.6-1,9.5-2.2,13.3-5C103.6,73.1,95.7,67.8,90.2,65.6Z"/><path class="e8c8fdf8-805e-4a02-ad3f-38962e9c9950" d="M85.2,71.1l-1.6-.7a118.6,118.6,0,0,0-22-3.5c-6.8-.3-13.6.4-20.4.8s-13,.5-19.4,1c-1.4.1-4.7.1-5.6,1.2s1,1.9,1.8,2.3c6.2,3,13.7,4.1,20.4,5.2A142.8,142.8,0,0,0,56.8,79h15c3.3,0,6.9,0,10.1-1,1.7-.5,4.1-1.6,5-3.3S86.4,72,85.2,71.1Z"/><path class="e8c8fdf8-805e-4a02-ad3f-38962e9c9950" d="M74.6,72.9a3,3,0,0,0-2-1.8,9.3,9.3,0,0,0-2.9-.5l-3.6-.4h-1c-5.4.2-11-.5-16.4.4-.8.2-3.4.5-2.3,1.5s6.2,2.3,9.1,2.8a50.6,50.6,0,0,0,12.3.7,13.8,13.8,0,0,0,2.9-.8,16.9,16.9,0,0,1,2.4-.5C73.9,74.1,74.9,73.7,74.6,72.9Z"/><path class="e8c8fdf8-805e-4a02-ad3f-38962e9c9950" d="M9.9,40.1c.3.8,1.4,1.3,2.3,1.6a13.1,13.1,0,0,0,2.8.1h4.6c5.4-.8,11.1-.8,16.3-2.3.8-.3,3.4-.9,2.1-1.7s-6.5-1.6-9.4-1.7a45.5,45.5,0,0,0-12.2.7,9.9,9.9,0,0,0-2.8,1.2l-2.3.7C10.5,38.8,9.6,39.3,9.9,40.1Z"/><path class="e8c8fdf8-805e-4a02-ad3f-38962e9c9950" d="M275.9,2C270.5,1.3,265,1,259.6.4S250,.1,245.1-.3c-2.8-.2-5.6-1.2-8.4-1.3h-4.1c-4.6.1-9.3,0-13.9.9s-9.6,2.5-9.8,7c-.4,6.3,9.2,9.5,13.9,10.4,7,1.3,14.4.3,21.5-.3S258.8,15.1,266,14a90.9,90.9,0,0,0,10.4-2c2.5-.7,5.6-1.6,7.5-3.6C288.1,4.2,278.4,2.3,275.9,2Z"/><path class="e8c8fdf8-805e-4a02-ad3f-38962e9c9950" d="M257.7,7.7a4.5,4.5,0,0,0-2.8-2.6,14.3,14.3,0,0,0-3.6-.6,25.9,25.9,0,0,0-4.8-.4h-1.2c-7,.4-14.3-.3-21.2,1.2-1,.3-4.4.9-2.9,2.3,3,2.7,8.2,3.3,11.9,3.9s10.7,1.4,15.8.6a12.4,12.4,0,0,0,3.8-1.4c1-.4,2.1-.4,3.1-.8S258,8.9,257.7,7.7Z"/><path class="e8c8fdf8-805e-4a02-ad3f-38962e9c9950" d="M0-5.8c16.1,0,17.9,1,21.1.8H29c2.8,0,5.4,1,8.1,1.1s6.7.6,10.1.8c8.4.4,16.7,1.3,25.1,1.9S89.6,1.6,98.4,2s14.8,0,22.2.2A165.1,165.1,0,0,0,144.9.8c8.7-1.2,17.6-2.2,26-4.5,2.6-.8,4.9-2.3,7.5-3.3s3.9-1.2,5.9-2c4.5-1.8,23.3-4.7,40.8-4.7"/><path class="e8c8fdf8-805e-4a02-ad3f-38962e9c9950" d="M39.1,18.5c14.1-1.5,46.4-4.9,56.7-6.4,5.5-.8,11.3-2.4,16.9-2.5s13.4,0,20.2-.3,15.9,1,23.9-.7c2-.5,3.7-1.5,5.7-2s6,0,9-.3,4.6-.8,6.9-1.2c4.3-.7,20.9-10.8,46.7-10.8"/><path class="e8c8fdf8-805e-4a02-ad3f-38962e9c9950" d="M202.8,16.1c-18.1-7.2-37.2-3.7-56-2.2-9.7.8-19.4.9-29.2,1.1-6.1.2-16.8.8-21.7,3.2s-7,6.4-1.1,8.4c3.9,1.3,8.2,1.5,12.3,1.8l16.4,1a163.4,163.4,0,0,1,26.1,3.3,115.3,115.3,0,0,0,28,3.3,91.1,91.1,0,0,0,18-2c4.5-1,9.5-2.3,13.3-5.1C216.1,23.6,208.2,18.3,202.8,16.1Z"/><path class="e8c8fdf8-805e-4a02-ad3f-38962e9c9950" d="M50.8,2C45.4,1.3,39.9,1,34.5.4S24.8.1,20-.3c-2.8-.2-5.6-1.2-8.5-1.3h-4c-4.6.1-9.4,0-13.9.9s-9.6,2.5-9.9,7c-.4,6.3,9.3,9.5,14,10.4,7,1.3,14.4.3,21.4-.3S33.7,15.1,40.9,14a85.3,85.3,0,0,0,10.3-2c2.6-.7,5.7-1.6,7.6-3.6C62.9,4.2,53.2,2.3,50.8,2Z"/><path class="e8c8fdf8-805e-4a02-ad3f-38962e9c9950" d="M197.8,21.6l-1.6-.7a118.3,118.3,0,0,0-22.1-3.5,173.9,173.9,0,0,0-20.4.8c-6.4.5-12.9.5-19.4,1-1.3.1-4.6.1-5.6,1.2s1.1,1.9,1.9,2.3c6.2,3,13.7,4.1,20.4,5.2a141.3,141.3,0,0,0,18.4,1.6q7.5.2,15,0c3.3,0,6.8,0,10-1s4.1-1.6,5-3.4S199,22.5,197.8,21.6Z"/><path class="e8c8fdf8-805e-4a02-ad3f-38962e9c9950" d="M187.2,23.3c-.2-.8-1.3-1.4-2.1-1.7a8.7,8.7,0,0,0-2.8-.5l-3.7-.4h-.9c-5.4.1-11.1-.5-16.4.4-.9.1-3.5.5-2.3,1.4s6.2,2.4,9.1,2.9a49.8,49.8,0,0,0,12.2.7,13.8,13.8,0,0,0,2.9-.8,22.1,22.1,0,0,1,2.5-.5C186.5,24.6,187.4,24.2,187.2,23.3Z"/><path class="e8c8fdf8-805e-4a02-ad3f-38962e9c9950" d="M32.6,7.7a4.8,4.8,0,0,0-2.8-2.6,14.3,14.3,0,0,0-3.6-.6,26.7,26.7,0,0,0-4.8-.4H20.2C13.2,4.5,5.9,3.8-1,5.3c-1.1.3-4.4.9-2.9,2.3S4.3,10.9,8,11.5s10.7,1.4,15.8.6a11.8,11.8,0,0,0,3.7-1.4c1-.4,2.1-.4,3.2-.8S32.9,8.9,32.6,7.7Z"/></pattern></defs><g class="e40def68-462b-42e6-a1d3-fa830eaf1069"><g id="f78517e4-b637-4b9c-a071-f119da2e79ba" data-name="Layer 1"><path class="b1763501-40a2-4479-ac01-ef85b336f177" d="M169.3,3223.9c62.7,37,1590.4,18.6,1831.7-22.1q-2.7-113.1-5.3-226.6l-86.4-17.6,85-45.9q-11.8-549.9-16.3-1106.1l-46.1-36.5,45.5-34.6c-3.6-527.4-1.7-1056.5,6.5-1582.5L1874.1-224.1C1859-239.9,172.4-209.9-74.8-187.3q6.3,255,10.3,509.6L-31,370.5l-15.1,45.1,2.8,34.8-18.9,30.1q10.8,823.5-2.2,1640.4l25.2,30-12.6,52.8,35.7,41.3-51,29.6q-6.3,339-16.6,676.7v.4q126.5,136.2,253,272.2Z"/><path class="a8e1f3cb-20ae-46ef-bf9e-59579312bd65" d="M169.2,3223.7l-253-272.1c7.9-29.6,86.7-182.2,97.5-184.9s129.3,401,155.5,457Z"/><path class="a6361e42-c031-43fa-b6ab-42eef702727d" d="M1983.9,152c-25.3-29.4-133.2-72.4-138.1-99.4-4-21.2,22.5-202.2,28.3-276.7L1983.9,152Z"/><path class="bd662419-1f1f-4eec-b5a2-8d7c7ad5232f" d="M-1.4,2830.5c53.2,134.4,115.3,283.3,170.7,393.4-18.6,0-253.1-227.3-253.1-272.3,25.2-45.8,52.3-87.1,82.4-121.1Z"/><path class="b5a0a701-d0cd-4dfb-a8bd-f33a4ceb72d3" d="M1983.9,152c-43.3-47.5-86.8-94.1-128.4-149.8,8.2-74.2,13.6-150.1,18.6-226.3,10.7,0,109.8,348.1,109.8,376.1Z"/><path class="f1407954-4311-4e29-84c3-cae11cb6c63b" d="M116.5,3167.1C102,3038.3-11.4,2880.9-49.7,2894.7c15.3-23.4,31.3-45,48.3-64.2,53.1,134.1,115,282.5,170.3,392.5l.4.9c-4.9,0-24.8-15.8-51.4-39.9-.3-5.5-.7-11.2-1.4-16.9Z"/><path class="f192fe75-3ba2-468b-a4ef-5b5c9389e4ec" d="M1872.6-23.1c12.7,71.8,68.2,122.7,101.9,143l3.8,2.3c3.6,15.2,5.6,25.8,5.6,29.8-1-1.2-2.2-2.5-3.5-3.8-42.1-46.2-84.4-91.8-124.9-146,8.2-74.2,13.6-150.1,18.6-226.3.6,0,1.6,1.3,2.9,3.8s-.4,2.7-.6,4.2c-6.9,51.1-12.4,144.1-3.8,193Z"/><path class="bf6c2e28-1d21-4be6-a9ee-389e084f3455" d="M199.4,3154.4c-30-29.3-41-91.2-57.1-186.1C96.2,2697,36,2745.7-12.3,2671.6-44.5,2622.2-54.6,2473,5,2272.4c54.9-185.3-44.9-390-41.4-777.7,2.3-248.2,56.7-640.3,65.6-755.9C37.4,631.9,47.7,575.1,6.3,422.9c-16-58.8,2-86-37.2-235-20.5-78-14-133.3,6.1-173.4C93.8-222.4,396.3-71.3,530.1-40.4c60.9,14.2,105-81,205.4-57.4C915-55.6,887.3-270.7,1145.4-11.2c168.6,169.5,197.2-108,340.2-78.5,71.9,14.8,96.2-23.9,142-36.9,35.3-10,72.3-24.2,102.9-1.8,63.2,46.4,33.4,200.1,87.9,294.3,78.5,135.5,164-53.6,125.1,340.9-19.6,198.2-42.6,428.7-5.7,674.3,10.6,70.8,10.4,249.6-1.6,315-47.8,261.3-92.1,220.7-28.5,369.9,51.8,121.8-21.2,221.8,16.2,358.1,36.1,131.9,19,260.2-21.1,529.7-5.5,36.7,21.5,81.5-28.8,153.3-35.1,50.1,89.3,193.8-191.7,193.8-79.8,0-104.4,69.1-184.9,63.2-138.8-10.2-219.5-106.2-391.3-68.9-112.2,24.4-168.2,64.2-288.1,51.7-71.1-7.5-85.9,48.1-182.9-21.5-147.3-105.7-302.2,159.4-435.7,29Z"/><path class="a02c3534-91ab-41e1-bc13-42339d518c5e" d="M74.8,2637.9c-38.7-85.2-57.2-150.2-30.6-387.5,39.6-352.6-37.9-441.8-46.4-661.3-10.9-281.5-1.9-143.7,39.5-342.5C62.9,1123.9-5.5,1085.6,74,855c59.1-171.5,44.8-311.2-9.1-468.2C21.3,259.6,16.3,85.4,63.1,1,136-130.7,219.5,18.1,276.8,26.7c17.2,2.5,39.2-7.5,75.4-41.8,41.3-39,145.3,105.6,226.7,105.6,99.5,0,205.5-138.8,349.5-138.8,150.1,0,192,311.4,321.5,180.7,14.5-14.5,105.8,132.2,236.1-34.7,103.8-132.8,245.7-74.9,274.9,58,8,36.2,62.8,5.4,72.5,212.2,4.2,90.2,95.8,147.9,41.6,391.1-10,44.7-16.8,302.1.9,379.3,20.4,88.3,20.3,286.1-.9,362.6-60.1,216.9,25.8,394.9-18.4,552.5-44.7,159.6-6.5,286.8-6.5,408.6,0,256.2-37.1,100.7-16.3,350.7,18.2,218-55.4,247.9-132.9,204.1-22.8-12.9-42.2-25.6-90.6,60.7-72.7,129.8-178.6,46.8-261.9-14.8-115.8-85.5-192.1-81.2-312.9,6-82,59.2-216.7-148.2-352.7-29.6-118.7,103.5-170.9-121.5-257.1,16.3-66.1,105.7-130,79.3-159,7.8-36.9-91.2,6.2,23-50.9-169.1-55.2-185.5-121.4-212.9-141-256.2Z"/><rect class="e0d0953e-f0a0-4e83-9f08-0c94c759f02e" x="202.7" y="-70" width="1522.6" height="3039.47"/><rect class="adbffcf1-8cc4-4578-b008-665497fcec5e" x="202.7" y="-70" width="1522.6" height="3039.47"/><g class="bf4f352e-3c9a-4565-82b7-c7d53fc09184"><polygon class="f972ed6f-1de9-40a6-ad34-da8ffb5f7d4a" points="58.1 232.8 58.1 253.9 107.4 331.8 58.1 409.6 58.1 430.8 120.8 331.8 58.1 232.8"/><polygon class="f972ed6f-1de9-40a6-ad34-da8ffb5f7d4a" points="127.2 332 61.3 438.3 61 438.3 127.2 545 61.3 651.2 61 651.2 127.2 758 61.3 864.2 61 864.2 127.2 970.9 61.3 1077.2 61 1077.2 127.2 1183.9 61.3 1290.2 61 1290.2 127.2 1396.9 61.2 1503.3 65.2 1503.3 131.2 1396.9 65.1 1290.3 65.2 1290.3 131.2 1183.9 65.1 1077.3 65.2 1077.3 131.2 970.9 65.1 864.3 65.2 864.3 131.2 758 65.1 651.4 65.2 651.4 131.2 545 65.1 438.4 65.2 438.4 131.2 332 65 225.3 61 225.3 127.2 332"/><path class="f972ed6f-1de9-40a6-ad34-da8ffb5f7d4a" d="M58.1,260.1V403.5l45.4-71.7Zm5.1,24,14.9,23.6L63.2,331.4Zm0,96.3V333.2l14.9,23.6Zm16.6-24.5V308.6l15,23.7Z"/><polygon class="f972ed6f-1de9-40a6-ad34-da8ffb5f7d4a" points="58.1 445.7 58.1 466.9 107.4 544.8 58.1 622.6 58.1 643.8 120.8 544.7 58.1 445.7"/><path class="f972ed6f-1de9-40a6-ad34-da8ffb5f7d4a" d="M58.1,473V616.5l45.4-71.8Zm5.1,24.1,14.9,23.6L63.2,544.3Zm0,96.3V546.1l14.9,23.7Zm16.6-24.5V521.6l15,23.6Z"/><polygon class="f972ed6f-1de9-40a6-ad34-da8ffb5f7d4a" points="58.1 658.7 58.1 679.9 107.4 757.7 58.1 835.6 58.1 856.7 120.8 757.7 58.1 658.7"/><path class="f972ed6f-1de9-40a6-ad34-da8ffb5f7d4a" d="M58.1,686V829.4l45.4-71.7Zm5.1,24.1,14.9,23.6L63.2,757.3Zm0,96.3V759.1l14.9,23.6Zm16.6-24.6V734.6l15,23.6Z"/><polygon class="f972ed6f-1de9-40a6-ad34-da8ffb5f7d4a" points="58.1 871.7 58.1 892.8 107.4 970.7 58.1 1048.6 58.1 1069.7 120.8 970.7 58.1 871.7"/><path class="f972ed6f-1de9-40a6-ad34-da8ffb5f7d4a" d="M58.1,899v143.4l45.4-71.7Zm5.1,24,14.9,23.7L63.2,970.3Zm0,96.3V972.1l14.9,23.6Zm16.6-24.5V947.6l15,23.6Z"/><polygon class="f972ed6f-1de9-40a6-ad34-da8ffb5f7d4a" points="58.1 1084.7 58.1 1105.8 107.4 1183.7 58.1 1261.5 58.1 1282.7 120.8 1183.7 58.1 1084.7"/><path class="f972ed6f-1de9-40a6-ad34-da8ffb5f7d4a" d="M58.1,1112v143.4l45.4-71.7Zm5.1,24,14.9,23.6-14.9,23.7Zm0,96.3v-47.2l14.9,23.6Zm16.6-24.5v-47.3l15,23.7Z"/><polygon class="f972ed6f-1de9-40a6-ad34-da8ffb5f7d4a" points="58.1 1297.6 58.1 1318.8 107.4 1396.7 58.1 1474.5 58.1 1495.7 120.8 1396.7 58.1 1297.6"/><path class="f972ed6f-1de9-40a6-ad34-da8ffb5f7d4a" d="M58.1,1325v143.4l45.4-71.7Zm5.1,24,14.9,23.6-14.9,23.6Zm0,96.3v-47.2l14.9,23.6Zm16.6-24.5v-47.3l15,23.6Z"/><polygon class="f972ed6f-1de9-40a6-ad34-da8ffb5f7d4a" points="157.1 1389.7 157.1 1368.5 107.8 1290.6 157.1 1212.8 157.1 1191.6 94.4 1290.6 157.1 1389.7"/><polygon class="f972ed6f-1de9-40a6-ad34-da8ffb5f7d4a" points="88 1290.4 153.9 1184.2 154.2 1184.2 88 1077.4 153.9 971.2 154.2 971.2 88 864.5 153.9 758.2 154.2 758.2 88 651.5 153.9 545.2 154.2 545.2 88 438.5 153.9 332.2 154.2 332.2 88 225.5 154 119.1 150 119.1 84 225.5 150.1 332.1 150 332.1 84 438.5 150.1 545.1 150 545.1 84 651.5 150.1 758.1 150 758.1 84 864.5 150.1 971 150 971 84 1077.4 150.1 1184 150 1184 84 1290.4 150.2 1397.1 154.2 1397.1 88 1290.4"/><path class="f972ed6f-1de9-40a6-ad34-da8ffb5f7d4a" d="M157.1,1362.3V1218.9l-45.4,71.7Zm-5.1-24-14.9-23.6,14.9-23.6Zm0-96.3v47.2l-14.9-23.6Zm-16.6,24.5v47.3l-15-23.7Z"/><polygon class="f972ed6f-1de9-40a6-ad34-da8ffb5f7d4a" points="157.1 1176.7 157.1 1155.5 107.8 1077.7 157.1 999.8 157.1 978.6 94.4 1077.7 157.1 1176.7"/><path class="f972ed6f-1de9-40a6-ad34-da8ffb5f7d4a" d="M157.1,1149.4V1006l-45.4,71.7Zm-5.1-24.1-14.9-23.6,14.9-23.6Zm0-96.3v47.3l-14.9-23.7Zm-16.6,24.5v47.3l-15-23.6Z"/><polygon class="f972ed6f-1de9-40a6-ad34-da8ffb5f7d4a" points="157.1 963.7 157.1 942.5 107.8 864.7 157.1 786.8 157.1 765.7 94.4 864.7 157.1 963.7"/><path class="f972ed6f-1de9-40a6-ad34-da8ffb5f7d4a" d="M157.1,936.4V793l-45.4,71.7ZM152,912.3l-14.9-23.6L152,865.1Zm0-96.3v47.3l-14.9-23.6Zm-16.6,24.6v47.2l-15-23.6Z"/><polygon class="f972ed6f-1de9-40a6-ad34-da8ffb5f7d4a" points="157.1 750.7 157.1 729.6 107.8 651.7 157.1 573.8 157.1 552.7 94.4 651.7 157.1 750.7"/><path class="f972ed6f-1de9-40a6-ad34-da8ffb5f7d4a" d="M157.1,723.4V580l-45.4,71.7Zm-5.1-24-14.9-23.7L152,652.1Zm0-96.3v47.2l-14.9-23.6Zm-16.6,24.5v47.2l-15-23.6Z"/><polygon class="f972ed6f-1de9-40a6-ad34-da8ffb5f7d4a" points="157.1 537.7 157.1 516.6 107.8 438.7 157.1 360.9 157.1 339.7 94.4 438.7 157.1 537.7"/><path class="f972ed6f-1de9-40a6-ad34-da8ffb5f7d4a" d="M157.1,510.4V367l-45.4,71.7Zm-5.1-24-14.9-23.6L152,439.1Zm0-96.3v47.2l-14.9-23.6Zm-16.6,24.5v47.3l-15-23.7Z"/><polygon class="f972ed6f-1de9-40a6-ad34-da8ffb5f7d4a" points="157.1 324.8 157.1 303.6 107.8 225.7 157.1 147.9 157.1 126.7 94.4 225.7 157.1 324.8"/><path class="f972ed6f-1de9-40a6-ad34-da8ffb5f7d4a" d="M157.1,297.5V154l-45.4,71.7ZM152,273.4l-14.9-23.6L152,226.2Zm0-96.3v47.3l-14.9-23.7Zm-16.6,24.5v47.3l-15-23.6Z"/></g><g class="bf4f352e-3c9a-4565-82b7-c7d53fc09184"><polygon class="f972ed6f-1de9-40a6-ad34-da8ffb5f7d4a" points="157.8 2666.8 157.8 2645.7 108.5 2567.8 157.8 2489.9 157.8 2468.8 95.1 2567.8 157.8 2666.8"/><polygon class="f972ed6f-1de9-40a6-ad34-da8ffb5f7d4a" points="88.7 2567.6 154.6 2461.3 154.9 2461.3 88.7 2354.6 154.6 2248.3 154.9 2248.3 88.7 2141.6 154.6 2035.4 154.9 2035.4 88.7 1928.6 154.6 1822.4 154.9 1822.4 88.7 1715.7 154.6 1609.4 154.9 1609.4 88.7 1502.7 154.7 1396.3 150.7 1396.3 84.8 1502.7 150.8 1609.3 150.7 1609.3 84.8 1715.7 150.8 1822.2 150.7 1822.2 84.8 1928.6 150.8 2035.2 150.7 2035.2 84.8 2141.6 150.8 2248.2 150.7 2248.2 84.8 2354.6 150.8 2461.2 150.7 2461.2 84.8 2567.6 150.9 2674.3 154.9 2674.3 88.7 2567.6"/><path class="f972ed6f-1de9-40a6-ad34-da8ffb5f7d4a" d="M157.8,2639.5V2496.1l-45.4,71.7Zm-5-24-15-23.7,15-23.6Zm0-96.3v47.2l-15-23.6Zm-16.7,24.5v47.2l-14.9-23.6Z"/><polygon class="f972ed6f-1de9-40a6-ad34-da8ffb5f7d4a" points="157.8 2453.8 157.8 2432.7 108.5 2354.8 157.8 2277 157.8 2255.8 95.1 2354.8 157.8 2453.8"/><path class="f972ed6f-1de9-40a6-ad34-da8ffb5f7d4a" d="M157.8,2426.5V2283.1l-45.4,71.7Zm-5-24-15-23.6,15-23.7Zm0-96.3v47.2l-15-23.6Zm-16.7,24.5V2378l-14.9-23.7Z"/><polygon class="f972ed6f-1de9-40a6-ad34-da8ffb5f7d4a" points="157.8 2240.9 157.8 2219.7 108.5 2141.8 157.8 2064 157.8 2042.8 95.1 2141.8 157.8 2240.9"/><path class="f972ed6f-1de9-40a6-ad34-da8ffb5f7d4a" d="M157.8,2213.5V2070.1l-45.4,71.7Zm-5-24-15-23.6,15-23.6Zm0-96.3v47.3l-15-23.7Zm-16.7,24.5V2165l-14.9-23.6Z"/><polygon class="f972ed6f-1de9-40a6-ad34-da8ffb5f7d4a" points="157.8 2027.9 157.8 2006.7 108.5 1928.9 157.8 1851 157.8 1829.9 95.1 1928.9 157.8 2027.9"/><path class="f972ed6f-1de9-40a6-ad34-da8ffb5f7d4a" d="M157.8,2000.6V1857.2l-45.4,71.7Zm-5-24.1-15-23.6,15-23.6Zm0-96.3v47.3l-15-23.6Zm-16.7,24.6V1952l-14.9-23.6Z"/><polygon class="f972ed6f-1de9-40a6-ad34-da8ffb5f7d4a" points="157.8 1814.9 157.8 1793.7 108.5 1715.9 157.8 1638 157.8 1616.9 95.1 1715.9 157.8 1814.9"/><path class="f972ed6f-1de9-40a6-ad34-da8ffb5f7d4a" d="M157.8,1787.6V1644.2l-45.4,71.7Zm-5-24.1-15-23.6,15-23.6Zm0-96.2v47.2l-15-23.6Zm-16.7,24.5V1739l-14.9-23.6Z"/><polygon class="f972ed6f-1de9-40a6-ad34-da8ffb5f7d4a" points="157.8 1601.9 157.8 1580.8 108.5 1502.9 157.8 1425.1 157.8 1403.9 95.1 1502.9 157.8 1601.9"/><path class="f972ed6f-1de9-40a6-ad34-da8ffb5f7d4a" d="M157.8,1574.6V1431.2l-45.4,71.7Zm-5-24-15-23.7,15-23.6Zm0-96.3v47.2l-15-23.6Zm-16.7,24.5V1526l-14.9-23.6Z"/><polygon class="f972ed6f-1de9-40a6-ad34-da8ffb5f7d4a" points="58.8 1509.9 58.8 1531.1 108.2 1608.9 58.8 1686.8 58.8 1708 121.6 1608.9 58.8 1509.9"/><polygon class="f972ed6f-1de9-40a6-ad34-da8ffb5f7d4a" points="127.9 1609.2 62 1715.4 61.7 1715.4 127.9 1822.1 62 1928.4 61.7 1928.4 127.9 2035.1 62 2141.4 61.7 2141.4 127.9 2248.1 62 2354.4 61.7 2354.4 127.9 2461.1 62 2567.3 61.7 2567.3 127.9 2674.1 61.9 2780.4 65.9 2780.4 131.9 2674.1 65.8 2567.5 65.9 2567.5 131.9 2461.1 65.8 2354.5 65.9 2354.5 131.9 2248.1 65.8 2141.5 65.9 2141.5 131.9 2035.1 65.8 1928.5 65.9 1928.5 131.9 1822.1 65.8 1715.6 65.9 1715.6 131.9 1609.2 65.7 1502.4 61.7 1502.4 127.9 1609.2"/><path class="f972ed6f-1de9-40a6-ad34-da8ffb5f7d4a" d="M58.8,1537.2v143.4l45.5-71.7Zm5.1,24.1,15,23.6-15,23.6Zm0,96.3v-47.3l15,23.7ZM80.5,1633v-47.2l15,23.6Z"/><polygon class="f972ed6f-1de9-40a6-ad34-da8ffb5f7d4a" points="58.8 1722.9 58.8 1744.1 108.2 1821.9 58.8 1899.8 58.8 1920.9 121.6 1821.9 58.8 1722.9"/><path class="f972ed6f-1de9-40a6-ad34-da8ffb5f7d4a" d="M58.8,1750.2v143.4l45.5-71.7Zm5.1,24.1,15,23.6-15,23.6Zm0,96.3v-47.3l15,23.6ZM80.5,1846v-47.2l15,23.6Z"/><polygon class="f972ed6f-1de9-40a6-ad34-da8ffb5f7d4a" points="58.8 1935.9 58.8 1957 108.2 2034.9 58.8 2112.8 58.8 2133.9 121.6 2034.9 58.8 1935.9"/><path class="f972ed6f-1de9-40a6-ad34-da8ffb5f7d4a" d="M58.8,1963.2v143.4l45.5-71.7Zm5.1,24,15,23.7-15,23.6Zm0,96.3v-47.2l15,23.6ZM80.5,2059v-47.2l15,23.6Z"/><polygon class="f972ed6f-1de9-40a6-ad34-da8ffb5f7d4a" points="58.8 2148.9 58.8 2170 108.2 2247.9 58.8 2325.7 58.8 2346.9 121.6 2247.9 58.8 2148.9"/><path class="f972ed6f-1de9-40a6-ad34-da8ffb5f7d4a" d="M58.8,2176.2v143.4l45.5-71.7Zm5.1,24,15,23.6-15,23.7Zm0,96.3v-47.2l15,23.6ZM80.5,2272v-47.3l15,23.7Z"/><polygon class="f972ed6f-1de9-40a6-ad34-da8ffb5f7d4a" points="58.8 2361.8 58.8 2383 108.2 2460.8 58.8 2538.7 58.8 2559.9 121.6 2460.8 58.8 2361.8"/><path class="f972ed6f-1de9-40a6-ad34-da8ffb5f7d4a" d="M58.8,2389.1v143.5l45.5-71.8Zm5.1,24.1,15,23.6-15,23.6Zm0,96.3v-47.3l15,23.7ZM80.5,2485v-47.3l15,23.6Z"/><polygon class="f972ed6f-1de9-40a6-ad34-da8ffb5f7d4a" points="58.8 2574.8 58.8 2596 108.2 2673.8 58.8 2751.7 58.8 2772.8 121.6 2673.8 58.8 2574.8"/><path class="f972ed6f-1de9-40a6-ad34-da8ffb5f7d4a" d="M58.8,2602.1v143.4l45.5-71.7Zm5.1,24.1,15,23.6-15,23.6Zm0,96.3v-47.3l15,23.6Zm16.6-24.6v-47.2l15,23.6Z"/></g><g class="bf4f352e-3c9a-4565-82b7-c7d53fc09184"><polygon class="f972ed6f-1de9-40a6-ad34-da8ffb5f7d4a" points="1868.4 232.8 1868.4 253.9 1819.1 331.8 1868.4 409.6 1868.4 430.8 1805.7 331.8 1868.4 232.8"/><polygon class="f972ed6f-1de9-40a6-ad34-da8ffb5f7d4a" points="1799.3 332 1865.2 438.3 1865.5 438.3 1799.3 545 1865.2 651.2 1865.5 651.2 1799.3 758 1865.2 864.2 1865.5 864.2 1799.3 970.9 1865.2 1077.2 1865.5 1077.2 1799.3 1183.9 1865.2 1290.2 1865.5 1290.2 1799.3 1396.9 1865.3 1503.3 1861.3 1503.3 1795.3 1396.9 1861.4 1290.3 1861.3 1290.3 1795.3 1183.9 1861.4 1077.3 1861.3 1077.3 1795.3 970.9 1861.4 864.3 1861.3 864.3 1795.3 758 1861.4 651.4 1861.3 651.4 1795.3 545 1861.4 438.4 1861.3 438.4 1795.3 332 1861.5 225.3 1865.5 225.3 1799.3 332"/><path class="f972ed6f-1de9-40a6-ad34-da8ffb5f7d4a" d="M1823,331.8l45.4,71.7V260.1Zm40.3-.4-14.9-23.7,14.9-23.6Zm-14.9,25.4,14.9-23.6v47.2Zm-16.7-24.5,15-23.7v47.3Z"/><polygon class="f972ed6f-1de9-40a6-ad34-da8ffb5f7d4a" points="1868.4 445.7 1868.4 466.9 1819.1 544.8 1868.4 622.6 1868.4 643.8 1805.7 544.7 1868.4 445.7"/><path class="f972ed6f-1de9-40a6-ad34-da8ffb5f7d4a" d="M1823,544.7l45.4,71.8V473Zm40.3-.4-14.9-23.6,14.9-23.6Zm-14.9,25.5,14.9-23.7v47.3Zm-16.7-24.6,15-23.6v47.3Z"/><polygon class="f972ed6f-1de9-40a6-ad34-da8ffb5f7d4a" points="1868.4 658.7 1868.4 679.9 1819.1 757.7 1868.4 835.6 1868.4 856.7 1805.7 757.7 1868.4 658.7"/><path class="f972ed6f-1de9-40a6-ad34-da8ffb5f7d4a" d="M1823,757.7l45.4,71.7V686Zm40.3-.4-14.9-23.6,14.9-23.6Zm-14.9,25.4,14.9-23.6v47.3Zm-16.7-24.5,15-23.6v47.2Z"/><polygon class="f972ed6f-1de9-40a6-ad34-da8ffb5f7d4a" points="1868.4 871.7 1868.4 892.8 1819.1 970.7 1868.4 1048.6 1868.4 1069.7 1805.7 970.7 1868.4 871.7"/><path class="f972ed6f-1de9-40a6-ad34-da8ffb5f7d4a" d="M1823,970.7l45.4,71.7V899Zm40.3-.4-14.9-23.6,14.9-23.7Zm-14.9,25.4,14.9-23.6v47.2Zm-16.7-24.5,15-23.6v47.2Z"/><polygon class="f972ed6f-1de9-40a6-ad34-da8ffb5f7d4a" points="1868.4 1084.7 1868.4 1105.8 1819.1 1183.7 1868.4 1261.5 1868.4 1282.7 1805.7 1183.7 1868.4 1084.7"/><path class="f972ed6f-1de9-40a6-ad34-da8ffb5f7d4a" d="M1823,1183.7l45.4,71.7V1112Zm40.3-.4-14.9-23.7,14.9-23.6Zm-14.9,25.4,14.9-23.6v47.2Zm-16.7-24.5,15-23.7v47.3Z"/><polygon class="f972ed6f-1de9-40a6-ad34-da8ffb5f7d4a" points="1868.4 1297.6 1868.4 1318.8 1819.1 1396.7 1868.4 1474.5 1868.4 1495.7 1805.7 1396.7 1868.4 1297.6"/><path class="f972ed6f-1de9-40a6-ad34-da8ffb5f7d4a" d="M1823,1396.7l45.4,71.7V1325Zm40.3-.5-14.9-23.6,14.9-23.6Zm-14.9,25.5,14.9-23.6v47.2Zm-16.7-24.6,15-23.6v47.3Z"/><polygon class="f972ed6f-1de9-40a6-ad34-da8ffb5f7d4a" points="1769.4 1389.7 1769.4 1368.5 1818.7 1290.6 1769.4 1212.8 1769.4 1191.6 1832.1 1290.6 1769.4 1389.7"/><polygon class="f972ed6f-1de9-40a6-ad34-da8ffb5f7d4a" points="1838.5 1290.4 1772.6 1184.2 1772.3 1184.2 1838.5 1077.4 1772.6 971.2 1772.3 971.2 1838.5 864.5 1772.6 758.2 1772.3 758.2 1838.5 651.5 1772.6 545.2 1772.3 545.2 1838.5 438.5 1772.6 332.2 1772.3 332.2 1838.5 225.5 1772.5 119.1 1776.5 119.1 1842.5 225.5 1776.4 332.1 1776.5 332.1 1842.5 438.5 1776.4 545.1 1776.5 545.1 1842.5 651.5 1776.4 758.1 1776.5 758.1 1842.5 864.5 1776.4 971 1776.5 971 1842.5 1077.4 1776.4 1184 1776.5 1184 1842.5 1290.4 1776.3 1397.1 1772.3 1397.1 1838.5 1290.4"/><path class="f972ed6f-1de9-40a6-ad34-da8ffb5f7d4a" d="M1814.8,1290.6l-45.4-71.7v143.4Zm-40.3.5,14.9,23.6-14.9,23.6Zm14.9-25.5-14.9,23.6V1242Zm16.7,24.5-15,23.7v-47.3Z"/><polygon class="f972ed6f-1de9-40a6-ad34-da8ffb5f7d4a" points="1769.4 1176.7 1769.4 1155.5 1818.7 1077.7 1769.4 999.8 1769.4 978.6 1832.1 1077.7 1769.4 1176.7"/><path class="f972ed6f-1de9-40a6-ad34-da8ffb5f7d4a" d="M1814.8,1077.7l-45.4-71.7v143.4Zm-40.3.4,14.9,23.6-14.9,23.6Zm14.9-25.5-14.9,23.7V1029Zm16.7,24.6-15,23.6v-47.3Z"/><polygon class="f972ed6f-1de9-40a6-ad34-da8ffb5f7d4a" points="1769.4 963.7 1769.4 942.5 1818.7 864.7 1769.4 786.8 1769.4 765.7 1832.1 864.7 1769.4 963.7"/><path class="f972ed6f-1de9-40a6-ad34-da8ffb5f7d4a" d="M1814.8,864.7,1769.4,793V936.4Zm-40.3.4,14.9,23.6-14.9,23.6Zm14.9-25.4-14.9,23.6V816Zm16.7,24.5-15,23.6V840.6Z"/><polygon class="f972ed6f-1de9-40a6-ad34-da8ffb5f7d4a" points="1769.4 750.7 1769.4 729.6 1818.7 651.7 1769.4 573.8 1769.4 552.7 1832.1 651.7 1769.4 750.7"/><path class="f972ed6f-1de9-40a6-ad34-da8ffb5f7d4a" d="M1814.8,651.7,1769.4,580V723.4Zm-40.3.4,14.9,23.6-14.9,23.7Zm14.9-25.4-14.9,23.6V603.1Zm16.7,24.5-15,23.6V627.6Z"/><polygon class="f972ed6f-1de9-40a6-ad34-da8ffb5f7d4a" points="1769.4 537.7 1769.4 516.6 1818.7 438.7 1769.4 360.9 1769.4 339.7 1832.1 438.7 1769.4 537.7"/><path class="f972ed6f-1de9-40a6-ad34-da8ffb5f7d4a" d="M1814.8,438.7,1769.4,367V510.4Zm-40.3.4,14.9,23.7-14.9,23.6Zm14.9-25.4-14.9,23.6V390.1Zm16.7,24.5-15,23.7V414.6Z"/><polygon class="f972ed6f-1de9-40a6-ad34-da8ffb5f7d4a" points="1769.4 324.8 1769.4 303.6 1818.7 225.7 1769.4 147.9 1769.4 126.7 1832.1 225.7 1769.4 324.8"/><path class="f972ed6f-1de9-40a6-ad34-da8ffb5f7d4a" d="M1814.8,225.7,1769.4,154V297.5Zm-40.3.5,14.9,23.6-14.9,23.6Zm14.9-25.5-14.9,23.7V177.1Zm16.7,24.6-15,23.6V201.6Z"/></g><g class="bf4f352e-3c9a-4565-82b7-c7d53fc09184"><polygon class="f972ed6f-1de9-40a6-ad34-da8ffb5f7d4a" points="1768.7 2666.8 1768.7 2645.7 1818 2567.8 1768.7 2489.9 1768.7 2468.8 1831.4 2567.8 1768.7 2666.8"/><polygon class="f972ed6f-1de9-40a6-ad34-da8ffb5f7d4a" points="1837.8 2567.6 1771.9 2461.3 1771.6 2461.3 1837.8 2354.6 1771.9 2248.3 1771.6 2248.3 1837.8 2141.6 1771.9 2035.4 1771.6 2035.4 1837.8 1928.6 1771.9 1822.4 1771.6 1822.4 1837.8 1715.7 1771.9 1609.4 1771.6 1609.4 1837.8 1502.7 1771.8 1396.3 1775.8 1396.3 1841.8 1502.7 1775.7 1609.3 1775.8 1609.3 1841.8 1715.7 1775.7 1822.2 1775.8 1822.2 1841.8 1928.6 1775.7 2035.2 1775.8 2035.2 1841.8 2141.6 1775.7 2248.2 1775.8 2248.2 1841.8 2354.6 1775.7 2461.2 1775.8 2461.2 1841.8 2567.6 1775.6 2674.3 1771.6 2674.3 1837.8 2567.6"/><path class="f972ed6f-1de9-40a6-ad34-da8ffb5f7d4a" d="M1814.1,2567.8l-45.4-71.7v143.4Zm-40.3.4,14.9,23.6-14.9,23.7Zm14.9-25.4-14.9,23.6v-47.2Zm16.7,24.5-15,23.6v-47.2Z"/><polygon class="f972ed6f-1de9-40a6-ad34-da8ffb5f7d4a" points="1768.7 2453.8 1768.7 2432.7 1818 2354.8 1768.7 2277 1768.7 2255.8 1831.4 2354.8 1768.7 2453.8"/><path class="f972ed6f-1de9-40a6-ad34-da8ffb5f7d4a" d="M1814.1,2354.8l-45.4-71.7v143.4Zm-40.3.4,14.9,23.7-14.9,23.6Zm14.9-25.4-14.9,23.6v-47.2Zm16.7,24.5-15,23.7v-47.3Z"/><polygon class="f972ed6f-1de9-40a6-ad34-da8ffb5f7d4a" points="1768.7 2240.9 1768.7 2219.7 1818 2141.8 1768.7 2064 1768.7 2042.8 1831.4 2141.8 1768.7 2240.9"/><path class="f972ed6f-1de9-40a6-ad34-da8ffb5f7d4a" d="M1814.1,2141.8l-45.4-71.7v143.4Zm-40.3.5,14.9,23.6-14.9,23.6Zm14.9-25.5-14.9,23.7v-47.3Zm16.7,24.6-15,23.6v-47.3Z"/><polygon class="f972ed6f-1de9-40a6-ad34-da8ffb5f7d4a" points="1768.7 2027.9 1768.7 2006.7 1818 1928.9 1768.7 1851 1768.7 1829.9 1831.4 1928.9 1768.7 2027.9"/><path class="f972ed6f-1de9-40a6-ad34-da8ffb5f7d4a" d="M1814.1,1928.9l-45.4-71.7v143.4Zm-40.3.4,14.9,23.6-14.9,23.6Zm14.9-25.4-14.9,23.6v-47.3Zm16.7,24.5-15,23.6v-47.2Z"/><polygon class="f972ed6f-1de9-40a6-ad34-da8ffb5f7d4a" points="1768.7 1814.9 1768.7 1793.7 1818 1715.9 1768.7 1638 1768.7 1616.9 1831.4 1715.9 1768.7 1814.9"/><path class="f972ed6f-1de9-40a6-ad34-da8ffb5f7d4a" d="M1814.1,1715.9l-45.4-71.7v143.4Zm-40.3.4,14.9,23.6-14.9,23.6Zm14.9-25.4-14.9,23.6v-47.2Zm16.7,24.5-15,23.6v-47.2Z"/><polygon class="f972ed6f-1de9-40a6-ad34-da8ffb5f7d4a" points="1768.7 1601.9 1768.7 1580.8 1818 1502.9 1768.7 1425.1 1768.7 1403.9 1831.4 1502.9 1768.7 1601.9"/><path class="f972ed6f-1de9-40a6-ad34-da8ffb5f7d4a" d="M1814.1,1502.9l-45.4-71.7v143.4Zm-40.3.4,14.9,23.6-14.9,23.7Zm14.9-25.4-14.9,23.6v-47.2Zm16.7,24.5-15,23.6v-47.2Z"/><polygon class="f972ed6f-1de9-40a6-ad34-da8ffb5f7d4a" points="1867.7 1509.9 1867.7 1531.1 1818.4 1608.9 1867.7 1686.8 1867.7 1708 1805 1608.9 1867.7 1509.9"/><polygon class="f972ed6f-1de9-40a6-ad34-da8ffb5f7d4a" points="1798.6 1609.2 1864.5 1715.4 1864.8 1715.4 1798.6 1822.1 1864.5 1928.4 1864.8 1928.4 1798.6 2035.1 1864.5 2141.4 1864.8 2141.4 1798.6 2248.1 1864.5 2354.4 1864.8 2354.4 1798.6 2461.1 1864.5 2567.3 1864.8 2567.3 1798.6 2674.1 1864.6 2780.4 1860.6 2780.4 1794.6 2674.1 1860.7 2567.5 1860.6 2567.5 1794.6 2461.1 1860.7 2354.5 1860.6 2354.5 1794.6 2248.1 1860.7 2141.5 1860.6 2141.5 1794.6 2035.1 1860.7 1928.5 1860.6 1928.5 1794.6 1822.1 1860.7 1715.6 1860.6 1715.6 1794.6 1609.2 1860.8 1502.4 1864.8 1502.4 1798.6 1609.2"/><path class="f972ed6f-1de9-40a6-ad34-da8ffb5f7d4a" d="M1822.3,1608.9l45.4,71.7V1537.2Zm40.3-.4-14.9-23.6,14.9-23.6Zm-14.9,25.5,14.9-23.7v47.3Zm-16.7-24.6,15-23.6V1633Z"/><polygon class="f972ed6f-1de9-40a6-ad34-da8ffb5f7d4a" points="1867.7 1722.9 1867.7 1744.1 1818.4 1821.9 1867.7 1899.8 1867.7 1920.9 1805 1821.9 1867.7 1722.9"/><path class="f972ed6f-1de9-40a6-ad34-da8ffb5f7d4a" d="M1822.3,1821.9l45.4,71.7V1750.2Zm40.3-.4-14.9-23.6,14.9-23.6Zm-14.9,25.4,14.9-23.6v47.3Zm-16.7-24.5,15-23.6V1846Z"/><polygon class="f972ed6f-1de9-40a6-ad34-da8ffb5f7d4a" points="1867.7 1935.9 1867.7 1957 1818.4 2034.9 1867.7 2112.8 1867.7 2133.9 1805 2034.9 1867.7 1935.9"/><path class="f972ed6f-1de9-40a6-ad34-da8ffb5f7d4a" d="M1822.3,2034.9l45.4,71.7V1963.2Zm40.3-.4-14.9-23.6,14.9-23.7Zm-14.9,25.4,14.9-23.6v47.2Zm-16.7-24.5,15-23.6V2059Z"/><polygon class="f972ed6f-1de9-40a6-ad34-da8ffb5f7d4a" points="1867.7 2148.9 1867.7 2170 1818.4 2247.9 1867.7 2325.7 1867.7 2346.9 1805 2247.9 1867.7 2148.9"/><path class="f972ed6f-1de9-40a6-ad34-da8ffb5f7d4a" d="M1822.3,2247.9l45.4,71.7V2176.2Zm40.3-.4-14.9-23.7,14.9-23.6Zm-14.9,25.4,14.9-23.6v47.2Zm-16.7-24.5,15-23.7V2272Z"/><polygon class="f972ed6f-1de9-40a6-ad34-da8ffb5f7d4a" points="1867.7 2361.8 1867.7 2383 1818.4 2460.8 1867.7 2538.7 1867.7 2559.9 1805 2460.8 1867.7 2361.8"/><path class="f972ed6f-1de9-40a6-ad34-da8ffb5f7d4a" d="M1822.3,2460.8l45.4,71.8V2389.1Zm40.3-.4-14.9-23.6,14.9-23.6Zm-14.9,25.5,14.9-23.7v47.3Zm-16.7-24.6,15-23.6V2485Z"/><polygon class="f972ed6f-1de9-40a6-ad34-da8ffb5f7d4a" points="1867.7 2574.8 1867.7 2596 1818.4 2673.8 1867.7 2751.7 1867.7 2772.8 1805 2673.8 1867.7 2574.8"/><path class="f972ed6f-1de9-40a6-ad34-da8ffb5f7d4a" d="M1822.3,2673.8l45.4,71.7V2602.1Zm40.3-.4-14.9-23.6,14.9-23.6Zm-14.9,25.4,14.9-23.6v47.3Zm-16.7-24.5,15-23.6v47.2Z"/></g></g></g></svg>